# Blender 4.1.1
# www.blender.org
o plate_01_collision.005
v 0.019731 0.003231 -0.054211
v 0.052285 0.003231 -0.024381
v 0.072769 0.013799 -0.033933
v 0.027461 0.013799 -0.075450
v 0.102675 0.019188 -0.047878
v 0.091362 0.019188 -0.066989
v 0.076537 0.019188 -0.083526
v 0.038747 0.019188 -0.106458
v 0.058772 0.019188 -0.096853
v 0.102578 0.015668 -0.047833
v 0.091274 0.015668 -0.066925
v 0.076465 0.015668 -0.083446
v 0.038711 0.015668 -0.106356
v 0.058716 0.015668 -0.096760
v 0.103455 0.017428 -0.048242
v 0.092055 0.017428 -0.067498
v 0.077118 0.017428 -0.084160
v 0.039041 0.017428 -0.107265
v 0.059217 0.017428 -0.097588
v 0.028644 0.000008 -0.047205
v 0.018886 -0.000000 -0.051888
v 0.037305 -0.000000 -0.040711
v 0.044528 0.000008 -0.032649
v 0.050044 -0.000000 -0.023336
vn 0.1762 -0.9654 -0.1923
vn 0.1353 -0.9654 -0.2230
vn 0.8812 -0.4657 -0.0814
vn 0.9975 -0.0209 0.0677
vn 0.9018 0.4244 -0.0813
vn -0.5882 -0.3036 -0.7496
vn -0.3737 0.7257 -0.5777
vn -0.1535 -0.0209 -0.9879
vn 0.4226 -0.0000 0.9063
vn 0.4085 -0.0034 0.9127
vn 0.4084 -0.0024 0.9128
vn 0.1671 0.6529 0.7388
vn -0.2958 0.8812 0.3688
vn -0.0663 0.9845 0.1622
vn -0.5517 0.5772 0.6021
vn -0.5642 0.5470 0.6184
vn -0.0000 1.0000 -0.0000
vn -0.7201 0.6927 -0.0404
vn -0.4007 0.8701 0.2871
vn 0.7066 -0.4819 -0.5181
vn 0.5920 -0.4818 -0.6461
vn 0.4546 -0.4817 -0.7492
vn 0.4662 0.4387 -0.7682
vn 0.6071 0.4388 -0.6625
vn 0.7246 0.4390 -0.5313
vn -0.9397 -0.0000 -0.3420
vn 0.2104 -0.9654 -0.1543
vn -0.0000 -1.0000 -0.0000
vn 0.0017 -0.9993 -0.0365
vn 0.0039 -1.0000 -0.0065
vn 0.0008 -0.9991 -0.0428
vn 0.2323 -0.9653 -0.1191
vn 0.2409 -0.9653 -0.1006
vn 0.0061 -1.0000 -0.0045
vn 0.0427 -0.9991 -0.0046
vn 0.1136 -0.9651 -0.2362
vt 0.518817 0.319933
vt 0.640843 0.283056
vt 0.649411 0.303781
vt 0.000000 0.000000
vt 0.509573 0.226020
vt 0.505233 0.225600
vt 0.482297 0.320656
vt 0.364559 0.464112
vt 0.366575 0.467868
vt 0.414213 0.300209
vt 0.364231 0.284875
vt 0.661922 0.322393
vt 0.404083 0.437704
vt 0.330875 0.401511
vt 0.437696 0.404094
vt 0.464105 0.364571
vt 0.505233 0.273867
vt 0.509571 0.273433
vt 0.514648 0.321205
vt 0.533119 0.365799
vt 0.536960 0.363738
vt 0.559932 0.405931
vt 0.563297 0.403160
vt 0.406793 0.440995
vt 0.440995 0.406792
vt 0.467868 0.366574
vt 0.486378 0.321887
vt 0.636407 0.261073
vt 0.636421 0.238647
s 1
f 12/1/1 22/2/1 20/3/2 14/4/2
f 10/5/3 15/6/4 5/7/5
f 13/4/6 8/8/7 18/9/8
s 0
f 24/4/9 10/4/9 5/7/10
f 2/4/9 24/4/9 5/7/11
s 1
f 3/10/12 2/11/13 5/7/14
s 0
f 2/4/15 1/4/15 21/12/16 24/4/15
s 1
f 5/7/14 9/13/17 8/8/7
f 3/10/12 5/4/14 8/8/7 4/14/18
f 5/7/14 7/15/17 9/13/17
f 5/7/14 6/16/17 7/15/17
f 2/11/13 3/10/12 4/14/18 1/4/19
f 13/4/6 1/4/19 4/14/18
f 16/17/20 15/6/4 10/5/3 11/18/20
f 17/19/21 16/17/20 11/18/20 12/1/21
f 19/20/22 17/19/21 12/1/21 14/21/22
f 18/22/8 19/20/22 14/21/22 13/23/6
f 8/8/7 9/13/23 19/24/23 18/9/8
f 9/13/23 7/15/24 17/25/24 19/24/23
f 7/15/24 6/16/25 16/26/25 17/25/24
f 6/16/25 5/7/5 15/27/4 16/26/25
s 0
f 13/4/26 21/4/26 1/4/26
s 1
f 11/18/27 23/28/27 22/2/1 12/1/1
s 0
f 22/2/28 24/4/28 21/12/29
s 1
f 20/3/30 22/2/30 21/12/31
f 13/4/6 4/14/18 8/8/7
f 11/18/27 10/5/32 24/29/33 23/28/27
f 23/28/34 24/29/35 22/2/34
f 20/3/2 21/4/36 13/4/36 14/21/2
