# Blender 4.1.1
# www.blender.org
o plate_01_collision.007
v 0.054211 0.003231 0.019731
v 0.024381 0.003231 0.052285
v 0.033933 0.013799 0.072769
v 0.075450 0.013799 0.027461
v 0.047878 0.019188 0.102675
v 0.066989 0.019188 0.091362
v 0.083526 0.019188 0.076537
v 0.106458 0.019188 0.038747
v 0.096853 0.019188 0.058772
v 0.047833 0.015668 0.102578
v 0.066925 0.015668 0.091274
v 0.083446 0.015668 0.076465
v 0.106356 0.015668 0.038711
v 0.096760 0.015668 0.058716
v 0.048242 0.017428 0.103455
v 0.067498 0.017428 0.092055
v 0.084160 0.017428 0.077118
v 0.107265 0.017428 0.039041
v 0.097588 0.017428 0.059217
v 0.047205 0.000008 0.028644
v 0.051888 -0.000000 0.018886
v 0.040711 -0.000000 0.037305
v 0.032649 0.000008 0.044528
v 0.023336 -0.000000 0.050044
vn 0.1923 -0.9654 0.1762
vn 0.2230 -0.9654 0.1353
vn 0.0814 -0.4657 0.8812
vn -0.0677 -0.0209 0.9975
vn 0.0813 0.4244 0.9018
vn 0.7496 -0.3036 -0.5882
vn 0.5777 0.7257 -0.3737
vn 0.9879 -0.0209 -0.1535
vn -0.9063 -0.0000 0.4226
vn -0.9127 -0.0034 0.4085
vn -0.9128 -0.0024 0.4084
vn -0.7388 0.6529 0.1671
vn -0.3688 0.8812 -0.2958
vn -0.1622 0.9845 -0.0663
vn -0.6021 0.5772 -0.5517
vn -0.6184 0.5470 -0.5642
vn -0.0000 1.0000 -0.0000
vn 0.0404 0.6927 -0.7201
vn -0.2871 0.8701 -0.4007
vn 0.5181 -0.4818 0.7066
vn 0.6461 -0.4818 0.5920
vn 0.7492 -0.4817 0.4546
vn 0.7682 0.4387 0.4662
vn 0.6625 0.4389 0.6071
vn 0.5313 0.4390 0.7246
vn 0.3420 -0.0000 -0.9397
vn 0.1543 -0.9654 0.2104
vn -0.0000 -1.0000 -0.0000
vn 0.0365 -0.9993 0.0017
vn 0.0065 -1.0000 0.0039
vn 0.0428 -0.9991 0.0008
vn 0.1191 -0.9653 0.2323
vn 0.1006 -0.9653 0.2409
vn 0.0045 -1.0000 0.0061
vn 0.0046 -0.9991 0.0427
vn 0.2362 -0.9651 0.1136
vt 0.518817 0.319933
vt 0.640843 0.283056
vt 0.649411 0.303781
vt 0.000000 0.000000
vt 0.509573 0.226020
vt 0.505233 0.225600
vt 0.482297 0.320656
vt 0.364559 0.464112
vt 0.366575 0.467868
vt 0.414213 0.300209
vt 0.364231 0.284875
vt 0.661922 0.322393
vt 0.404083 0.437704
vt 0.330875 0.401511
vt 0.437696 0.404094
vt 0.464105 0.364571
vt 0.505233 0.273867
vt 0.509571 0.273433
vt 0.514648 0.321205
vt 0.533119 0.365799
vt 0.536960 0.363738
vt 0.559932 0.405931
vt 0.563297 0.403160
vt 0.406793 0.440995
vt 0.440995 0.406792
vt 0.467868 0.366574
vt 0.486378 0.321887
vt 0.636407 0.261073
vt 0.636421 0.238647
s 1
f 12/1/1 22/2/1 20/3/2 14/4/2
f 10/5/3 15/6/4 5/7/5
f 13/4/6 8/8/7 18/9/8
s 0
f 24/4/9 10/4/9 5/7/10
f 2/4/9 24/4/9 5/7/11
s 1
f 3/10/12 2/11/13 5/7/14
s 0
f 2/4/15 1/4/15 21/12/16 24/4/15
s 1
f 5/7/14 9/13/17 8/8/7
f 3/10/12 5/4/14 8/8/7 4/14/18
f 5/7/14 7/15/17 9/13/17
f 5/7/14 6/16/17 7/15/17
f 2/11/13 3/10/12 4/14/18 1/4/19
f 13/4/6 1/4/19 4/14/18
f 16/17/20 15/6/4 10/5/3 11/18/20
f 17/19/21 16/17/20 11/18/20 12/1/21
f 19/20/22 17/19/21 12/1/21 14/21/22
f 18/22/8 19/20/22 14/21/22 13/23/6
f 8/8/7 9/13/23 19/24/23 18/9/8
f 9/13/23 7/15/24 17/25/24 19/24/23
f 7/15/24 6/16/25 16/26/25 17/25/24
f 6/16/25 5/7/5 15/27/4 16/26/25
s 0
f 13/4/26 21/4/26 1/4/26
s 1
f 11/18/27 23/28/27 22/2/1 12/1/1
s 0
f 22/2/28 24/4/28 21/12/29
s 1
f 20/3/30 22/2/30 21/12/31
f 13/4/6 4/14/18 8/8/7
f 11/18/27 10/5/32 24/29/33 23/28/27
f 23/28/34 24/29/35 22/2/34
f 20/3/2 21/4/36 13/4/36 14/21/2
