# Blender 4.1.1
# www.blender.org
o plate_01_collision.001
v 0.052254 0.007419 -0.052222
v 0.039211 -0.000005 -0.039221
v 0.036793 0.007397 -0.064525
v 0.000035 0.002513 0.000023
v -0.039523 -0.000014 -0.039652
v 0.017149 -0.000000 -0.052724
v -0.017161 -0.000000 -0.052719
v -0.052249 0.007479 -0.052278
v -0.041035 0.007400 -0.061437
v 0.000003 -0.000000 -0.055211
v 0.008498 0.007397 -0.073702
v -0.019541 0.007397 -0.071662
vn 0.2349 -0.9266 -0.2935
vn 0.0010 1.0000 -0.0030
vn -0.0000 1.0000 -0.0010
vn -0.0002 1.0000 -0.0006
vn 0.0006 1.0000 -0.0079
vn 0.7075 -0.0056 0.7067
vn -0.0002 -0.9980 0.0638
vn 0.0001 -1.0000 -0.0008
vn -0.0000 -1.0000 -0.0003
vn -0.0000 -1.0000 -0.0004
vn -0.7077 -0.0118 0.7064
vn -0.2487 -0.9221 -0.2965
vn 0.1785 -0.9396 -0.2919
vn 0.1214 -0.9194 -0.3742
vn -0.1782 -0.9352 -0.3059
vn -0.1624 -0.9259 -0.3412
vn 0.0005 0.9956 0.0940
vn -0.0519 -0.9324 -0.3576
vn -0.0278 -0.9236 -0.3823
vn 0.0508 -0.9351 -0.3507
s 0
f 1//1 2//1 3//1
f 1//2 3//2 11//2
f 1//3 11//3 12//3
f 1//4 12//4 9//4
f 1//5 9//5 8//5
f 2//6 1//6 4//6
f 2//7 4//7 5//7
f 2//8 5//8 7//8
f 2//9 7//9 10//9
f 2//10 10//10 6//10
f 4//11 8//11 5//11
f 5//12 8//12 9//12
f 6//13 3//13 2//13
f 6//14 11//14 3//14
f 7//15 5//15 9//15
f 7//16 9//16 12//16
f 1//17 8//17 4//17
f 10//18 7//18 12//18
f 10//19 12//19 11//19
f 10//20 11//20 6//20
