# Blender 4.0.2
# www.blender.org
o cutlery_tray
v -0.257000 0.000000 0.211000
v -0.238695 0.056000 0.200554
v -0.257000 0.000000 -0.211000
v -0.238695 0.056000 -0.200554
v 0.257000 0.000000 0.211000
v 0.238695 0.056000 0.200554
v 0.257000 0.000000 -0.211000
v 0.238695 0.056000 -0.200554
v -0.257000 0.056000 0.211000
v -0.257000 0.056000 -0.211000
v 0.257000 0.056000 -0.211000
v 0.257000 0.056000 0.211000
v -0.238695 0.009391 0.200554
v -0.238695 0.009391 -0.200554
v 0.238695 0.009391 -0.200554
v 0.238695 0.009391 0.200554
v -0.040671 0.056000 -0.200554
v -0.040671 0.056000 0.099722
v -0.050007 0.056000 -0.200554
v -0.050007 0.056000 0.099722
v -0.050007 0.009391 0.099722
v -0.050007 0.009391 -0.200554
v -0.040671 0.009391 0.099722
v -0.040671 0.009391 -0.200554
v 0.048649 0.056000 -0.200554
v 0.048650 0.056000 0.099722
v 0.039314 0.056000 -0.200554
v 0.039314 0.056000 0.099722
v 0.039314 0.009391 0.099722
v 0.039314 0.009391 -0.200554
v 0.048650 0.009391 0.099722
v 0.048649 0.009391 -0.200554
v 0.137870 0.056000 -0.200554
v 0.137870 0.056000 0.200554
v 0.128534 0.056000 -0.200554
v 0.128534 0.056000 0.200554
v 0.128534 0.009391 0.200554
v 0.128534 0.009391 -0.200554
v 0.137870 0.009391 0.200554
v 0.137870 0.009391 -0.200554
v -0.129792 0.056000 -0.200554
v -0.129792 0.056000 0.200554
v -0.139128 0.056000 -0.200554
v -0.139128 0.056000 0.200554
v -0.139128 0.009391 0.200554
v -0.139128 0.009391 -0.200554
v -0.129792 0.009391 0.200554
v -0.129792 0.009391 -0.200554
v 0.128534 0.056000 0.109057
v -0.129792 0.056000 0.109057
v 0.128534 0.056000 0.099721
v -0.129792 0.056000 0.099722
v -0.129792 0.009391 0.099722
v 0.128534 0.009391 0.099721
v -0.129792 0.009391 0.109057
v 0.128534 0.009391 0.109057
vn -1.0000 -0.0000 -0.0000
vn -0.0000 -0.0000 -1.0000
vn 1.0000 -0.0000 -0.0000
vn -0.0000 -0.0000 1.0000
vn -0.0000 -1.0000 -0.0000
vn -0.0000 1.0000 -0.0000
vt 0.766141 0.727820
vt 0.711078 0.727820
vt 0.711078 0.312882
vt 0.766141 0.312882
vt 0.936188 0.004882
vt 0.991250 0.004882
vt 0.991251 0.510276
vt 0.936188 0.510276
vt 0.777859 0.312887
vt 0.832921 0.312887
vt 0.832921 0.727818
vt 0.777859 0.727818
vt 0.510208 0.840889
vt 0.510208 0.895945
vt 0.004876 0.895945
vt 0.004876 0.840889
vt 0.510256 0.827807
vt 0.004882 0.827807
vt 0.004882 0.412889
vt 0.510256 0.412889
vt 0.928053 0.992234
vt 0.928052 0.522886
vt 0.973876 0.522886
vt 0.973876 0.992234
vt 0.437689 0.908878
vt 0.832203 0.908878
vt 0.842476 0.926882
vt 0.427415 0.926882
vt 0.493048 0.971156
vt 0.023831 0.971156
vt 0.005839 0.960889
vt 0.511039 0.960889
vt 0.413911 0.926881
vt 0.019401 0.926881
vt 0.009127 0.908878
vt 0.424185 0.908878
vt 0.493053 0.949156
vt 0.023838 0.949156
vt 0.005846 0.938890
vt 0.511045 0.938890
vt 0.004876 0.004890
vt 0.474258 0.004890
vt 0.474258 0.399271
vt 0.004876 0.399271
vt 0.890473 0.312886
vt 0.890473 0.782311
vt 0.844642 0.782311
vt 0.844642 0.312887
vt 0.634542 0.807233
vt 0.634542 0.412886
vt 0.680365 0.412886
vt 0.680365 0.807233
vt 0.521985 0.820887
vt 0.916339 0.820887
vt 0.916339 0.866711
vt 0.521985 0.866711
vt 0.756910 0.300148
vt 0.756910 0.004882
vt 0.766090 0.004882
vt 0.766090 0.300148
vt 0.523536 0.948065
vt 0.523536 0.938885
vt 0.818788 0.938885
vt 0.818788 0.948064
vt 0.737916 0.750067
vt 0.692092 0.750067
vt 0.692092 0.740888
vt 0.737916 0.740888
vt 0.811921 0.004882
vt 0.811921 0.300148
vt 0.552063 0.700888
vt 0.552063 0.746712
vt 0.542884 0.746712
vt 0.542884 0.700888
vt 0.711079 0.300148
vt 0.711079 0.004882
vt 0.878631 0.004889
vt 0.878631 0.300125
vt 0.869452 0.300125
vt 0.869452 0.004889
vt 0.985596 0.522876
vt 0.994776 0.522876
vt 0.994776 0.818127
vt 0.985596 0.818127
vt 0.521990 0.746672
vt 0.521990 0.700884
vt 0.531161 0.700884
vt 0.531161 0.746672
vt 0.823626 0.300125
vt 0.823626 0.004889
vt 0.521981 0.804713
vt 0.521981 0.758881
vt 0.531161 0.758881
vt 0.531161 0.804713
vt 0.924458 0.004889
vt 0.924457 0.300125
vt 0.531803 0.399268
vt 0.531803 0.004889
vt 0.540982 0.004889
vt 0.540982 0.399268
vt 0.902182 0.312888
vt 0.911361 0.312888
vt 0.911361 0.707278
vt 0.902182 0.707278
vt 0.795469 0.750068
vt 0.749645 0.750068
vt 0.749645 0.740889
vt 0.795469 0.740889
vt 0.586809 0.004889
vt 0.586809 0.399268
vt 0.609614 0.746066
vt 0.563789 0.746066
vt 0.563789 0.736887
vt 0.609614 0.736887
vt 0.485977 0.399268
vt 0.485977 0.004889
vt 0.653536 0.004889
vt 0.653536 0.399268
vt 0.644356 0.399268
vt 0.644356 0.004889
vt 0.521933 0.888069
vt 0.521933 0.878889
vt 0.916322 0.878889
vt 0.916322 0.888069
vt 0.579522 0.724714
vt 0.579522 0.678882
vt 0.588702 0.678882
vt 0.588702 0.724714
vt 0.598530 0.399268
vt 0.598530 0.004889
vt 0.600424 0.724714
vt 0.600424 0.678882
vt 0.609604 0.678882
vt 0.609604 0.724714
vt 0.699362 0.004889
vt 0.699362 0.399268
vt 0.567818 0.666891
vt 0.567819 0.412886
vt 0.576999 0.412886
vt 0.576998 0.666891
vt 0.523525 0.970065
vt 0.523525 0.960885
vt 0.777528 0.960885
vt 0.777528 0.970065
vt 0.902180 0.766713
vt 0.902180 0.720881
vt 0.911361 0.720881
vt 0.911361 0.766714
vt 0.622828 0.412886
vt 0.622827 0.666891
vt 0.521977 0.678888
vt 0.567810 0.678888
vt 0.567810 0.688068
vt 0.521977 0.688068
vt 0.521989 0.666891
vt 0.521990 0.412886
s 1
f 1/1/1 9/2/1 10/3/1 3/4/1
f 3/5/2 10/6/2 11/7/2 7/8/2
f 7/9/3 11/10/3 12/11/3 5/12/3
f 5/13/4 12/14/4 9/15/4 1/16/4
f 3/17/5 7/18/5 5/19/5 1/20/5
f 2/21/2 6/22/2 16/23/2 13/24/2
f 2/25/6 4/26/6 10/27/6 9/28/6
f 4/29/6 8/30/6 11/31/6 10/32/6
f 8/33/6 6/34/6 12/35/6 11/36/6
f 6/37/6 2/38/6 9/39/6 12/40/6
f 15/41/6 14/42/6 13/43/6 16/44/6
f 8/45/4 4/46/4 14/47/4 15/48/4
f 6/49/1 8/50/1 15/51/1 16/52/1
f 4/53/3 2/54/3 13/55/3 14/56/3
f 18/57/6 17/58/6 19/59/6 20/60/6
f 23/61/5 21/62/5 22/63/5 24/64/5
f 17/65/2 24/66/2 22/67/2 19/68/2
f 19/59/1 22/69/1 21/70/1 20/60/1
f 20/71/4 21/72/4 23/73/4 18/74/4
f 18/57/3 23/75/3 24/76/3 17/58/3
f 26/77/6 25/78/6 27/79/6 28/80/6
f 31/81/5 29/82/5 30/83/5 32/84/5
f 25/85/2 32/86/2 30/87/2 27/88/2
f 27/79/1 30/89/1 29/90/1 28/80/1
f 28/91/4 29/92/4 31/93/4 26/94/4
f 26/77/3 31/95/3 32/96/3 25/78/3
f 34/97/6 33/98/6 35/99/6 36/100/6
f 39/101/5 37/102/5 38/103/5 40/104/5
f 33/105/2 40/106/2 38/107/2 35/108/2
f 35/99/1 38/109/1 37/110/1 36/100/1
f 36/111/4 37/112/4 39/113/4 34/114/4
f 34/97/3 39/115/3 40/116/3 33/98/3
f 42/117/6 41/118/6 43/119/6 44/120/6
f 47/121/5 45/122/5 46/123/5 48/124/5
f 41/125/2 48/126/2 46/127/2 43/128/2
f 43/119/1 46/129/1 45/130/1 44/120/1
f 44/131/4 45/132/4 47/133/4 42/134/4
f 42/117/3 47/135/3 48/136/3 41/118/3
f 50/137/6 49/138/6 51/139/6 52/140/6
f 55/141/5 53/142/5 54/143/5 56/144/5
f 49/145/3 56/146/3 54/147/3 51/148/3
f 51/139/2 54/149/2 53/150/2 52/140/2
f 52/151/1 53/152/1 55/153/1 50/154/1
f 50/137/4 55/155/4 56/156/4 49/138/4
