# Blender 4.1.1
# www.blender.org
o table_dishwasher_collision.005
v -0.378202 0.890000 0.213596
v -0.341798 0.890000 0.213596
v -0.341798 0.000000 0.250000
v -0.378202 -0.000000 0.213596
v -0.341798 -0.000000 0.213596
v -0.341798 0.890000 0.250000
v -0.378202 0.890000 0.250000
v -0.378202 0.000000 0.250000
vn -0.5774 0.5774 -0.5774
vn 0.5774 0.5774 -0.5774
vn 0.5774 -0.5774 -0.5774
vn -0.5774 -0.5774 -0.5774
vn 0.5774 0.5774 0.5774
vn 0.5774 -0.5774 0.5774
vn -0.5774 0.5774 0.5774
vn -0.5774 -0.5774 0.5774
vt 0.989101 0.820915
vt 0.989101 0.838927
vt 0.606401 0.838927
vt 0.606401 0.820915
vt 0.989101 0.766879
vt 0.989101 0.784891
vt 0.606401 0.784891
vt 0.606401 0.766879
vt 0.989101 0.802903
vt 0.606401 0.802903
s 1
f 1/1/1 2/2/2 5/3/3 4/4/4
f 2/5/2 6/6/5 3/7/6 5/8/3
f 6/6/5 7/9/7 8/10/8 3/7/6
f 7/9/7 1/1/1 4/4/4 8/10/8
f 1/1/1 7/9/7 6/6/5 2/5/2
f 3/7/6 8/10/8 4/4/4 5/3/3
