# Blender 4.1.1
# www.blender.org
o table_dishwasher_collision.001
v -0.400000 0.890000 -0.300000
v -0.400000 0.890000 0.300000
v -0.400000 0.950000 0.300000
v 0.400000 0.890000 -0.300000
v 0.400000 0.890000 0.300000
v 0.400000 0.950000 0.300000
v -0.400000 0.950000 -0.300000
v 0.400000 0.950000 -0.300000
vn -0.5774 -0.5774 0.5774
vn 0.5774 -0.5774 0.5774
vn 0.5774 0.5774 0.5774
vn -0.5774 0.5774 0.5774
vn 0.5774 0.5774 -0.5774
vn -0.5774 0.5774 -0.5774
vn -0.5774 -0.5774 -0.5774
vn 0.5774 -0.5774 -0.5774
vt 0.499325 0.321524
vt 0.103892 0.321524
vt 0.103892 0.291838
vt 0.499325 0.291838
vt 0.887600 0.103884
vt 0.000000 0.000000
vt 0.499327 0.905738
vt 0.103892 0.905738
vt 0.103892 0.608883
vt 0.499327 0.608883
vt 0.923887 0.499304
vt 0.887600 0.499304
vt 0.923887 0.103884
s 1
f 2/1/1 5/2/2 6/3/3 3/4/4
f 6/3/3 8/5/5 7/6/6 3/4/4
f 1/7/7 4/8/8 5/9/2 2/10/1
f 1/11/7 7/12/6 8/5/5 4/13/8
f 4/8/8 8/5/5 6/3/3 5/2/2
f 2/1/1 3/4/4 7/6/6 1/11/7
