# Blender 4.1.1
# www.blender.org
o pan_collision_handle.002
v -0.110512 0.031969 0.013946
v -0.110033 0.033821 0.012372
v -0.110110 0.027362 0.013041
v -0.156531 0.028212 0.000194
v -0.156410 0.030957 -0.009188
v -0.109457 0.020729 0.004664
v -0.179676 0.047392 0.009839
v -0.178432 0.048818 -0.000136
v -0.179505 0.047372 -0.010096
v -0.110512 0.031969 -0.013864
v -0.110033 0.033821 -0.012291
v -0.110110 0.027362 -0.012960
v -0.109457 0.020729 -0.004582
v -0.110005 0.020504 0.000041
v -0.203524 0.051507 -0.009573
v -0.204528 0.047623 0.011496
v -0.204324 0.047606 -0.011929
v -0.203687 0.051521 0.009133
v -0.204802 0.044523 0.009348
v -0.204675 0.042741 -0.000247
v -0.204635 0.044509 -0.009787
v -0.202578 0.053194 -0.000236
v -0.134358 0.032441 -0.015508
v -0.134358 0.032441 0.015436
v -0.134735 0.039150 0.011834
v -0.133003 0.024385 0.009068
v -0.132768 0.022316 0.000197
v -0.133003 0.024385 -0.008188
v -0.134583 0.039143 -0.011489
v -0.134355 0.039786 0.000175
v -0.134740 0.036810 -0.014908
v -0.134939 0.036803 0.014997
v -0.133746 0.028397 -0.013437
v -0.133865 0.028385 0.013789
vn -0.2585 -0.9500 -0.1754
vn -0.2351 -0.8646 -0.4440
vn -0.1403 -0.8953 -0.4227
vn -0.1710 -0.9852 -0.0103
vn -0.0886 -0.6236 -0.7767
vn -0.7371 -0.5134 -0.4394
vn -0.7620 -0.6472 -0.0233
vn -0.1812 -0.9167 -0.3561
vn -0.1729 -0.9179 0.3572
vn 0.1045 -0.9822 0.1561
vn 0.4899 -0.1598 -0.8570
vn 0.0952 0.5426 -0.8346
vn 0.1448 0.7846 -0.6028
vn 0.6866 0.6528 -0.3201
vn 0.7612 -0.0584 -0.6459
vn -0.6172 0.0110 -0.7867
vn -0.0197 -0.1266 -0.9918
vn 0.6082 0.6083 0.5100
vn 0.4905 -0.1387 0.8604
vn 0.2291 0.9732 -0.0187
vn 0.4936 0.8631 0.1066
vn -0.1273 -0.8876 0.4427
vn -0.5426 0.6823 -0.4900
vn -0.6163 0.0476 0.7861
vn -0.7748 -0.4549 0.4390
vn -0.0891 -0.5946 0.7991
vn -0.0211 -0.1163 0.9930
vn 0.7841 0.0033 0.6207
vn 0.2031 0.9790 0.0169
vn 0.1785 0.9112 0.3712
vn -0.2578 -0.9231 0.2854
vn 0.0865 0.5206 0.8494
vn -0.5387 0.6936 0.4782
vn 0.1297 0.8227 -0.5535
vn 0.1725 0.9703 -0.1694
vn 0.1783 0.9840 0.0009
vn 0.1802 0.9836 -0.0007
vn 0.1994 0.9779 -0.0633
vn 0.9990 0.0440 -0.0000
vn 0.9694 0.2259 0.0965
vn 0.1703 0.9703 0.1716
vn 0.1246 0.8199 0.5588
vn -0.4494 0.8933 -0.0045
vt 0.605707 0.961420
vt 0.616936 0.960845
vt 0.613867 0.986370
vt 0.605798 0.986403
vt 0.620403 0.985773
vt 0.000000 0.000000
vt 0.605739 0.900317
vt 0.308101 0.726753
vt 0.326110 0.726753
vt 0.317105 0.727399
vt 0.288575 0.734554
vt 0.384162 0.672263
vt 0.384786 0.676345
vt 0.282558 0.975614
vt 0.278016 0.973959
vt 0.622539 0.899584
vt 0.625486 0.985411
vt 0.617857 0.899910
vt 0.345636 0.734554
vt 0.384359 0.688391
vt 0.597349 0.986253
vt 0.464949 0.672073
vt 0.464572 0.677415
vt 0.381946 0.667723
vt 0.588869 0.899633
vt 0.593509 0.899942
vt 0.591435 0.985557
vt 0.586602 0.985425
vt 0.351911 0.740735
vt 0.385205 0.700283
vt 0.384656 0.704125
vt 0.335842 0.973953
vt 0.464920 0.704718
vt 0.382278 0.708485
vt 0.464568 0.699363
vt 0.436434 0.676534
vt 0.463669 0.688364
vt 0.435408 0.688227
vt 0.436402 0.699972
vt 0.282299 0.740735
s 1
f 4/1/1 5/2/2 28/3/3 27/4/4
f 28/3/3 5/2/2 33/5/5
f 21/6/6 5/2/2 4/1/1 20/7/7
f 13/8/8 6/9/9 14/10/10
f 33/5/5 12/11/11 13/8/8 28/3/3
f 31/12/12 29/13/13 11/14/14 10/15/15
f 12/11/11 11/6/14 13/8/8
f 17/16/16 23/17/17 33/5/5 21/18/6
f 2/6/18 3/19/19 6/9/9
s 0
f 30/20/20 2/6/20 11/14/21 29/13/20
s 1
f 26/21/22 4/1/1 27/4/4
f 10/15/15 11/14/14 12/11/11
f 17/22/16 15/23/23 31/12/12 23/24/17
f 26/21/22 27/6/4 14/10/10 6/9/9
f 16/25/24 19/26/25 34/27/26 24/28/27
f 5/2/2 21/6/6 33/5/5
f 24/28/27 34/27/26 3/19/19 1/29/28
f 30/20/29 25/30/30 2/6/18
f 27/4/4 28/3/3 13/8/8 14/10/10
f 1/29/28 3/19/19 2/6/18
f 34/27/26 26/6/22 6/9/9 3/19/19
f 34/27/26 19/6/25 26/21/22
s 0
f 19/6/31 4/1/31 26/21/31
s 1
f 19/26/25 20/7/7 4/1/1
f 32/31/32 1/32/28 2/6/18 25/30/30
f 23/24/17 31/12/12 10/15/15
f 16/33/24 24/34/27 32/31/32 18/35/33
f 15/23/23 9/36/34 31/12/12
f 9/36/34 29/13/13 31/12/12
s 0
f 9/36/35 22/6/35 29/13/35
s 1
f 22/37/36 8/38/37 29/13/38
f 8/38/37 30/20/29 29/13/38
f 8/38/37 25/30/30 30/20/29
f 20/7/7 19/26/25 21/18/6
f 19/26/25 17/16/16 21/18/6
s 0
f 6/6/39 13/8/40 11/6/39 2/6/39
s 1
f 8/38/37 22/37/36 25/30/30
s 0
f 22/37/41 7/6/41 25/30/41
s 1
f 7/6/42 32/31/32 25/30/30
f 24/6/27 1/29/28 32/31/32
f 7/39/42 18/35/33 32/31/32
f 16/25/24 15/23/23 17/16/16 19/26/25
f 23/17/17 10/40/15 12/11/11 33/5/5
f 16/33/24 18/35/33 15/23/23
f 18/35/33 22/37/43 15/23/23
f 22/6/43 9/36/34 15/23/23
f 18/35/33 7/39/42 22/37/43
