# Blender 4.1.1
# www.blender.org
o cereal
v -0.082803 0.004800 0.030972
v -0.082803 0.001520 0.029952
v 0.079181 0.001520 0.029952
v 0.079181 0.004800 0.030972
v -0.082803 0.000161 0.027489
v 0.079181 0.000161 0.027489
v -0.086177 0.004800 0.027489
v -0.084908 0.004800 0.029662
v -0.084707 0.232986 0.030280
v -0.086308 0.232847 0.028853
v -0.082789 0.233265 0.030972
v -0.082789 0.237904 0.001947
v -0.084038 0.237430 0.001947
v -0.084153 0.237459 0.014305
v -0.082789 0.237904 0.014414
v -0.082789 0.237904 0.027489
v -0.082789 0.236936 0.029348
v 0.079167 0.236936 0.029348
v 0.079167 0.237904 0.027489
v -0.082789 0.235337 0.030420
v 0.079167 0.233265 0.030972
v 0.079167 0.235337 0.030420
v -0.085189 0.001520 0.027489
v -0.084292 0.001520 0.029025
v -0.084669 0.235147 0.029738
v -0.085951 0.235935 0.027852
v -0.084532 0.236802 0.028661
v -0.084272 0.237490 0.027265
v -0.085584 0.236544 0.027041
v -0.085189 0.001520 0.001947
v -0.082803 0.000161 0.001947
v -0.086177 0.004800 0.001947
v -0.086163 0.233265 0.001947
v -0.086342 0.234543 0.028500
v -0.087251 0.234032 0.027041
v -0.086841 0.233742 0.027489
v -0.088508 0.216890 0.021879
v -0.088078 0.216554 0.022277
v -0.088876 0.211941 0.018882
v -0.088453 0.211387 0.019139
v -0.089070 0.210077 0.001866
v -0.088654 0.209441 0.001832
v -0.088609 0.209441 0.014357
v -0.089027 0.210080 0.014309
v -0.087146 0.209441 0.001731
v -0.087102 0.209441 0.014278
v -0.086809 0.216497 0.022241
v -0.087251 0.234032 0.014196
v -0.085375 0.236544 0.014196
v -0.085175 0.236545 0.001947
v -0.087251 0.234032 0.001947
v -0.087013 0.211367 0.019064
v -0.088529 0.217214 0.001890
v -0.088498 0.217216 0.014276
v 0.082555 0.004800 0.027489
v 0.082686 0.232847 0.028853
v 0.081085 0.232986 0.030280
v 0.081286 0.004800 0.029662
v 0.079167 0.237904 0.001947
v 0.079167 0.237904 0.014414
v 0.080530 0.237459 0.014305
v 0.080416 0.237430 0.001947
v 0.081567 0.001520 0.027489
v 0.080669 0.001520 0.029025
v 0.081047 0.235147 0.029738
v 0.082329 0.235935 0.027852
v 0.081962 0.236544 0.027041
v 0.080650 0.237490 0.027265
v 0.080910 0.236802 0.028661
v 0.079181 0.000161 0.001947
v 0.081567 0.001520 0.001947
v 0.082555 0.004800 0.001947
v 0.082541 0.233265 0.001947
v 0.082720 0.234543 0.028500
v 0.083218 0.233742 0.027489
v 0.083629 0.234032 0.027041
v 0.084456 0.216554 0.022277
v 0.084886 0.216890 0.021879
v 0.084831 0.211387 0.019139
v 0.085254 0.211941 0.018882
v 0.085448 0.210077 0.001866
v 0.085405 0.210080 0.014309
v 0.084987 0.209441 0.014357
v 0.085032 0.209441 0.001832
v 0.083480 0.209441 0.014278
v 0.083524 0.209441 0.001731
v 0.083187 0.216497 0.022241
v 0.083629 0.234032 0.014196
v 0.083629 0.234032 0.001947
v 0.081553 0.236545 0.001947
v 0.081753 0.236544 0.014196
v 0.083390 0.211367 0.019064
v 0.084906 0.217214 0.001890
v 0.084876 0.217216 0.014276
v -0.086177 0.004800 -0.023595
v -0.086308 0.232847 -0.024959
v -0.084707 0.232986 -0.026386
v -0.084908 0.004800 -0.025767
v -0.082789 0.233265 -0.027078
v -0.082803 0.004800 -0.027078
v -0.082789 0.237904 -0.010520
v -0.084153 0.237459 -0.010411
v 0.079167 0.237904 -0.010520
v 0.079167 0.233265 -0.027078
v 0.079181 0.004800 -0.027078
v -0.085189 0.001520 -0.023595
v -0.084292 0.001520 -0.025131
v -0.082803 0.001520 -0.026058
v -0.082803 0.000161 -0.023595
v -0.084669 0.235147 -0.025844
v -0.082789 0.235337 -0.026526
v -0.085951 0.235935 -0.023958
v -0.085584 0.236544 -0.023147
v -0.084272 0.237490 -0.023371
v -0.084532 0.236802 -0.024766
v -0.082803 0.000161 -0.023595
v 0.079181 0.000161 -0.023595
v -0.085189 0.001520 -0.023595
v -0.086177 0.004800 -0.023595
v -0.086308 0.232847 -0.024959
v -0.086342 0.234543 -0.024606
v -0.082789 0.236936 -0.025454
v -0.086841 0.233742 -0.023595
v -0.087251 0.234032 -0.023147
v -0.088078 0.216554 -0.018382
v -0.088508 0.216890 -0.017984
v -0.088453 0.211387 -0.015245
v -0.088876 0.211941 -0.014988
v -0.089070 0.210077 0.002028
v -0.089027 0.210080 -0.010415
v -0.088609 0.209441 -0.010463
v -0.088654 0.209441 0.002062
v -0.087102 0.209441 -0.010383
v -0.087146 0.209441 0.002163
v -0.086809 0.216497 -0.018346
v -0.087251 0.234032 -0.010301
v -0.085375 0.236544 -0.010301
v -0.087013 0.211367 -0.015170
v -0.088529 0.217214 0.002004
v -0.088498 0.217216 -0.010381
v -0.082789 0.237904 -0.023595
v -0.084272 0.237490 -0.023371
v 0.079167 0.237904 -0.023595
v 0.079181 0.001520 -0.026058
v 0.079181 0.000161 -0.023595
v 0.082555 0.004800 -0.023595
v 0.081286 0.004800 -0.025767
v 0.081085 0.232986 -0.026386
v 0.082686 0.232847 -0.024959
v 0.080530 0.237459 -0.010411
v 0.079167 0.236936 -0.025454
v 0.079167 0.235337 -0.026526
v 0.081567 0.001520 -0.023595
v 0.080669 0.001520 -0.025131
v 0.081047 0.235147 -0.025844
v 0.082329 0.235935 -0.023958
v 0.080910 0.236802 -0.024766
v 0.080650 0.237490 -0.023371
v 0.081962 0.236544 -0.023147
v 0.081567 0.001520 -0.023595
v 0.082555 0.004800 -0.023595
v 0.082686 0.232847 -0.024959
v 0.082720 0.234543 -0.024606
v 0.082329 0.235935 -0.023958
v 0.081962 0.236544 -0.023147
v 0.083629 0.234032 -0.023147
v 0.083218 0.233742 -0.023595
v 0.084886 0.216890 -0.017984
v 0.084456 0.216554 -0.018382
v 0.085254 0.211941 -0.014988
v 0.084831 0.211387 -0.015245
v 0.085448 0.210077 0.002028
v 0.085032 0.209441 0.002062
v 0.084987 0.209441 -0.010463
v 0.085405 0.210080 -0.010415
v 0.083524 0.209441 0.002163
v 0.083480 0.209441 -0.010383
v 0.082686 0.232847 -0.024959
v 0.083187 0.216497 -0.018346
v 0.083629 0.234032 -0.010301
v 0.081753 0.236544 -0.010301
v 0.082720 0.234543 -0.024606
v 0.083390 0.211367 -0.015170
v 0.084906 0.217214 0.002004
v 0.084876 0.217216 -0.010381
v 0.080650 0.237490 -0.023371
vn 0.0061 -0.0044 1.0000
vn -0.0061 -0.0044 1.0000
vn -0.0056 -0.5995 0.8004
vn 0.0056 -0.5995 0.8004
vn -0.0079 -0.9988 0.0481
vn 0.0079 -0.9988 0.0482
vn -0.9986 -0.0010 0.0529
vn -0.9988 -0.0046 0.0479
vn -0.6320 -0.0053 0.7749
vn -0.6214 -0.0001 0.7835
vn -0.0057 0.0024 1.0000
vn -0.0028 1.0000 -0.0000
vn -0.4783 0.8782 -0.0000
vn -0.4643 0.8857 -0.0057
vn 0.0025 0.9979 0.0647
vn -0.0024 0.9979 0.0647
vn -0.0033 0.7519 0.6593
vn 0.0034 0.7519 0.6592
vn 0.0043 0.4044 0.9146
vn -0.0043 0.4044 0.9146
vn 0.0057 0.0024 1.0000
vn -0.6289 -0.4829 0.6093
vn -0.8121 -0.5826 0.0329
vn -0.4976 0.3486 0.7943
vn -0.7437 0.6684 0.0107
vn -0.7305 0.5065 0.4581
vn -0.4638 0.6703 0.5793
vn -0.4355 0.8994 0.0392
vn -0.8088 -0.5881 -0.0000
vn -0.0083 -1.0000 -0.0000
vn -1.0000 -0.0044 -0.0000
vn -1.0000 0.0001 -0.0000
vn -0.7623 0.2761 0.5854
vn -0.7294 -0.1382 0.6700
vn -0.9831 0.1775 0.0452
vn -0.5901 -0.2796 0.7574
vn -0.9974 0.0575 0.0433
vn -0.2613 -0.7189 0.6442
vn -0.9983 0.0110 0.0580
vn -0.9999 0.0093 0.0103
vn -0.9999 0.0130 0.0030
vn -0.2979 -0.9546 0.0011
vn -0.3027 -0.9467 0.1098
vn 0.0038 -0.9944 0.1054
vn -0.0000 -1.0000 -0.0000
vn -0.4937 -0.3244 0.8069
vn -0.9864 0.1646 -0.0007
vn -0.9859 0.1672 -0.0003
vn -0.7419 0.6705 -0.0073
vn -0.7333 0.6799 -0.0000
vn 0.0177 -0.7577 0.6524
vn -0.9972 0.0748 0.0017
vn -0.9972 0.0742 0.0015
vn 0.6321 -0.0052 0.7749
vn 0.9988 -0.0046 0.0480
vn 0.9986 -0.0010 0.0528
vn 0.6214 -0.0001 0.7835
vn 0.4783 0.8782 -0.0000
vn 0.0029 1.0000 -0.0000
vn 0.0028 1.0000 -0.0000
vn 0.4643 0.8857 -0.0057
vn 0.8121 -0.5826 0.0329
vn 0.6289 -0.4829 0.6093
vn 0.4976 0.3486 0.7943
vn 0.4637 0.6703 0.5793
vn 0.7305 0.5066 0.4581
vn 0.7438 0.6684 0.0107
vn 0.4354 0.8994 0.0391
vn 0.0083 -1.0000 -0.0000
vn 0.8088 -0.5881 -0.0000
vn 1.0000 -0.0044 -0.0000
vn 1.0000 0.0001 -0.0000
vn 0.7623 0.2761 0.5854
vn 0.7294 -0.1382 0.6700
vn 0.9831 0.1775 0.0452
vn 0.5901 -0.2796 0.7574
vn 0.9974 0.0575 0.0432
vn 0.2613 -0.7189 0.6442
vn 0.9983 0.0110 0.0580
vn 0.2980 -0.9546 0.0011
vn 0.9999 0.0130 0.0042
vn 0.9999 0.0093 0.0103
vn 0.3027 -0.9468 0.1097
vn -0.0038 -0.9944 0.1055
vn 0.4937 -0.3244 0.8069
vn 0.7419 0.6705 -0.0073
vn 0.9859 0.1672 -0.0003
vn 0.9864 0.1646 0.0007
vn 0.7333 0.6799 -0.0000
vn -0.0177 -0.7577 0.6524
vn 0.9972 0.0742 0.0016
vn 0.9972 0.0748 0.0018
vn -0.6321 -0.0053 -0.7749
vn -0.9988 -0.0045 -0.0480
vn -0.9986 -0.0010 -0.0528
vn -0.6214 -0.0001 -0.7835
vn -0.0061 -0.0044 -1.0000
vn -0.0057 0.0024 -1.0000
vn -0.4643 0.8857 0.0057
vn 0.0028 1.0000 0.0012
vn 0.0061 -0.0044 -1.0000
vn 0.0058 0.0024 -1.0000
vn -0.0079 -0.9988 -0.0481
vn -0.8121 -0.5826 -0.0328
vn -0.6289 -0.4829 -0.6093
vn -0.0056 -0.5995 -0.8004
vn -0.4976 0.3486 -0.7943
vn -0.0043 0.4044 -0.9146
vn -0.4637 0.6703 -0.5793
vn -0.7305 0.5066 -0.4581
vn -0.7437 0.6684 -0.0107
vn -0.4354 0.8994 -0.0392
vn 0.0079 -0.9988 -0.0481
vn -0.9988 -0.0046 -0.0479
vn -0.7623 0.2761 -0.5854
vn -0.0033 0.7519 -0.6592
vn -0.7294 -0.1381 -0.6700
vn -0.9831 0.1775 -0.0452
vn -0.5901 -0.2796 -0.7574
vn -0.9974 0.0575 -0.0432
vn -0.2613 -0.7188 -0.6442
vn -0.9983 0.0110 -0.0580
vn -0.2979 -0.9546 -0.0011
vn -0.9999 0.0130 -0.0042
vn -0.9999 0.0093 -0.0103
vn -0.3027 -0.9467 -0.1098
vn 0.0038 -0.9944 -0.1055
vn -0.4936 -0.3244 -0.8069
vn -0.7419 0.6705 0.0073
vn -0.9859 0.1672 0.0003
vn 0.0177 -0.7577 -0.6524
vn -0.9972 0.0742 -0.0016
vn -0.9972 0.0748 -0.0017
vn -0.0024 0.9979 -0.0647
vn -0.4354 0.8994 -0.0391
vn 0.0025 0.9979 -0.0648
vn 0.0056 -0.5995 -0.8004
vn 0.0078 -0.9988 -0.0481
vn 0.9986 -0.0010 -0.0528
vn 0.9988 -0.0045 -0.0479
vn 0.6320 -0.0052 -0.7749
vn 0.6214 -0.0001 -0.7835
vn 0.4643 0.8857 0.0057
vn 0.0034 0.7519 -0.6593
vn 0.0043 0.4044 -0.9146
vn 0.6289 -0.4829 -0.6093
vn 0.8121 -0.5826 -0.0329
vn 0.4976 0.3486 -0.7943
vn 0.7437 0.6684 -0.0107
vn 0.7305 0.5065 -0.4581
vn 0.4637 0.6703 -0.5793
vn 0.4354 0.8994 -0.0392
vn 0.8121 -0.5826 -0.0328
vn 0.9988 -0.0046 -0.0479
vn 0.7622 0.2761 -0.5855
vn 0.7294 -0.1382 -0.6700
vn 0.7438 0.6684 -0.0107
vn 0.9831 0.1775 -0.0452
vn 0.5901 -0.2796 -0.7574
vn 0.9974 0.0575 -0.0432
vn 0.2613 -0.7189 -0.6442
vn 0.9983 0.0110 -0.0580
vn 0.9999 0.0093 -0.0103
vn 0.9999 0.0130 -0.0030
vn 0.2979 -0.9546 -0.0011
vn 0.3027 -0.9468 -0.1098
vn -0.0038 -0.9944 -0.1055
vn 0.4936 -0.3244 -0.8069
vn 0.9859 0.1672 0.0003
vn 0.7419 0.6705 0.0073
vn 0.7623 0.2761 -0.5854
vn -0.0177 -0.7577 -0.6524
vn 0.9972 0.0748 -0.0017
vn 0.9972 0.0742 -0.0016
vn 0.4354 0.8994 -0.0391
vt 0.408096 0.080231
vt 0.109157 0.080095
vt 0.108191 0.076934
vt 0.409054 0.077060
vt 0.107255 0.074351
vt 0.409986 0.074472
vt 0.105550 0.455810
vt 0.104658 0.077446
vt 0.106925 0.078810
vt 0.109509 0.456099
vt 0.113252 0.456602
vt 0.113256 0.490078
vt 0.113062 0.512713
vt 0.110260 0.512656
vt 0.110594 0.489811
vt 0.404147 0.466554
vt 0.113561 0.467018
vt 0.113490 0.463468
vt 0.404200 0.463010
vt 0.404280 0.459769
vt 0.113393 0.460221
vt 0.404400 0.456159
vt 0.107126 0.076376
vt 0.106013 0.075613
vt 0.110682 0.460274
vt 0.109655 0.465166
vt 0.109051 0.463200
vt 0.111351 0.463634
vt 0.111684 0.466196
vt 0.087100 0.053885
vt 0.092493 0.049043
vt 0.080475 0.060075
vt 0.057494 0.452910
vt 0.107597 0.460234
vt 0.105710 0.460488
vt 0.105753 0.462169
vt 0.067797 0.467257
vt 0.068490 0.468547
vt 0.056925 0.473521
vt 0.058152 0.474301
vt 0.053683 0.482888
vt 0.050817 0.508116
vt 0.049245 0.508002
vt 0.052199 0.482576
vt 0.049194 0.481971
vt 0.046114 0.507835
vt 0.067057 0.464575
vt 0.100249 0.512474
vt 0.101825 0.488517
vt 0.107736 0.489521
vt 0.107224 0.512601
vt 0.054843 0.471458
vt 0.065543 0.509606
vt 0.067897 0.484413
vt 0.410324 0.078939
vt 0.412587 0.077570
vt 0.412076 0.455345
vt 0.408130 0.455639
vt 0.407609 0.512136
vt 0.404876 0.512146
vt 0.404552 0.489551
vt 0.407187 0.489261
vt 0.411215 0.075729
vt 0.410115 0.076479
vt 0.406996 0.459778
vt 0.406345 0.463146
vt 0.408666 0.462694
vt 0.408045 0.464677
vt 0.406023 0.465723
vt 0.424739 0.049148
vt 0.430127 0.053987
vt 0.436743 0.060171
vt 0.460099 0.452392
vt 0.410098 0.459699
vt 0.411927 0.459978
vt 0.411891 0.461647
vt 0.449605 0.465644
vt 0.448959 0.466955
vt 0.460801 0.471336
vt 0.459591 0.472200
vt 0.469596 0.506507
vt 0.467995 0.506668
vt 0.464466 0.480837
vt 0.465981 0.480458
vt 0.469044 0.479746
vt 0.472802 0.506253
vt 0.450252 0.462948
vt 0.410020 0.488958
vt 0.415882 0.487918
vt 0.417309 0.512251
vt 0.410561 0.512166
vt 0.462820 0.469139
vt 0.450010 0.482958
vt 0.452906 0.508686
vt 0.109770 0.979094
vt 0.105243 0.979140
vt 0.106126 0.569539
vt 0.110072 0.569443
vt 0.114207 0.979062
vt 0.113801 0.569084
vt 0.113431 0.535420
vt 0.110715 0.535675
vt 0.404725 0.534732
vt 0.404664 0.978726
vt 0.404476 0.569227
vt 0.114149 0.990234
vt 0.107825 0.986997
vt 0.111224 0.985629
vt 0.114186 0.985186
vt 0.111127 0.565351
vt 0.113892 0.565439
vt 0.111646 0.562064
vt 0.109528 0.562351
vt 0.110137 0.560426
vt 0.111614 0.559719
vt 0.440201 0.009864
vt 0.077032 0.009766
vt 0.061592 0.023224
vt 0.045971 0.043200
vt 0.009766 0.448190
vt 0.108039 0.565274
vt 0.113947 0.562166
vt 0.106189 0.564978
vt 0.106201 0.563326
vt 0.067051 0.559413
vt 0.067717 0.558053
vt 0.055356 0.553327
vt 0.056629 0.552455
vt 0.046688 0.516998
vt 0.048359 0.516863
vt 0.051659 0.543465
vt 0.050088 0.543827
vt 0.046911 0.544517
vt 0.043369 0.517194
vt 0.066392 0.562207
vt 0.107795 0.535957
vt 0.101776 0.536945
vt 0.053227 0.555583
vt 0.066667 0.541590
vt 0.063971 0.515259
vt 0.113979 0.558584
vt 0.112228 0.559353
vt 0.404534 0.558200
vt 0.404708 0.984847
vt 0.404761 0.989892
vt 0.411979 0.569956
vt 0.413616 0.978781
vt 0.409098 0.978749
vt 0.408127 0.569718
vt 0.407339 0.534681
vt 0.404509 0.561956
vt 0.404493 0.565402
vt 0.407690 0.985250
vt 0.411111 0.986594
vt 0.408066 0.565531
vt 0.411619 0.559935
vt 0.411803 0.562557
vt 0.407954 0.561736
vt 0.408106 0.558485
vt 0.455616 0.023313
vt 0.471201 0.043269
vt 0.507773 0.447619
vt 0.412362 0.566103
vt 0.415186 0.558882
vt 0.410922 0.559104
vt 0.409764 0.557567
vt 0.414789 0.557777
vt 0.446265 0.552356
vt 0.445707 0.551300
vt 0.455739 0.547772
vt 0.454722 0.547018
vt 0.459099 0.539634
vt 0.462342 0.516757
vt 0.463778 0.516912
vt 0.460427 0.539982
vt 0.463116 0.540642
vt 0.466635 0.517156
vt 0.446848 0.554535
vt 0.416376 0.561671
vt 0.415864 0.534954
vt 0.410137 0.534637
vt 0.413370 0.560590
vt 0.457415 0.549663
vt 0.448892 0.514999
vt 0.446373 0.537784
vt 0.407080 0.557858
s 1
f 4/1/1 1/2/2 2/3/3
f 2/3/3 3/4/4 4/1/1
f 3/4/4 2/3/3 5/5/5
f 5/5/5 6/6/6 3/4/4
f 10/7/7 7/8/8 8/9/9
f 8/9/9 9/10/10 10/7/7
f 9/10/10 8/9/9 1/2/2
f 1/2/2 11/11/11 9/10/10
f 15/12/12 12/13/12 13/14/13
f 13/14/13 14/15/14 15/12/12
f 19/16/15 16/17/16 17/18/17
f 17/18/17 18/19/18 19/16/15
f 22/20/19 20/21/20 11/11/11
f 11/11/11 21/22/21 22/20/19
f 24/23/22 23/24/23 5/5/5
f 5/5/5 2/3/3 24/23/22
f 24/23/22 2/3/3 1/2/2
f 1/2/2 8/9/9 24/23/22
f 24/23/22 8/9/9 7/8/8
f 7/8/8 23/24/23 24/23/22
f 25/25/24 9/10/10 11/11/11
f 11/11/11 20/21/20 25/25/24
f 29/26/25 26/27/26 27/28/27
f 27/28/27 28/29/28 29/26/25
f 23/24/23 30/30/29 31/31/30
f 31/31/30 5/5/5 23/24/23
f 7/8/8 32/32/31 30/30/29
f 30/30/29 23/24/23 7/8/8
f 10/7/7 33/33/32 32/32/31
f 32/32/31 7/8/8 10/7/7
f 25/25/24 27/28/27 26/27/26
f 26/27/26 34/34/33 25/25/24
f 18/19/18 17/18/17 20/21/20
f 20/21/20 22/20/19 18/19/18
f 27/28/27 25/25/24 20/21/20
f 20/21/20 17/18/17 27/28/27
f 9/10/10 25/25/24 34/34/33
f 34/34/33 10/7/7 9/10/10
f 36/35/34 26/27/26 29/26/25
f 29/26/25 35/36/35 36/35/34
f 38/37/36 36/35/34 35/36/35
f 35/36/35 37/38/37 38/37/36
f 40/39/38 38/37/36 37/38/37
f 37/38/37 39/40/39 40/39/38
f 44/41/40 41/42/41 42/43/42
f 42/43/42 43/44/43 44/41/40
f 39/40/39 44/41/40 43/44/43
f 43/44/43 40/39/38 39/40/39
f 46/45/44 43/44/43 42/43/42
f 42/43/42 45/46/45 46/45/44
f 47/47/46 10/7/7 36/35/34
f 36/35/34 38/37/36 47/47/46
f 51/48/47 48/49/48 49/50/49
f 49/50/49 50/51/50 51/48/47
f 34/34/33 26/27/26 36/35/34
f 36/35/34 10/7/7 34/34/33
f 43/44/43 46/45/44 52/52/51
f 52/52/51 40/39/38 43/44/43
f 40/39/38 52/52/51 47/47/46
f 47/47/46 38/37/36 40/39/38
f 51/48/47 53/53/52 54/54/53
f 54/54/53 48/49/48 51/48/47
f 50/51/50 49/50/49 14/15/14
f 14/15/14 13/14/13 50/51/50
f 16/17/16 28/29/28 27/28/27
f 27/28/27 17/18/17 16/17/16
f 48/49/48 35/36/35 29/26/25
f 29/26/25 49/50/49 48/49/48
f 29/26/25 28/29/28 14/15/14
f 14/15/14 49/50/49 29/26/25
f 16/17/16 15/12/12 14/15/14
f 14/15/14 28/29/28 16/17/16
f 37/38/37 35/36/35 48/49/48
f 48/49/48 54/54/53 37/38/37
f 41/42/41 44/41/40 54/54/53
f 54/54/53 53/53/52 41/42/41
f 39/40/39 37/38/37 54/54/53
f 54/54/53 44/41/40 39/40/39
f 58/55/54 55/56/55 56/57/56
f 56/57/56 57/58/57 58/55/54
f 4/1/1 58/55/54 57/58/57
f 57/58/57 21/22/21 4/1/1
f 62/59/58 59/60/59 60/61/60
f 60/61/60 61/62/61 62/59/58
f 12/13/12 15/12/12 60/61/60
f 60/61/60 59/60/59 12/13/12
f 11/11/11 1/2/2 4/1/1
f 4/1/1 21/22/21 11/11/11
f 6/6/6 63/63/62 64/64/63
f 64/64/63 3/4/4 6/6/6
f 4/1/1 3/4/4 64/64/63
f 64/64/63 58/55/54 4/1/1
f 55/56/55 58/55/54 64/64/63
f 64/64/63 63/63/62 55/56/55
f 21/22/21 57/58/57 65/65/64
f 65/65/64 22/20/19 21/22/21
f 69/66/65 66/67/66 67/68/67
f 67/68/67 68/69/68 69/66/65
f 31/31/30 70/70/69 6/6/6
f 6/6/6 5/5/5 31/31/30
f 70/70/69 71/71/70 63/63/62
f 63/63/62 6/6/6 70/70/69
f 71/71/70 72/72/71 55/56/55
f 55/56/55 63/63/62 71/71/70
f 72/72/71 73/73/72 56/57/56
f 56/57/56 55/56/55 72/72/71
f 66/67/66 69/66/65 65/65/64
f 65/65/64 74/74/73 66/67/66
f 22/20/19 65/65/64 69/66/65
f 69/66/65 18/19/18 22/20/19
f 74/74/73 65/65/64 57/58/57
f 57/58/57 56/57/56 74/74/73
f 67/68/67 66/67/66 75/75/74
f 75/75/74 76/76/75 67/68/67
f 76/76/75 75/75/74 77/77/76
f 77/77/76 78/78/77 76/76/75
f 78/78/77 77/77/76 79/79/78
f 79/79/78 80/80/79 78/78/77
f 84/81/80 81/82/81 82/83/82
f 82/83/82 83/84/83 84/81/80
f 83/84/83 82/83/82 80/80/79
f 80/80/79 79/79/78 83/84/83
f 84/81/80 83/84/83 85/85/84
f 85/85/84 86/86/45 84/81/80
f 75/75/74 56/57/56 87/87/85
f 87/87/85 77/77/76 75/75/74
f 91/88/86 88/89/87 89/90/88
f 89/90/88 90/91/89 91/88/86
f 75/75/74 66/67/66 74/74/73
f 74/74/73 56/57/56 75/75/74
f 92/92/90 85/85/84 83/84/83
f 83/84/83 79/79/78 92/92/90
f 87/87/85 92/92/90 79/79/78
f 79/79/78 77/77/76 87/87/85
f 94/93/91 93/94/92 89/90/88
f 89/90/88 88/89/87 94/93/91
f 61/62/61 91/88/86 90/91/89
f 90/91/89 62/59/58 61/62/61
f 69/66/65 68/69/68 19/16/15
f 19/16/15 18/19/18 69/66/65
f 67/68/67 76/76/75 88/89/87
f 88/89/87 91/88/86 67/68/67
f 61/62/61 68/69/68 67/68/67
f 67/68/67 91/88/86 61/62/61
f 61/62/61 60/61/60 19/16/15
f 19/16/15 68/69/68 61/62/61
f 15/12/12 16/17/16 19/16/15
f 19/16/15 60/61/60 15/12/12
f 88/89/87 76/76/75 78/78/77
f 78/78/77 94/93/91 88/89/87
f 94/93/91 82/83/82 81/82/81
f 81/82/81 93/94/92 94/93/91
f 94/93/91 78/78/77 80/80/79
f 80/80/79 82/83/82 94/93/91
f 98/95/93 95/96/94 96/97/95
f 96/97/95 97/98/96 98/95/93
f 100/99/97 98/95/93 97/98/96
f 97/98/96 99/100/98 100/99/97
f 13/14/13 12/13/12 101/101/12
f 101/101/12 102/102/99 13/14/13
f 103/103/100 101/101/12 12/13/12
f 12/13/12 59/60/59 103/103/100
f 105/104/101 100/99/97 99/100/98
f 99/100/98 104/105/102 105/104/101
f 109/106/103 106/107/104 107/108/105
f 107/108/105 108/109/106 109/106/103
f 100/99/97 108/109/106 107/108/105
f 107/108/105 98/95/93 100/99/97
f 95/96/94 98/95/93 107/108/105
f 107/108/105 106/107/104 95/96/94
f 99/100/98 97/98/96 110/110/107
f 110/110/107 111/111/108 99/100/98
f 115/112/109 112/113/110 113/114/111
f 113/114/111 114/115/112 115/112/109
f 117/116/113 70/70/69 31/31/30
f 31/31/30 116/117/103 117/116/113
f 31/31/30 30/30/29 118/118/104
f 118/118/104 116/117/103 31/31/30
f 30/30/29 32/32/31 119/119/114
f 119/119/114 118/118/104 30/30/29
f 32/32/31 33/33/32 120/120/95
f 120/120/95 119/119/114 32/32/31
f 112/113/110 115/112/109 110/110/107
f 110/110/107 121/121/115 112/113/110
f 111/111/108 110/110/107 115/112/109
f 115/112/109 122/122/116 111/111/108
f 121/121/115 110/110/107 97/98/96
f 97/98/96 96/97/95 121/121/115
f 113/114/111 112/113/110 123/123/117
f 123/123/117 124/124/118 113/114/111
f 124/124/118 123/123/117 125/125/119
f 125/125/119 126/126/120 124/124/118
f 126/126/120 125/125/119 127/127/121
f 127/127/121 128/128/122 126/126/120
f 132/129/123 129/130/124 130/131/125
f 130/131/125 131/132/126 132/129/123
f 131/132/126 130/131/125 128/128/122
f 128/128/122 127/127/121 131/132/126
f 132/129/123 131/132/126 133/133/127
f 133/133/127 134/134/45 132/129/123
f 123/123/117 96/97/95 135/135/128
f 135/135/128 125/125/119 123/123/117
f 137/136/129 136/137/130 51/48/47
f 51/48/47 50/51/50 137/136/129
f 123/123/117 112/113/110 121/121/115
f 121/121/115 96/97/95 123/123/117
f 138/138/131 133/133/127 131/132/126
f 131/132/126 127/127/121 138/138/131
f 135/135/128 138/138/131 127/127/121
f 127/127/121 125/125/119 135/135/128
f 140/139/132 139/140/133 51/48/47
f 51/48/47 136/137/130 140/139/132
f 102/102/99 137/136/129 50/51/50
f 50/51/50 13/14/13 102/102/99
f 115/112/109 114/115/112 141/141/134
f 141/141/134 122/122/116 115/112/109
f 113/114/111 124/124/118 136/137/130
f 136/137/130 137/136/129 113/114/111
f 102/102/99 142/142/135 113/114/111
f 113/114/111 137/136/129 102/102/99
f 102/102/99 101/101/12 141/141/134
f 141/141/134 142/142/135 102/102/99
f 143/143/136 141/141/134 101/101/12
f 101/101/12 103/103/100 143/143/136
f 136/137/130 124/124/118 126/126/120
f 126/126/120 140/139/132 136/137/130
f 140/139/132 130/131/125 129/130/124
f 129/130/124 139/140/133 140/139/132
f 140/139/132 126/126/120 128/128/122
f 128/128/122 130/131/125 140/139/132
f 108/109/106 100/99/97 105/104/101
f 105/104/101 144/144/137 108/109/106
f 109/106/103 108/109/106 144/144/137
f 144/144/137 145/145/138 109/106/103
f 149/146/139 146/147/140 147/148/141
f 147/148/141 148/149/142 149/146/139
f 148/149/142 147/148/141 105/104/101
f 105/104/101 104/105/102 148/149/142
f 103/103/100 59/60/59 62/59/58
f 62/59/58 150/150/143 103/103/100
f 122/122/116 141/141/134 143/143/136
f 143/143/136 151/151/144 122/122/116
f 99/100/98 111/111/108 152/152/145
f 152/152/145 104/105/102 99/100/98
f 154/153/146 153/154/147 145/145/138
f 145/145/138 144/144/137 154/153/146
f 154/153/146 144/144/137 105/104/101
f 105/104/101 147/148/141 154/153/146
f 154/153/146 147/148/141 146/147/140
f 146/147/140 153/154/147 154/153/146
f 155/155/148 148/149/142 104/105/102
f 104/105/102 152/152/145 155/155/148
f 159/156/149 156/157/150 157/158/151
f 157/158/151 158/159/152 159/156/149
f 160/160/153 71/71/70 70/70/69
f 70/70/69 117/116/113 160/160/153
f 161/161/154 72/72/71 71/71/70
f 71/71/70 160/160/153 161/161/154
f 162/162/139 73/73/72 72/72/71
f 72/72/71 161/161/154 162/162/139
f 155/155/148 157/158/151 156/157/150
f 156/157/150 163/163/155 155/155/148
f 111/111/108 122/122/116 151/151/144
f 151/151/144 152/152/145 111/111/108
f 157/158/151 155/155/148 152/152/145
f 152/152/145 151/151/144 157/158/151
f 148/149/142 155/155/148 163/163/155
f 163/163/155 149/146/139 148/149/142
f 167/164/156 164/165/150 165/166/157
f 165/166/157 166/167/158 167/164/156
f 169/168/159 167/164/156 166/167/158
f 166/167/158 168/169/160 169/168/159
f 171/170/161 169/168/159 168/169/160
f 168/169/160 170/171/162 171/170/161
f 175/172/163 172/173/164 173/174/165
f 173/174/165 174/175/166 175/172/163
f 170/171/162 175/172/163 174/175/166
f 174/175/166 171/170/161 170/171/162
f 177/176/167 174/175/166 173/174/165
f 173/174/165 176/177/45 177/176/167
f 179/178/168 178/179/139 167/164/156
f 167/164/156 169/168/159 179/178/168
f 89/90/88 180/180/169 181/181/170
f 181/181/170 90/91/89 89/90/88
f 182/182/171 164/165/150 167/164/156
f 167/164/156 178/179/139 182/182/171
f 174/175/166 177/176/167 183/183/172
f 183/183/172 171/170/161 174/175/166
f 171/170/161 183/183/172 179/178/168
f 179/178/168 169/168/159 171/170/161
f 89/90/88 184/184/173 185/185/174
f 185/185/174 180/180/169 89/90/88
f 90/91/89 181/181/170 150/150/143
f 150/150/143 62/59/58 90/91/89
f 143/143/136 158/159/152 157/158/151
f 157/158/151 151/151/144 143/143/136
f 180/180/169 166/167/158 165/166/157
f 165/166/157 181/181/170 180/180/169
f 165/166/157 186/186/175 150/150/143
f 150/150/143 181/181/170 165/166/157
f 143/143/136 103/103/100 150/150/143
f 150/150/143 186/186/175 143/143/136
f 168/169/160 166/167/158 180/180/169
f 180/180/169 185/185/174 168/169/160
f 172/173/164 175/172/163 185/185/174
f 185/185/174 184/184/173 172/173/164
f 170/171/162 168/169/160 185/185/174
f 185/185/174 175/172/163 170/171/162
