# Blender 4.1.1
# www.blender.org
o spoon_collision.002
v -0.006924 -0.081208 0.010290
v -0.006924 0.021948 0.009075
v -0.006924 -0.081208 0.007110
v -0.006924 0.021948 0.004448
v 0.006924 -0.081208 0.010290
v 0.006924 0.021948 0.009075
v 0.006924 -0.081208 0.007110
v 0.006924 0.021948 0.004448
v -0.006924 -0.022695 0.016458
v -0.006924 -0.022695 0.005600
v 0.006924 -0.022695 0.005600
v 0.006924 -0.022695 0.016458
v -0.006924 -0.081208 0.007905
v -0.006924 -0.081208 0.008700
v -0.006924 -0.081208 0.009495
v -0.006924 -0.011535 0.014613
v -0.006924 -0.000374 0.012767
v -0.006924 0.010787 0.010921
v -0.006924 0.021948 0.007918
v -0.006924 0.021948 0.006762
v -0.006924 0.021948 0.005605
v -0.006924 -0.037324 0.005978
v -0.006924 -0.051952 0.006355
v -0.006924 -0.066580 0.006733
v 0.003462 -0.081208 0.007110
v 0.000000 -0.081208 0.007110
v -0.003462 -0.081208 0.007110
v -0.003462 0.021948 0.004448
v 0.000000 0.021948 0.004448
v 0.003462 0.021948 0.004448
v 0.006924 -0.037324 0.005978
v 0.006924 -0.051952 0.006355
v 0.006924 -0.066580 0.006733
v 0.006924 -0.081208 0.009495
v 0.006924 -0.081208 0.008700
v 0.006924 -0.081208 0.007905
v 0.006924 0.021948 0.005605
v 0.006924 0.021948 0.006762
v 0.006924 0.021948 0.007918
v 0.006924 -0.037324 0.014916
v 0.006924 -0.051952 0.013374
v 0.006924 -0.066580 0.011832
v -0.003462 -0.081208 0.010290
v 0.000000 -0.081208 0.010290
v 0.003462 -0.081208 0.010290
v 0.003462 0.021948 0.009075
v 0.000000 0.021948 0.009075
v -0.003462 0.021948 0.009075
v -0.006924 -0.066580 0.011832
v -0.006924 -0.051952 0.013374
v -0.006924 -0.037324 0.014916
v -0.006924 0.010787 0.004736
v -0.006924 -0.000374 0.005024
v -0.006924 -0.011535 0.005312
v 0.006924 0.010787 0.004736
v 0.006924 -0.000374 0.005024
v 0.006924 -0.011535 0.005312
v 0.006924 0.010787 0.010921
v 0.006924 -0.000374 0.012767
v 0.006924 -0.011535 0.014613
v 0.003462 -0.022695 0.016458
v 0.000000 -0.022695 0.016458
v -0.003462 -0.022695 0.016458
v 0.006924 -0.022695 0.008315
v 0.006924 -0.022695 0.011029
v 0.006924 -0.022695 0.013744
v -0.003462 -0.022695 0.005600
v 0.000000 -0.022695 0.005600
v 0.003462 -0.022695 0.005600
v -0.006924 -0.022695 0.013744
v -0.006924 -0.022695 0.011029
v -0.006924 -0.022695 0.008315
v -0.006924 -0.011535 0.012287
v -0.006924 -0.000374 0.010831
v -0.006924 0.010787 0.009375
v -0.006924 -0.011535 0.009962
v -0.006924 -0.000374 0.008895
v -0.006924 0.010787 0.007828
v -0.006924 -0.011535 0.007637
v -0.006924 -0.000374 0.006960
v -0.006924 0.010787 0.006282
v -0.003462 -0.011535 0.005312
v -0.003462 -0.000374 0.005024
v -0.003462 0.010787 0.004736
v 0.000000 -0.011535 0.005312
v -0.000000 -0.000374 0.005024
v -0.000000 0.010787 0.004736
v 0.003462 -0.011535 0.005312
v 0.003462 -0.000374 0.005024
v 0.003462 0.010787 0.004736
v 0.006924 -0.011535 0.007637
v 0.006924 -0.000374 0.006960
v 0.006924 0.010787 0.006282
v 0.006924 -0.011535 0.009962
v 0.006924 -0.000374 0.008895
v 0.006924 0.010787 0.007828
v 0.006924 -0.011535 0.012287
v 0.006924 -0.000374 0.010831
v 0.006924 0.010787 0.009375
v 0.003462 -0.011535 0.014613
v 0.003462 -0.000374 0.012767
v 0.003462 0.010787 0.010921
v -0.000000 -0.011535 0.014613
v 0.000000 -0.000374 0.012767
v 0.000000 0.010787 0.010921
v -0.003462 -0.011535 0.014613
v -0.003462 -0.000374 0.012767
v -0.003462 0.010787 0.010921
v -0.003462 -0.081208 0.007905
v 0.000000 -0.081208 0.007905
v 0.003462 -0.081208 0.007905
v -0.003462 -0.081208 0.008700
v 0.000000 -0.081208 0.008700
v 0.003462 -0.081208 0.008700
v -0.003462 -0.081208 0.009495
v 0.000000 -0.081208 0.009495
v 0.003462 -0.081208 0.009495
v 0.003462 0.021948 0.005605
v 0.000000 0.021948 0.005605
v -0.003462 0.021948 0.005605
v 0.003462 0.021948 0.006762
v 0.000000 0.021948 0.006762
v -0.003462 0.021948 0.006762
v 0.003462 0.021948 0.007918
v 0.000000 0.021948 0.007918
v -0.003462 0.021948 0.007918
v 0.003462 -0.066580 0.011832
v 0.003462 -0.051952 0.013374
v 0.003462 -0.037324 0.014916
v -0.000000 -0.066580 0.011832
v 0.000000 -0.051952 0.013374
v 0.000000 -0.037324 0.014916
v -0.003462 -0.066580 0.011832
v -0.003462 -0.051952 0.013374
v -0.003462 -0.037324 0.014916
v 0.006924 -0.066580 0.008007
v 0.006924 -0.051952 0.008110
v 0.006924 -0.037324 0.008212
v 0.006924 -0.066580 0.009282
v 0.006924 -0.051952 0.009865
v 0.006924 -0.037324 0.010447
v 0.006924 -0.066580 0.010557
v 0.006924 -0.051952 0.011619
v 0.006924 -0.037324 0.012682
v -0.003462 -0.066580 0.006733
v -0.003462 -0.051952 0.006355
v -0.003462 -0.037324 0.005978
v 0.000000 -0.066580 0.006733
v -0.000000 -0.051952 0.006355
v -0.000000 -0.037324 0.005978
v 0.003462 -0.066580 0.006733
v 0.003462 -0.051952 0.006355
v 0.003462 -0.037324 0.005978
v -0.006924 -0.066580 0.010557
v -0.006924 -0.051952 0.011619
v -0.006924 -0.037324 0.012682
v -0.006924 -0.066580 0.009282
v -0.006924 -0.051952 0.009865
v -0.006924 -0.037324 0.010447
v -0.006924 -0.066580 0.008007
v -0.006924 -0.051952 0.008110
v -0.006924 -0.037324 0.008212
vn -1.0000 -0.0000 -0.0000
vn -0.0000 -0.0258 -0.9997
vn 1.0000 -0.0000 -0.0000
vn -0.0000 0.1632 0.9866
vn -0.0000 -1.0000 -0.0000
vn -0.0000 1.0000 -0.0000
vn -0.0000 -0.1048 0.9945
vt 0.543854 0.063789
vt 0.570903 0.063359
vt 0.570903 0.125267
vt 0.543854 0.125400
vt 0.597952 0.062930
vt 0.597952 0.125133
vt 0.570903 0.187175
vt 0.543854 0.187012
vt 0.597952 0.187337
vt 0.516806 0.002903
vt 0.543854 0.002177
vt 0.516806 0.064218
vt 0.570903 0.001451
vt 0.597951 0.000726
vt 0.625000 0.000000
vt 0.625000 0.062500
vt 0.625000 0.125000
vt 0.625000 0.187500
vt 0.625000 0.250000
vt 0.597952 0.249541
vt 0.570903 0.249082
vt 0.543854 0.248623
vt 0.516806 0.186849
vt 0.516806 0.248164
vt 0.516806 0.125534
vt 0.543854 0.311812
vt 0.570903 0.312041
vt 0.570903 0.375000
vt 0.543854 0.375000
vt 0.597951 0.312271
vt 0.597952 0.375000
vt 0.570903 0.437959
vt 0.543854 0.438188
vt 0.597952 0.437729
vt 0.543854 0.248623
vt 0.516806 0.311582
vt 0.625000 0.312500
vt 0.625000 0.375000
vt 0.625000 0.437500
vt 0.625000 0.500000
vt 0.597952 0.500459
vt 0.570903 0.500918
vt 0.543854 0.501377
vt 0.516806 0.438418
vt 0.516806 0.501836
vt 0.516806 0.375000
vt 0.543854 0.563170
vt 0.570903 0.562947
vt 0.570903 0.624975
vt 0.543854 0.624963
vt 0.597951 0.562723
vt 0.597952 0.624988
vt 0.570903 0.687004
vt 0.543854 0.686756
vt 0.597952 0.687252
vt 0.516806 0.563393
vt 0.625000 0.562500
vt 0.625000 0.625000
vt 0.625000 0.687500
vt 0.625000 0.750000
vt 0.597952 0.749516
vt 0.570903 0.749032
vt 0.543854 0.748549
vt 0.516806 0.686508
vt 0.516806 0.748065
vt 0.516806 0.624950
vt 0.543854 0.811411
vt 0.570903 0.811774
vt 0.570903 0.874516
vt 0.543854 0.874274
vt 0.597951 0.812137
vt 0.597952 0.874758
vt 0.570903 0.937258
vt 0.543854 0.937137
vt 0.597952 0.937379
vt 0.516806 0.811049
vt 0.625000 0.812500
vt 0.625000 0.875000
vt 0.625000 0.937500
vt 0.625000 1.000000
vt 0.597952 1.000000
vt 0.570903 1.000000
vt 0.543854 1.000000
vt 0.516806 0.937016
vt 0.516806 1.000000
vt 0.516806 0.874032
vt 0.187500 0.562500
vt 0.250000 0.562500
vt 0.250000 0.625000
vt 0.187500 0.625000
vt 0.312500 0.562500
vt 0.312500 0.625000
vt 0.250000 0.687500
vt 0.187500 0.687500
vt 0.312500 0.687500
vt 0.125000 0.500000
vt 0.187500 0.500000
vt 0.125000 0.562500
vt 0.250000 0.500000
vt 0.312500 0.500000
vt 0.375000 0.500000
vt 0.375000 0.562500
vt 0.375000 0.625000
vt 0.375000 0.687500
vt 0.375000 0.750000
vt 0.312500 0.750000
vt 0.250000 0.750000
vt 0.187500 0.750000
vt 0.125000 0.687500
vt 0.125000 0.750000
vt 0.125000 0.625000
vt 0.687500 0.562500
vt 0.750000 0.562500
vt 0.750000 0.625000
vt 0.687500 0.625000
vt 0.812500 0.562500
vt 0.812500 0.625000
vt 0.750000 0.687500
vt 0.687500 0.687500
vt 0.812500 0.687500
vt 0.687500 0.500000
vt 0.750000 0.500000
vt 0.812500 0.500000
vt 0.875000 0.500000
vt 0.875000 0.562500
vt 0.875000 0.625000
vt 0.875000 0.687500
vt 0.875000 0.750000
vt 0.812500 0.750000
vt 0.750000 0.750000
vt 0.687500 0.750000
vt 0.410452 0.812137
vt 0.445903 0.811774
vt 0.445903 0.874516
vt 0.410451 0.874758
vt 0.481354 0.811411
vt 0.481354 0.874274
vt 0.445903 0.937258
vt 0.410451 0.937379
vt 0.481354 0.937137
vt 0.410452 0.749516
vt 0.375000 0.812500
vt 0.445903 0.749032
vt 0.481354 0.748549
vt 0.481354 1.000000
vt 0.445903 1.000000
vt 0.410452 1.000000
vt 0.375000 0.937500
vt 0.375000 1.000000
vt 0.375000 0.875000
vt 0.410452 0.562723
vt 0.445903 0.562946
vt 0.445903 0.624975
vt 0.410451 0.624988
vt 0.481354 0.563170
vt 0.481354 0.624963
vt 0.445903 0.687004
vt 0.410451 0.687252
vt 0.481354 0.686756
vt 0.410452 0.500459
vt 0.445903 0.500918
vt 0.481354 0.501377
vt 0.410452 0.312271
vt 0.445903 0.312041
vt 0.445903 0.375000
vt 0.410451 0.375000
vt 0.481354 0.311812
vt 0.481354 0.375000
vt 0.445903 0.437959
vt 0.410451 0.437730
vt 0.481354 0.438188
vt 0.375000 0.250000
vt 0.410452 0.249541
vt 0.375000 0.312500
vt 0.445903 0.249082
vt 0.481354 0.248623
vt 0.375000 0.437500
vt 0.375000 0.375000
vt 0.410452 0.062930
vt 0.445903 0.063359
vt 0.445903 0.125267
vt 0.410452 0.125133
vt 0.481354 0.063789
vt 0.481354 0.125400
vt 0.445903 0.187175
vt 0.410452 0.187337
vt 0.481354 0.187012
vt 0.375000 0.000000
vt 0.410451 0.000726
vt 0.375000 0.062500
vt 0.445903 0.001451
vt 0.481354 0.002177
vt 0.516806 0.064218
vt 0.481354 0.248623
vt 0.445903 0.249082
vt 0.375000 0.187500
vt 0.375000 0.125000
s 0
f 73/1/1 74/2/1 77/3/1 76/4/1
f 74/2/1 75/5/1 78/6/1 77/3/1
f 76/4/1 77/3/1 80/7/1 79/8/1
f 77/3/1 78/6/1 81/9/1 80/7/1
f 9/10/1 16/11/1 73/1/1 70/12/1
f 16/11/1 17/13/1 74/2/1 73/1/1
f 17/13/1 18/14/1 75/5/1 74/2/1
f 18/14/1 2/15/1 19/16/1 75/5/1
f 75/5/1 19/16/1 20/17/1 78/6/1
f 78/6/1 20/17/1 21/18/1 81/9/1
f 81/9/1 21/18/1 4/19/1 52/20/1
f 80/7/1 81/9/1 52/20/1 53/21/1
f 79/8/1 80/7/1 53/21/1 54/22/1
f 72/23/1 79/8/1 54/22/1 10/24/1
f 71/25/1 76/4/1 79/8/1 72/23/1
f 70/12/1 73/1/1 76/4/1 71/25/1
f 82/26/2 83/27/2 86/28/2 85/29/2
f 83/27/2 84/30/2 87/31/2 86/28/2
f 85/29/2 86/28/2 89/32/2 88/33/2
f 86/28/2 87/31/2 90/34/2 89/32/2
f 10/24/2 54/35/2 82/26/2 67/36/2
f 54/35/2 53/21/2 83/27/2 82/26/2
f 53/21/2 52/20/2 84/30/2 83/27/2
f 52/20/2 4/19/2 28/37/2 84/30/2
f 84/30/2 28/37/2 29/38/2 87/31/2
f 87/31/2 29/38/2 30/39/2 90/34/2
f 90/34/2 30/39/2 8/40/2 55/41/2
f 89/32/2 90/34/2 55/41/2 56/42/2
f 88/33/2 89/32/2 56/42/2 57/43/2
f 69/44/2 88/33/2 57/43/2 11/45/2
f 68/46/2 85/29/2 88/33/2 69/44/2
f 67/36/2 82/26/2 85/29/2 68/46/2
f 91/47/3 92/48/3 95/49/3 94/50/3
f 92/48/3 93/51/3 96/52/3 95/49/3
f 94/50/3 95/49/3 98/53/3 97/54/3
f 95/49/3 96/52/3 99/55/3 98/53/3
f 11/45/3 57/43/3 91/47/3 64/56/3
f 57/43/3 56/42/3 92/48/3 91/47/3
f 56/42/3 55/41/3 93/51/3 92/48/3
f 55/41/3 8/40/3 37/57/3 93/51/3
f 93/51/3 37/57/3 38/58/3 96/52/3
f 96/52/3 38/58/3 39/59/3 99/55/3
f 99/55/3 39/59/3 6/60/3 58/61/3
f 98/53/3 99/55/3 58/61/3 59/62/3
f 97/54/3 98/53/3 59/62/3 60/63/3
f 66/64/3 97/54/3 60/63/3 12/65/3
f 65/66/3 94/50/3 97/54/3 66/64/3
f 64/56/3 91/47/3 94/50/3 65/66/3
f 100/67/4 101/68/4 104/69/4 103/70/4
f 101/68/4 102/71/4 105/72/4 104/69/4
f 103/70/4 104/69/4 107/73/4 106/74/4
f 104/69/4 105/72/4 108/75/4 107/73/4
f 12/65/4 60/63/4 100/67/4 61/76/4
f 60/63/4 59/62/4 101/68/4 100/67/4
f 59/62/4 58/61/4 102/71/4 101/68/4
f 58/61/4 6/60/4 46/77/4 102/71/4
f 102/71/4 46/77/4 47/78/4 105/72/4
f 105/72/4 47/78/4 48/79/4 108/75/4
f 108/75/4 48/79/4 2/80/4 18/81/4
f 107/73/4 108/75/4 18/81/4 17/82/4
f 106/74/4 107/73/4 17/82/4 16/83/4
f 63/84/4 106/74/4 16/83/4 9/85/4
f 62/86/4 103/70/4 106/74/4 63/84/4
f 61/76/4 100/67/4 103/70/4 62/86/4
f 109/87/5 110/88/5 113/89/5 112/90/5
f 110/88/5 111/91/5 114/92/5 113/89/5
f 112/90/5 113/89/5 116/93/5 115/94/5
f 113/89/5 114/92/5 117/95/5 116/93/5
f 3/96/5 27/97/5 109/87/5 13/98/5
f 27/97/5 26/99/5 110/88/5 109/87/5
f 26/99/5 25/100/5 111/91/5 110/88/5
f 25/100/5 7/101/5 36/102/5 111/91/5
f 111/91/5 36/102/5 35/103/5 114/92/5
f 114/92/5 35/103/5 34/104/5 117/95/5
f 117/95/5 34/104/5 5/105/5 45/106/5
f 116/93/5 117/95/5 45/106/5 44/107/5
f 115/94/5 116/93/5 44/107/5 43/108/5
f 15/109/5 115/94/5 43/108/5 1/110/5
f 14/111/5 112/90/5 115/94/5 15/109/5
f 13/98/5 109/87/5 112/90/5 14/111/5
f 118/112/6 119/113/6 122/114/6 121/115/6
f 119/113/6 120/116/6 123/117/6 122/114/6
f 121/115/6 122/114/6 125/118/6 124/119/6
f 122/114/6 123/117/6 126/120/6 125/118/6
f 8/40/6 30/121/6 118/112/6 37/57/6
f 30/121/6 29/122/6 119/113/6 118/112/6
f 29/122/6 28/123/6 120/116/6 119/113/6
f 28/123/6 4/124/6 21/125/6 120/116/6
f 120/116/6 21/125/6 20/126/6 123/117/6
f 123/117/6 20/126/6 19/127/6 126/120/6
f 126/120/6 19/127/6 2/128/6 48/129/6
f 125/118/6 126/120/6 48/129/6 47/130/6
f 124/119/6 125/118/6 47/130/6 46/131/6
f 39/59/6 124/119/6 46/131/6 6/60/6
f 38/58/6 121/115/6 124/119/6 39/59/6
f 37/57/6 118/112/6 121/115/6 38/58/6
f 127/132/7 128/133/7 131/134/7 130/135/7
f 128/133/7 129/136/7 132/137/7 131/134/7
f 130/135/7 131/134/7 134/138/7 133/139/7
f 131/134/7 132/137/7 135/140/7 134/138/7
f 5/105/7 42/141/7 127/132/7 45/142/7
f 42/141/7 41/143/7 128/133/7 127/132/7
f 41/143/7 40/144/7 129/136/7 128/133/7
f 40/144/7 12/65/7 61/76/7 129/136/7
f 129/136/7 61/76/7 62/86/7 132/137/7
f 132/137/7 62/86/7 63/84/7 135/140/7
f 135/140/7 63/84/7 9/85/7 51/145/7
f 134/138/7 135/140/7 51/145/7 50/146/7
f 133/139/7 134/138/7 50/146/7 49/147/7
f 43/148/7 133/139/7 49/147/7 1/149/7
f 44/150/7 130/135/7 133/139/7 43/148/7
f 45/142/7 127/132/7 130/135/7 44/150/7
f 136/151/3 137/152/3 140/153/3 139/154/3
f 137/152/3 138/155/3 141/156/3 140/153/3
f 139/154/3 140/153/3 143/157/3 142/158/3
f 140/153/3 141/156/3 144/159/3 143/157/3
f 7/101/3 33/160/3 136/151/3 36/102/3
f 33/160/3 32/161/3 137/152/3 136/151/3
f 32/161/3 31/162/3 138/155/3 137/152/3
f 31/162/3 11/45/3 64/56/3 138/155/3
f 138/155/3 64/56/3 65/66/3 141/156/3
f 141/156/3 65/66/3 66/64/3 144/159/3
f 144/159/3 66/64/3 12/65/3 40/144/3
f 143/157/3 144/159/3 40/144/3 41/143/3
f 142/158/3 143/157/3 41/143/3 42/141/3
f 34/104/3 142/158/3 42/141/3 5/105/3
f 35/103/3 139/154/3 142/158/3 34/104/3
f 36/102/3 136/151/3 139/154/3 35/103/3
f 145/163/2 146/164/2 149/165/2 148/166/2
f 146/164/2 147/167/2 150/168/2 149/165/2
f 148/166/2 149/165/2 152/169/2 151/170/2
f 149/165/2 150/168/2 153/171/2 152/169/2
f 3/172/2 24/173/2 145/163/2 27/174/2
f 24/173/2 23/175/2 146/164/2 145/163/2
f 23/175/2 22/176/2 147/167/2 146/164/2
f 22/176/2 10/24/2 67/36/2 147/167/2
f 147/167/2 67/36/2 68/46/2 150/168/2
f 150/168/2 68/46/2 69/44/2 153/171/2
f 153/171/2 69/44/2 11/45/2 31/162/2
f 152/169/2 153/171/2 31/162/2 32/161/2
f 151/170/2 152/169/2 32/161/2 33/160/2
f 25/177/2 151/170/2 33/160/2 7/101/2
f 26/178/2 148/166/2 151/170/2 25/177/2
f 27/174/2 145/163/2 148/166/2 26/178/2
f 154/179/1 155/180/1 158/181/1 157/182/1
f 155/180/1 156/183/1 159/184/1 158/181/1
f 157/182/1 158/181/1 161/185/1 160/186/1
f 158/181/1 159/184/1 162/187/1 161/185/1
f 1/188/1 49/189/1 154/179/1 15/190/1
f 49/189/1 50/191/1 155/180/1 154/179/1
f 50/191/1 51/192/1 156/183/1 155/180/1
f 51/192/1 9/10/1 70/193/1 156/183/1
f 156/183/1 70/193/1 71/25/1 159/184/1
f 159/184/1 71/25/1 72/23/1 162/187/1
f 162/187/1 72/23/1 10/24/1 22/194/1
f 161/185/1 162/187/1 22/194/1 23/195/1
f 160/186/1 161/185/1 23/195/1 24/173/1
f 13/196/1 160/186/1 24/173/1 3/172/1
f 14/197/1 157/182/1 160/186/1 13/196/1
f 15/190/1 154/179/1 157/182/1 14/197/1
