# Blender 4.1.1
# www.blender.org
o collision_tray_mid.018
v -0.103494 0.060786 0.285503
v 0.103494 0.060786 0.285503
v -0.103494 0.099213 0.285503
v 0.103494 0.099213 0.285503
v -0.103494 0.099213 0.281768
v 0.103494 0.099213 0.281768
v -0.103494 0.060786 0.281768
v 0.103494 0.060786 0.281768
v -0.103494 0.083202 0.287389
v -0.103494 0.076798 0.287389
v 0.103494 0.076798 0.287389
v 0.103494 0.083202 0.287389
v 0.103494 0.076572 0.270886
v 0.103494 0.083427 0.270886
v -0.103494 0.076572 0.272630
v -0.103494 0.083427 0.272630
v -0.103494 0.070216 0.286952
v -0.103494 0.064812 0.286264
v -0.103494 0.070224 0.275382
v -0.103494 0.065238 0.278469
v -0.103494 0.089784 0.286952
v -0.103494 0.095187 0.286264
v -0.103494 0.089775 0.275382
v -0.103494 0.094761 0.278469
v 0.103494 0.089784 0.286952
v 0.103494 0.095187 0.286264
v 0.103494 0.070216 0.286952
v 0.103494 0.064812 0.286264
v 0.103494 0.089775 0.273638
v 0.103494 0.094761 0.276725
v 0.103494 0.070224 0.273638
v 0.103494 0.065238 0.276725
vn -0.0606 0.7436 0.6658
vn 0.0749 0.7429 0.6652
vn 0.0874 0.8680 -0.4888
vn -0.0716 0.8691 -0.4895
vn -0.6090 -0.7277 -0.3154
vn 0.2438 -0.8450 -0.4759
vn 0.0060 -0.7450 0.6670
vn -0.0193 -0.7448 0.6670
vn -0.0042 0.0336 0.9994
vn -0.0017 -0.0331 0.9994
vn 0.0122 -0.0336 0.9994
vn 0.0153 0.0331 0.9993
vn 0.0286 0.2039 -0.9786
vn 0.0096 -0.2044 -0.9788
vn -0.6747 -0.0255 -0.7376
vn -0.5662 0.1673 -0.8071
vn -0.0004 -0.0935 0.9956
vn -0.2065 -0.1527 0.9665
vn 0.0092 -0.1519 0.9884
vn 0.0103 -0.0963 0.9953
vn -0.7028 -0.3585 -0.6145
vn -0.6616 -0.3473 -0.6646
vn -0.0005 -0.4580 -0.8889
vn -0.0028 -0.6115 -0.7913
vn -0.0111 0.1519 0.9883
vn -0.0072 0.0963 0.9953
vn 0.0190 0.0934 0.9954
vn 0.0233 0.1561 0.9875
vn -0.6947 0.3723 -0.6154
vn -0.6343 0.4698 -0.6140
vn 0.0605 0.6085 -0.7913
vn 0.0420 0.4576 -0.8882
vt 0.160467 0.127660
vt 0.261413 0.128603
vt 0.266655 0.157356
vt 0.154989 0.157968
vt 0.154547 0.261457
vt 0.266212 0.260846
vt 0.260734 0.291154
vt 0.159788 0.290210
vt 0.535070 0.578505
vt 0.532741 0.578505
vt 0.532741 0.504960
vt 0.535070 0.504960
vt 0.234087 0.202756
vt 0.233892 0.215366
vt 0.187114 0.216057
vt 0.187310 0.203447
vt 0.530371 0.578505
vt 0.528251 0.578505
vt 0.528251 0.504960
vt 0.530371 0.504960
vt 0.171522 0.242442
vt 0.179306 0.229901
vt 0.242856 0.230492
vt 0.251986 0.244444
vt 0.539560 0.578505
vt 0.537440 0.578505
vt 0.537440 0.504960
vt 0.539560 0.504960
vt 0.178346 0.188321
vt 0.169215 0.174369
vt 0.249679 0.176371
vt 0.241896 0.188912
vt 0.540887 0.504960
vt 0.540887 0.578505
vt 0.526924 0.578505
vt 0.526924 0.504960
vt 0.134093 0.264139
vt 0.124651 0.253147
vt 0.110630 0.219609
vt 0.110183 0.201770
vt 0.115217 0.183619
vt 0.123490 0.168745
s 1
f 3/1/1 4/2/2 6/3/3 5/4/4
f 7/5/5 8/6/6 2/7/7 1/8/8
f 9/9/9 10/10/10 11/11/11 12/12/12
f 14/13/13 13/14/14 15/15/15 16/16/16
f 17/17/17 18/18/18 28/19/19 27/20/20
f 20/21/21 19/22/22 31/23/23 32/24/24
f 22/25/25 21/26/26 25/27/27 26/28/28
f 23/29/29 24/30/30 30/31/31 29/32/32
f 21/26/26 9/9/9 12/12/12 25/27/27
f 10/10/10 17/17/17 27/20/20 11/11/11
f 29/32/32 14/13/13 16/16/16 23/29/29
f 13/14/14 31/23/23 19/22/22 15/15/15
f 22/25/25 26/28/28 4/33/2 3/34/1
f 5/4/4 6/3/3 30/31/31 24/30/30
f 1/35/8 2/36/7 28/19/19 18/18/18
f 20/21/21 32/24/24 8/6/6 7/5/5
f 7/5/5 1/37/8 18/38/18 20/21/21
f 18/18/18 17/17/17 10/39/10
f 18/18/18 10/39/10 9/40/9
f 18/18/18 9/40/9 21/41/26
f 18/18/18 21/41/26 22/42/25
f 18/18/18 22/42/25 3/34/1
f 18/18/18 3/34/1 5/4/4
f 18/18/18 5/4/4 24/30/30
f 18/18/18 24/30/30 23/29/29
f 18/18/18 23/29/29 16/16/16
f 18/18/18 16/16/16 15/15/15
f 18/18/18 15/15/15 19/22/22
f 18/18/18 19/22/22 20/21/21
f 8/6/6 32/24/24 31/23/23
f 8/6/6 31/23/23 13/14/14
f 8/6/6 13/14/14 14/13/13
f 8/6/6 14/13/13 29/32/32
f 8/6/6 29/32/32 30/31/31
f 8/6/6 30/31/31 6/3/3
f 8/6/6 6/3/3 4/2/2
f 8/6/6 4/2/2 26/28/28
f 8/6/6 26/28/28 25/27/27
f 8/6/6 25/27/27 12/12/12
f 8/6/6 12/12/12 11/11/11
f 8/6/6 11/11/11 27/20/20
f 8/6/6 27/20/20 28/19/19
f 8/6/6 28/19/19 2/36/7
