# Blender 4.0.2
# www.blender.org
o collision_tray.011
v 0.089353 -0.049203 0.215612
v 0.089353 -0.027987 0.215612
v 0.094096 -0.049203 0.215612
v 0.094096 -0.027987 0.215613
v 0.089353 -0.049203 0.219207
v 0.089353 -0.023209 0.219207
v 0.094096 -0.049203 0.219208
v 0.094096 -0.023209 0.219208
vn -1.0000 -0.0000 -0.0000
vn 0.0001 -0.0000 -1.0000
vn 0.0001 0.6013 -0.7990
vn -0.0000 -1.0000 -0.0000
vn 1.0000 -0.0000 -0.0000
vn -0.0001 -0.0000 1.0000
vt 0.375000 0.125000
vt 0.625000 0.125000
vt 0.625000 0.250000
vt 0.375000 0.250000
vt 0.625000 0.500000
vt 0.375000 0.500000
vt 0.875000 0.500000
vt 0.875000 0.625000
vt 0.625000 0.625000
vt 0.125000 0.500000
vt 0.375000 0.625000
vt 0.125000 0.625000
vt 0.000000 0.000000
s 0
f 5/1/1 6/2/1 2/3/1 1/4/1
f 1/4/2 2/3/2 4/5/2 3/6/2
f 4/5/3 2/7/3 6/8/3 8/9/3
f 1/10/4 3/6/4 7/11/4 5/12/4
f 3/6/5 4/5/5 8/9/5 7/11/5
f 8/13/6 6/13/6 5/13/6 7/13/6
