# Blender 4.0.2
# www.blender.org
o collision_tray.003
v 0.041722 -0.053752 -0.263042
v 0.041722 0.082258 -0.263042
v 0.039968 -0.053752 -0.268752
v 0.039968 0.082258 -0.268752
v 0.068810 -0.053752 -0.284559
v 0.068810 0.082258 -0.284559
v 0.065739 -0.053752 -0.288193
v 0.065739 0.082258 -0.288193
vn -0.9559 -0.0000 0.2937
vn -0.6022 -0.0000 -0.7983
vn 0.7638 -0.0000 -0.6454
vn 0.6220 -0.0000 0.7830
vn -0.0000 -1.0000 -0.0000
vn -0.0000 1.0000 -0.0000
vt 0.375000 0.000000
vt 0.625000 0.000000
vt 0.625000 0.250000
vt 0.375000 0.250000
vt 0.625000 0.500000
vt 0.375000 0.500000
vt 0.625000 0.750000
vt 0.375000 0.750000
vt 0.625000 1.000000
vt 0.375000 1.000000
vt 0.125000 0.500000
vt 0.125000 0.750000
vt 0.875000 0.500000
vt 0.875000 0.750000
s 0
f 1/1/1 2/2/1 4/3/1 3/4/1
f 3/4/2 4/3/2 8/5/2 7/6/2
f 7/6/3 8/5/3 6/7/3 5/8/3
f 5/8/4 6/7/4 2/9/4 1/10/4
f 3/11/5 7/6/5 5/8/5 1/12/5
f 8/5/6 4/13/6 2/14/6 6/7/6
