# Blender 4.0.2
# www.blender.org
o collision_tray.020
v 0.051527 0.114932 0.257199
v 0.051527 0.114932 0.253499
v 0.051527 0.100091 0.270423
v 0.051527 0.100091 0.266723
v 0.047221 0.114932 0.257199
v 0.047221 0.114932 0.253499
v 0.047221 0.100091 0.270423
v 0.047221 0.100091 0.266723
vn 1.0000 -0.0000 -0.0000
vn -0.0000 -1.0000 -0.0000
vn -1.0000 -0.0000 -0.0000
vn -0.0000 1.0000 -0.0000
vn -0.0000 0.6653 0.7466
vn -0.0000 -0.6653 -0.7466
vt 0.375000 0.000000
vt 0.375000 0.250000
vt 0.625000 0.250000
vt 0.625000 0.000000
vt 0.375000 0.500000
vt 0.625000 0.500000
vt 0.375000 0.750000
vt 0.625000 0.750000
vt 0.375000 1.000000
vt 0.625000 1.000000
vt 0.125000 0.500000
vt 0.125000 0.750000
vt 0.875000 0.750000
vt 0.875000 0.500000
s 0
f 1/1/1 3/2/1 4/3/1 2/4/1
f 3/2/2 7/5/2 8/6/2 4/3/2
f 7/5/3 5/7/3 6/8/3 8/6/3
f 5/7/4 1/9/4 2/10/4 6/8/4
f 3/11/5 1/12/5 5/7/5 7/5/5
f 8/6/6 6/8/6 2/13/6 4/14/6
