# Blender 4.0.2
# www.blender.org
o collision_tray.019
v -0.103989 0.130927 0.265921
v 0.103001 0.130927 0.265921
v -0.103989 0.169354 0.265921
v 0.103001 0.169354 0.265921
v -0.103989 0.169354 0.262280
v 0.103001 0.169354 0.262280
v -0.103989 0.130927 0.262280
v 0.103001 0.130927 0.262280
v -0.103989 0.153343 0.267759
v -0.103989 0.146939 0.267759
v 0.103001 0.146939 0.267759
v 0.103001 0.153343 0.267759
v 0.103001 0.150141 0.251674
v -0.103989 0.150141 0.251674
v -0.103989 0.134954 0.266663
v -0.103989 0.140365 0.254357
v -0.103989 0.159925 0.267333
v -0.103989 0.159916 0.254357
v 0.103001 0.159925 0.267333
v 0.103001 0.134954 0.266663
v 0.103001 0.159916 0.254357
v 0.103001 0.140365 0.254357
vn -0.0000 1.0000 -0.0000
vn -0.0000 -1.0000 -0.0000
vn -0.0000 -0.6430 -0.7659
vn -0.0000 0.6430 -0.7659
vn -0.0000 0.2646 -0.9644
vn -0.0000 -0.2646 -0.9644
vn -1.0000 -0.0000 -0.0000
vn 1.0000 -0.0000 -0.0000
vn -0.0000 -0.0911 0.9958
vn -0.0000 -0.0000 1.0000
vn -0.0000 0.0646 0.9979
vn -0.0000 0.1482 0.9890
vn -0.0000 -0.1812 0.9834
vt 0.160467 0.127660
vt 0.261413 0.128603
vt 0.266655 0.157356
vt 0.154989 0.157968
vt 0.154547 0.261457
vt 0.266212 0.260846
vt 0.260734 0.291154
vt 0.159788 0.290210
vt 0.171522 0.242442
vt 0.179306 0.229901
vt 0.242856 0.230492
vt 0.251986 0.244444
vt 0.178346 0.188321
vt 0.169215 0.174369
vt 0.249679 0.176371
vt 0.241896 0.188912
vt 0.234087 0.202756
vt 0.187310 0.203447
vt 0.233892 0.215366
vt 0.187114 0.216057
vt 0.134093 0.264139
vt 0.124651 0.253147
vt 0.110630 0.219609
vt 0.110183 0.201770
vt 0.115217 0.183619
vt 0.123490 0.168745
vt 0.127858 0.159569
vt 0.296550 0.165666
vt 0.305012 0.180739
vt 0.310570 0.199204
vt 0.311019 0.217043
vt 0.305984 0.235195
vt 0.297711 0.250069
vt 0.293343 0.259245
vt 0.116190 0.238075
vt 0.000000 0.000000
vt 0.160843 0.293150
vt 0.259624 0.294078
s 0
f 3/1/1 4/2/1 6/3/1 5/4/1
f 7/5/2 8/6/2 2/7/2 1/8/2
f 7/9/3 16/10/3 22/11/3 8/12/3
f 18/13/4 5/14/4 6/15/4 21/16/4
f 21/16/5 13/17/5 14/18/5 18/13/5
f 13/19/6 22/11/6 16/10/6 14/20/6
f 7/5/7 1/21/7 15/22/7
f 15/22/7 10/23/7 9/24/7
f 15/22/7 9/24/7 17/25/7
f 15/22/7 17/25/7 3/26/7
f 15/22/7 3/27/7 5/4/7
f 15/22/7 5/14/7 18/13/7
f 15/22/7 18/13/7 14/18/7
f 15/22/7 14/20/7 16/10/7
f 15/22/7 16/10/7 7/9/7
f 8/6/8 22/11/8 13/19/8
f 8/6/8 13/17/8 21/16/8
f 8/6/8 21/16/8 6/15/8
f 8/6/8 6/3/8 4/2/8
f 8/6/8 4/28/8 19/29/8
f 8/6/8 19/29/8 12/30/8
f 8/6/8 12/30/8 11/31/8
f 8/6/8 11/31/8 20/32/8
f 8/6/8 20/33/8 2/34/8
f 11/31/9 10/23/9 15/35/9 20/32/9
f 9/36/10 10/23/10 11/31/10 12/30/10
f 19/29/11 17/25/11 9/36/11 12/30/11
f 3/36/12 17/25/12 19/29/12 4/28/12
f 15/36/13 1/37/13 2/38/13 20/33/13
