# Blender 4.1.1
# www.blender.org
o spatula_collision_001
v -0.010166 -0.004523 -0.138389
v -0.000085 -0.005065 -0.141865
v -0.009223 0.000722 0.020512
v 0.008505 0.006820 0.020495
v 0.009080 0.000722 0.020512
v -0.000082 -0.009564 -0.141471
v 0.009918 -0.009282 -0.137935
v 0.010024 -0.004574 -0.138403
v -0.008662 0.006695 0.020491
v -0.009703 0.003152 -0.057152
v 0.009560 0.003152 -0.057152
v -0.010061 -0.009266 -0.137944
vn 0.5405 0.6181 0.5708
vn 0.7029 0.7098 -0.0459
vn -0.7036 0.7092 -0.0459
vn -0.5422 0.6149 0.5726
vn -0.8230 -0.0688 -0.5639
vn -0.0006 -0.0916 -0.9958
vn -0.6527 -0.6351 -0.4131
vn 0.6612 0.5429 -0.5177
vn 0.6521 -0.6369 -0.4113
vn -0.6053 -0.5311 0.5929
vn -0.0008 -0.9980 0.0630
vn 0.6055 -0.5309 0.5929
vn 0.0001 0.5452 -0.8383
vn 0.0014 0.9946 -0.1037
vt 0.738503 0.678804
vt 0.577531 0.680915
vt 0.577530 0.641026
vt 0.738488 0.643132
vt 0.530658 0.629828
vt 0.509018 0.620474
vt 0.530493 0.620138
vt 0.487367 0.629908
vt 0.487482 0.620136
vt 0.416264 0.572799
vt 0.000000 0.000000
vt 0.744544 0.483071
vt 0.744217 0.492767
vt 0.414550 0.479554
vt 0.415085 0.491428
vt 0.575505 0.476864
vt 0.226676 0.483441
vt 0.225720 0.473706
vt 0.452126 0.682229
vt 0.555078 0.449981
vt 0.555094 0.461985
vt 0.408408 0.681560
vt 0.509033 0.629903
vt 0.408565 0.640587
s 1
f 4/1/1 11/2/2 10/3/3 9/4/4
f 1/5/5 6/6/6 12/7/7
f 6/6/6 8/8/8 7/9/9
f 3/10/10 6/6/11 5/11/12
f 3/11/10 1/12/5 12/13/7
f 9/14/4 10/11/3 3/15/10
f 10/16/3 1/12/5 3/11/10
f 12/7/7 6/6/11 3/11/10
f 7/17/9 8/18/8 5/11/12
f 8/19/8 11/2/2 5/11/12
f 11/2/2 4/20/1 5/21/12
f 6/6/11 7/9/9 5/11/12
f 8/22/8 2/23/13 1/5/14
f 1/5/5 2/23/13 6/6/6
f 6/6/6 2/23/13 8/8/8
f 11/2/2 8/19/8 1/24/14 10/3/3
f 4/20/1 9/4/4 3/15/10 5/21/12
