# Blender 4.1.1
# www.blender.org
o spatula_collision_002
v -0.008684 0.006503 0.020514
v 0.021987 0.000963 0.046066
v -0.024957 0.003853 0.120162
v 0.024680 0.000872 0.120174
v -0.009223 0.000722 0.020512
v 0.008542 0.006487 0.020512
v 0.009080 0.000722 0.020512
v 0.024913 0.004069 0.057183
v -0.025043 0.000728 0.057543
v -0.025052 0.004056 0.056766
v -0.020951 0.005298 0.042967
v 0.021220 0.005223 0.044297
v -0.021634 0.000735 0.044808
v -0.000742 0.007203 0.025962
v -0.024826 0.000887 0.120174
v 0.024957 0.000943 0.057457
v 0.010404 -0.001327 0.053193
v 0.010239 -0.000364 0.122827
v -0.012270 -0.000393 0.122498
v -0.007415 0.001926 0.123250
v 0.012879 0.002470 0.122455
v 0.024773 0.003833 0.120167
v -0.007852 -0.001472 0.054332
vn 0.7495 -0.6038 -0.2714
vn 0.9904 -0.0006 -0.1382
vn 0.9930 -0.0082 -0.1182
vn 0.0791 -0.9964 -0.0297
vn 0.1589 -0.9872 -0.0165
vn -0.1335 -0.9904 -0.0362
vn -0.0480 -0.9987 -0.0181
vn -0.1292 -0.9915 -0.0124
vn -0.0260 0.3505 0.9362
vn -0.6361 -0.5615 0.5293
vn -0.1421 -0.6919 0.7079
vn 0.6432 -0.5558 0.5268
vn 0.0893 0.4713 0.8775
vn 0.0819 -0.6713 0.7366
vn -0.9364 0.0190 -0.3504
vn -0.9638 -0.0460 -0.2628
vn -0.9074 0.1416 -0.3957
vn -0.7833 -0.0319 0.6208
vn -0.9990 -0.0438 0.0036
vn -1.0000 -0.0026 0.0015
vn -0.1176 -0.9913 -0.0595
vn 0.0003 0.8584 0.5129
vn -0.0010 0.8492 0.5280
vn -0.0819 0.9965 0.0144
vn -0.2788 0.9604 0.0035
vn 0.7955 -0.0075 0.6059
vn 0.4374 -0.5797 -0.6875
vn 0.2848 0.9586 0.0042
vn 0.0777 0.9969 0.0146
vn -0.4099 0.5971 -0.6895
vn -0.0033 0.9986 -0.0536
vn 0.4110 0.6018 -0.6848
vn 0.9074 0.1643 -0.3868
vn -0.9641 -0.0631 -0.2581
vn -0.4576 -0.4799 -0.7485
vn 0.0004 0.9994 0.0356
vt 0.614657 0.463431
vt 0.638662 0.457768
vt 0.639028 0.464228
vt 0.348435 0.613639
vt 0.362277 0.638028
vt 0.340878 0.643555
vt 0.362307 0.545802
vt 0.346801 0.575866
vt 0.338317 0.535068
vt 0.437309 0.739961
vt 0.401062 0.737328
vt 0.425600 0.734679
vt 0.503895 0.737328
vt 0.479378 0.740436
vt 0.473855 0.734800
vt 0.358551 0.496766
vt 0.332211 0.492566
vt 0.361765 0.487309
vt 0.201714 0.508148
vt 0.202365 0.514007
vt 0.000000 0.000000
vt 0.205158 0.566381
vt 0.209645 0.540647
vt 0.814028 0.609155
vt 0.503917 0.743221
vt 0.209586 0.642760
vt 0.204868 0.618525
vt 0.752879 0.659583
vt 0.319883 0.493999
vt 0.769157 0.462331
vt 0.768986 0.468223
vt 0.414365 0.479446
vt 0.738523 0.678804
vt 0.610905 0.454722
vt 0.401039 0.743221
vt 0.555094 0.461985
vt 0.555078 0.449981
vt 0.331408 0.499602
vt 0.738526 0.643130
vt 0.416264 0.572799
s 1
f 2/1/1 8/2/2 16/3/3
f 17/4/4 2/5/1 16/6/5
f 13/7/6 23/8/7 9/9/8
f 20/10/9 15/11/10 19/12/11
f 4/13/12 21/14/13 18/15/14
f 13/16/15 10/17/16 11/18/17
f 20/10/9 18/15/14 21/14/13
f 3/19/18 9/9/19 15/20/10
f 9/9/8 23/21/7 15/20/10
f 23/21/7 19/22/11 15/23/10
s 0
f 10/24/20 9/9/20 3/19/20
f 13/16/21 5/21/21 23/8/21
s 1
f 21/14/13 22/25/22 3/21/23
f 21/14/13 3/21/23 20/10/9
f 17/4/4 4/26/12 18/27/14
s 0
f 14/28/24 11/21/24 3/21/24
f 11/21/25 10/29/25 3/19/25
s 1
f 22/30/26 4/31/12 16/3/3 8/2/2
f 7/21/27 2/5/1 17/4/4
f 16/3/5 4/31/12 17/4/4
s 0
f 8/2/28 12/21/28 22/30/28
f 12/21/29 14/21/29 22/30/29
s 1
f 1/32/30 11/18/17 14/28/31
f 6/33/32 14/28/31 12/21/33
f 2/1/1 12/34/33 8/2/2
f 20/10/9 3/35/18 15/11/10
f 7/36/27 6/37/32 12/34/33 2/1/1
f 4/13/12 22/25/26 21/14/13
f 13/16/15 9/38/34 10/17/16
f 6/33/32 1/39/30 14/28/31
f 19/12/11 18/15/14 20/10/9
f 23/8/7 17/4/4 18/27/14 19/22/11
f 7/21/27 17/4/4 23/8/7 5/21/35
f 5/21/35 13/16/15 11/18/17 1/32/30
f 6/33/32 7/36/27 5/40/35 1/39/30
s 0
f 14/28/36 3/21/36 22/21/36
