# Blender 4.1.1
# www.blender.org
o mug_collision.016
v 0.080453 0.037982 0.007497
v 0.082953 0.037980 0.004997
v 0.082953 0.066208 0.004997
v 0.080453 0.066206 0.007497
v 0.074200 0.037987 0.004997
v 0.076700 0.037985 0.007497
v 0.076700 0.066203 0.007497
v 0.074200 0.066201 0.004997
v 0.082953 0.037980 -0.004997
v 0.080453 0.037982 -0.007497
v 0.080453 0.066206 -0.007497
v 0.082953 0.066208 -0.004997
v 0.076700 0.037985 -0.007497
v 0.074200 0.037987 -0.004997
v 0.074200 0.066201 -0.004997
v 0.076700 0.066203 -0.007497
vn 1.0000 -0.0000 -0.0000
vn -0.0000 -0.0000 1.0000
vn -0.0008 -1.0000 -0.0000
vn 0.7071 -0.0000 0.7071
vn -0.7071 -0.0000 0.7071
vn -1.0000 -0.0000 -0.0000
vn 0.7071 -0.0000 -0.7071
vn -0.0008 1.0000 -0.0000
vn -0.7071 -0.0000 -0.7071
vn -0.0000 -0.0000 -1.0000
vt 0.125000 0.541683
vt 0.125000 0.708317
vt 0.211583 0.708317
vt 0.211583 0.541683
vt 0.446404 0.250000
vt 0.446404 0.344638
vt 0.553596 0.356731
vt 0.553596 0.250000
vt 0.375000 0.041683
vt 0.375000 0.208317
vt 0.446403 0.250000
vt 0.553596 0.250000
vt 0.625000 0.208317
vt 0.625000 0.041683
vt 0.553596 0.000000
vt 0.446404 0.000000
vt 0.375000 0.336583
vt 0.375000 0.250000
vt 0.625000 0.250000
vt 0.625000 0.364786
vt 0.760214 0.541683
vt 0.760214 0.708317
vt 0.875000 0.708317
vt 0.875000 0.541683
vt 0.375000 1.000000
vt 0.446404 1.000000
vt 0.446404 0.905362
vt 0.375000 0.913417
vt 0.375000 0.541683
vt 0.375000 0.708317
vt 0.446404 0.750000
vt 0.553596 0.750000
vt 0.625000 0.708317
vt 0.625000 0.541683
vt 0.553596 0.500000
vt 0.446403 0.500000
vt 0.760214 0.750000
vt 0.875000 0.750000
vt 0.553596 1.000000
vt 0.553596 0.893269
s 0
f 2/1/1 9/2/1 12/3/1 3/4/1
f 1/5/2 4/6/2 7/7/2 6/8/2
f 9/9/3 2/10/3 1/11/3 6/12/3 5/13/3 14/14/3 13/15/3 10/16/3
f 3/17/4 4/6/4 1/5/4 2/18/4
f 5/19/5 6/8/5 7/7/5 8/20/5
f 8/21/6 15/22/6 14/23/6 5/24/6
f 9/25/7 10/26/7 11/27/7 12/28/7
f 3/29/8 12/30/8 11/31/8 16/32/8 15/33/8 8/34/8 7/35/8 4/36/8
f 15/22/9 16/37/9 13/38/9 14/23/9
f 11/27/10 10/26/10 13/39/10 16/40/10
