# Blender 4.1.1
# www.blender.org
o mug_collision.015
v 0.062066 0.019896 0.004997
v 0.064307 0.016885 0.007497
v 0.044448 0.020949 0.007497
v 0.044448 0.023501 0.004997
v 0.064307 0.016885 -0.007497
v 0.062066 0.019896 -0.004997
v 0.044448 0.023501 -0.004997
v 0.044448 0.020949 -0.007497
v 0.066644 0.013745 -0.004997
v 0.064865 0.016136 -0.007497
v 0.044447 0.014826 -0.007497
v 0.044447 0.012321 -0.004997
v 0.064865 0.016136 0.007497
v 0.066644 0.013745 0.004997
v 0.044447 0.012321 0.004997
v 0.044447 0.014826 0.007497
vn 0.8022 0.5971 -0.0000
vn 0.2005 0.9797 -0.0000
vn -0.0000 -0.0000 -1.0000
vn 0.1417 0.6928 0.7071
vn 0.1417 0.6928 -0.7071
vn -0.0000 -0.0000 1.0000
vn 0.0453 -0.7057 -0.7071
vn -1.0000 0.0001 -0.0000
vn 0.0453 -0.7057 0.7071
vn 0.0640 -0.9979 -0.0000
vt 0.375000 0.041683
vt 0.472179 0.000000
vt 0.502650 0.000000
vt 0.625000 0.041683
vt 0.625000 0.208317
vt 0.502650 0.250000
vt 0.472179 0.250000
vt 0.375000 0.208317
vt 0.687190 0.541683
vt 0.875000 0.541683
vt 0.875000 0.708317
vt 0.687190 0.708317
vt 0.431019 0.847133
vt 0.567940 0.822468
vt 0.502650 1.000000
vt 0.472179 1.000000
vt 0.692528 0.500000
vt 0.875000 0.500000
vt 0.875000 0.750000
vt 0.692528 0.750000
vt 0.567940 0.427532
vt 0.431019 0.402867
vt 0.125000 0.708317
vt 0.267775 0.708317
vt 0.266744 0.750000
vt 0.135417 0.750000
vt 0.375000 0.541683
vt 0.431019 0.500000
vt 0.567940 0.500000
vt 0.625000 0.541683
vt 0.625000 0.708317
vt 0.567940 0.750000
vt 0.431019 0.750000
vt 0.375000 0.708317
vt 0.267775 0.541683
vt 0.125000 0.541683
vt 0.135417 0.500000
vt 0.266744 0.500000
s 0
f 9/1/1 10/2/1 5/3/1 6/4/1 1/5/1 2/6/1 13/7/1 14/8/1
f 4/9/2 1/10/2 6/11/2 7/12/2
f 11/13/3 8/14/3 5/15/3 10/16/3
f 1/10/4 4/9/4 3/17/4 2/18/4
f 7/12/5 6/11/5 5/19/5 8/20/5
f 13/7/6 2/6/6 3/21/6 16/22/6
f 9/23/7 12/24/7 11/25/7 10/26/7
f 15/27/8 16/28/8 3/29/8 4/30/8 7/31/8 8/32/8 11/33/8 12/34/8
f 15/35/9 14/36/9 13/37/9 16/38/9
f 14/36/10 15/35/10 12/24/10 9/23/10
