# Blender 4.1.1
# www.blender.org
o mug_collision.012
v 0.074200 0.066201 0.004997
v 0.076700 0.066203 0.007497
v 0.064307 0.087302 0.007497
v 0.062066 0.084292 0.004997
v 0.076700 0.066203 -0.007497
v 0.074200 0.066201 -0.004997
v 0.062066 0.084292 -0.004997
v 0.064307 0.087302 -0.007497
v 0.082953 0.066208 -0.004997
v 0.080453 0.066206 -0.007497
v 0.064865 0.088052 -0.007497
v 0.066644 0.090443 -0.004997
v 0.073795 0.081603 -0.007497
v 0.077268 0.080807 -0.004997
v 0.080453 0.066206 0.007497
v 0.082953 0.066208 0.004997
v 0.066644 0.090443 0.004997
v 0.064865 0.088052 0.007497
v 0.073795 0.081603 0.007497
v 0.077268 0.080807 0.004997
vn 0.0008 -1.0000 -0.0000
vn -0.8305 -0.5570 -0.0000
vn -0.0000 -0.0000 -1.0000
vn -0.8022 0.5971 -0.0000
vn -0.0000 -0.0000 1.0000
vn -0.5636 -0.3528 0.7469
vn -0.5636 -0.3528 -0.7469
vn 0.4690 0.5701 -0.6745
vn 0.6396 0.2632 -0.7223
vn 0.6719 0.7407 -0.0000
vn 0.6396 0.2632 0.7223
vn 0.4690 0.5701 0.6745
vn 0.9318 0.3629 -0.0000
vt 0.375000 0.041683
vt 0.375000 0.208317
vt 0.464785 0.250000
vt 0.539070 0.250000
vt 0.625000 0.208317
vt 0.625000 0.041683
vt 0.539070 0.000000
vt 0.464785 0.000000
vt 0.760214 0.541683
vt 0.760214 0.708317
vt 0.875000 0.708317
vt 0.875000 0.541683
vt 0.433070 0.863726
vt 0.432117 0.906973
vt 0.566499 0.891814
vt 0.432117 0.906973
vt 0.464786 1.000000
vt 0.539070 1.000000
vt 0.375000 0.541683
vt 0.375000 0.708317
vt 0.433070 0.750000
vt 0.543491 0.750000
vt 0.625000 0.708317
vt 0.625000 0.541683
vt 0.543491 0.500000
vt 0.433070 0.500000
vt 0.432117 0.359711
vt 0.433070 0.403236
vt 0.543491 0.423127
vt 0.625000 0.250000
vt 0.539070 0.250000
vt 0.566499 0.358186
vt 0.625000 0.364786
vt 0.625000 0.885214
vt 0.625000 1.000000
vt 0.464786 0.250000
vt 0.432117 0.343027
vt 0.375000 0.913417
vt 0.375000 0.857225
vt 0.375000 1.000000
vt 0.211583 0.541683
vt 0.211583 0.708317
vt 0.267775 0.708317
vt 0.267775 0.541683
vt 0.375000 0.336583
vt 0.375000 0.250000
vt 0.375000 0.392775
vt 0.125000 0.541683
vt 0.125000 0.708317
s 0
f 9/1/1 16/2/1 15/3/1 2/4/1 1/5/1 6/6/1 5/7/1 10/8/1
f 4/9/2 7/10/2 6/11/2 1/12/2
f 11/13/3 13/14/3 8/15/3
f 13/16/3 10/17/3 5/18/3 8/15/3
f 17/19/4 12/20/4 11/21/4 8/22/4 7/23/4 4/24/4 3/25/4 18/26/4
f 19/27/5 18/28/5 3/29/5
f 1/30/6 2/31/6 3/32/6 4/33/6
f 7/34/7 8/15/7 5/18/7 6/35/7
f 15/36/5 19/37/5 3/32/5 2/31/5
f 14/38/8 13/14/8 11/13/8 12/39/8
f 9/40/9 10/17/9 13/16/9 14/38/9
f 20/41/10 14/42/10 12/43/10 17/44/10
f 20/45/11 19/37/11 15/36/11 16/46/11
f 17/47/12 18/28/12 19/27/12 20/45/12
f 16/48/13 9/49/13 14/42/13 20/41/13
