# Blender 4.1.1
# www.blender.org
o mug_collision.005
v -0.000007 0.013103 0.037310
v -0.000007 0.104668 0.037310
v -0.000007 0.013103 0.045983
v -0.000007 0.104668 0.045983
v 0.021744 0.013103 0.031501
v 0.021744 0.104668 0.031501
v 0.025856 0.013103 0.038696
v 0.025856 0.104668 0.038696
v 0.013859 0.013103 0.044023
v 0.013859 0.104668 0.044023
vn 0.4058 -0.0000 0.9140
vn -0.0000 -1.0000 -0.0000
vn 0.1400 -0.0000 0.9902
vn -0.0000 1.0000 -0.0000
vn 0.8682 -0.0000 -0.4962
vn -0.2580 -0.0000 -0.9661
vn -1.0000 -0.0000 -0.0000
vt 0.625000 0.349779
vt 0.375000 0.349779
vt 0.375000 0.500000
vt 0.224779 0.500000
vt 0.231915 0.750000
vt 0.625000 0.250000
vt 0.375000 0.250000
vt 0.125000 0.500000
vt 0.125000 0.750000
vt 0.625000 0.500000
vt 0.625000 0.750000
vt 0.625000 1.000000
vt 0.775221 0.500000
vt 0.625000 0.000000
vt 0.625000 0.893085
vt 0.375000 0.893085
vt 0.375000 1.000000
vt 0.375000 0.750000
vt 0.375000 0.000000
s 0
f 10/1/1 9/2/1 7/3/1
f 9/4/2 5/5/2 7/3/2
f 4/6/3 3/7/3 9/2/3
f 9/4/2 3/8/2 1/9/2
f 10/1/1 7/3/1 8/10/1
f 4/6/3 9/2/3 10/1/3
f 9/4/2 1/9/2 5/5/2
f 6/11/4 2/12/4 4/6/4
f 6/11/4 4/6/4 10/13/4
f 6/11/4 10/13/4 8/10/4
f 7/3/5 6/11/5 8/10/5
f 2/14/6 6/15/6 5/16/6 1/17/6
f 7/3/5 5/18/5 6/15/5
f 4/6/7 2/14/7 1/19/7 3/7/7
