# Blender 4.1.1
# www.blender.org
o mug_collision.009
v -0.031501 0.013103 -0.021744
v -0.031501 0.104668 -0.021744
v -0.038696 0.013103 -0.025856
v -0.038696 0.104668 -0.025856
v -0.021744 0.013103 -0.031501
v -0.021744 0.104668 -0.031501
v -0.025856 0.013103 -0.038696
v -0.025856 0.104668 -0.038696
vn -0.4962 -0.0000 0.8682
vn 0.8682 -0.0000 -0.4962
vn 0.7071 -0.0000 0.7071
vn -0.0000 1.0000 -0.0000
vn -0.7071 -0.0000 -0.7071
vn -0.0000 -1.0000 -0.0000
vt 0.375000 0.000000
vt 0.625000 0.000000
vt 0.625000 0.250000
vt 0.375000 0.250000
vt 0.375000 0.500000
vt 0.625000 0.500000
vt 0.625000 0.750000
vt 0.375000 0.750000
vt 0.375000 0.893085
vt 0.625000 0.893085
vt 0.625000 1.000000
vt 0.375000 1.000000
vt 0.775221 0.500000
vt 0.875000 0.500000
vt 0.875000 0.750000
vt 0.768085 0.750000
vt 0.625000 0.349779
vt 0.375000 0.349779
vt 0.125000 0.500000
vt 0.224779 0.500000
vt 0.231915 0.750000
vt 0.125000 0.750000
s 0
f 1/1/1 2/2/1 4/3/1 3/4/1
f 7/5/2 8/6/2 6/7/2 5/8/2
f 5/9/3 6/10/3 2/11/3 1/12/3
f 8/13/4 4/14/4 2/15/4 6/16/4
f 3/4/5 4/3/5 8/17/5 7/18/5
f 3/19/6 7/20/6 5/21/6 1/22/6
