# Blender 4.1.1
# www.blender.org
o table_collision.003
v 0.581068 0.240000 0.213596
v 0.544664 0.240000 0.255917
v -0.581068 0.240000 0.213596
v -0.544664 0.240000 0.255917
v 0.544664 0.200000 0.255917
v 0.581068 0.200000 0.213596
v -0.544664 0.200000 0.255917
v -0.581068 0.200000 0.213596
v 0.544664 0.240000 -0.250000
v 0.581068 0.240000 -0.213597
v 0.581068 0.200000 -0.213597
v 0.544664 0.200000 -0.250000
v -0.544664 0.240000 -0.250000
v -0.581068 0.240000 -0.213596
v -0.581068 0.200000 -0.213596
v -0.544664 0.200000 -0.250000
vn -0.0000 -0.0000 1.0000
vn -0.0000 -0.0000 -1.0000
vn 1.0000 -0.0000 -0.0000
vn -1.0000 -0.0000 -0.0000
vn 0.3922 -0.8320 -0.3922
vn 0.3922 0.8321 -0.3922
vn 0.3922 0.8320 -0.3922
vn 0.6376 -0.4323 -0.6376
vn -0.0000 1.0000 -0.0000
vn 0.4114 -0.8399 0.3539
vn 0.7581 -0.0000 0.6521
vn 0.7032 -0.3738 0.6049
vn -0.3922 0.8320 -0.3922
vn -0.7071 -0.0000 -0.7071
vn -0.6715 0.4640 0.5777
vn -0.4300 0.8236 0.3698
vn -0.0000 -1.0000 -0.0000
vn -0.4114 -0.8399 0.3539
vn -0.7032 -0.3738 0.6049
vt 0.561848 0.581185
vt 0.561848 0.600976
vt 0.022890 0.600976
vt 0.022890 0.581186
vt 0.004877 0.982675
vt 0.004877 0.962885
vt 0.543814 0.962885
vt 0.543814 0.982675
vt 0.835433 0.984669
vt 0.624087 0.984669
vt 0.624087 0.964880
vt 0.835433 0.964880
vt 0.931701 0.004886
vt 0.951490 0.004886
vt 0.951490 0.216232
vt 0.931701 0.216232
vt 0.000000 0.000000
vt 0.569654 0.570880
vt 0.605674 0.570880
vt 0.605674 0.590669
vt 0.004879 0.560247
vt 0.004879 0.348888
vt 0.951494 0.224879
vt 0.930826 0.926886
s 1
f 4/1/1 7/2/1 5/3/1 2/4/1
f 16/5/2 13/6/2 9/7/2 12/8/2
f 6/9/3 11/10/3 10/11/3 1/12/3
f 8/13/4 3/14/4 14/15/4 15/16/4
f 12/17/5 9/18/6 10/19/7 11/20/8
f 1/21/9 10/22/7 9/17/6
f 6/17/10 1/23/11 2/4/11 5/3/12
f 14/24/13 13/6/13 16/17/14 15/17/14
f 3/17/15 4/1/16 2/4/9
s 0
f 3/17/9 2/4/9 1/23/9
f 11/17/17 15/17/17 16/17/17
s 1
f 11/17/8 16/17/17 12/8/5
f 4/1/16 3/17/15 8/17/18 7/2/19
f 14/15/13 3/14/9 13/17/13
f 5/3/12 11/10/17 6/9/10
s 0
f 15/17/17 11/17/17 5/3/17 7/2/17
s 1
f 1/17/9 9/17/6 13/17/13 3/17/9
f 15/17/17 7/2/19 8/17/18
