# Blender 4.1.1
# www.blender.org
o table_collision.001
v -0.600000 0.890000 -0.300000
v 0.600000 0.890000 -0.300000
v 0.600000 0.890000 0.300000
v -0.600000 0.890000 0.300000
v 0.600000 0.950000 0.300000
v -0.600000 0.950000 0.300000
v -0.600000 0.950000 -0.300000
v 0.600000 0.950000 -0.300000
vn 1.0000 -0.0000 -0.0000
vn 0.5774 0.5774 -0.5774
vn 0.7071 0.7071 -0.0000
vn -0.0000 -1.0000 -0.0000
vn -0.0000 -0.0000 1.0000
vn -0.7071 0.7071 -0.0000
vn -0.5774 0.5774 -0.5774
vn -1.0000 -0.0000 -0.0000
vn -0.0000 -0.0000 -1.0000
vt 0.004883 0.905738
vt 0.953606 0.301781
vt 0.004883 0.291838
vt 0.004883 0.321524
vt 0.598593 0.905738
vt 0.004883 0.608883
vt 0.598593 0.608883
vt 0.598591 0.321524
vt 0.598591 0.291838
vt 0.000000 0.000000
vt 0.886421 0.004879
vt 0.923887 0.598566
vt 0.886421 0.598566
vt 0.923887 0.004879
s 1
f 2/1/1 8/2/2 5/3/3 3/4/1
f 1/5/4 2/1/4 3/6/4 4/7/4
f 4/8/5 3/4/5 5/3/5 6/9/5
f 6/9/6 7/10/7 1/5/8 4/7/8
f 5/3/3 8/11/2 7/10/7 6/9/6
f 1/12/9 7/13/7 8/11/2 2/14/9
