# Blender 4.1.1
# www.blender.org
o table_collision.006
v -0.581068 0.890000 0.213596
v -0.544664 0.890000 0.213596
v -0.544664 0.000000 0.250000
v -0.581068 -0.000000 0.213596
v -0.544664 -0.000000 0.213596
v -0.544664 0.890000 0.250000
v -0.581068 0.890000 0.250000
v -0.581068 0.000000 0.250000
vn -0.0000 -0.0000 -1.0000
vn 1.0000 -0.0000 -0.0000
vn -0.0000 -0.0000 1.0000
vn -1.0000 -0.0000 -0.0000
vt 0.989101 0.820915
vt 0.989101 0.838927
vt 0.606401 0.838927
vt 0.606401 0.820915
vt 0.989101 0.766879
vt 0.989101 0.784891
vt 0.606401 0.784891
vt 0.606401 0.766879
vt 0.989101 0.802903
vt 0.606401 0.802903
s 1
f 1/1/1 2/2/1 5/3/1 4/4/1
f 2/5/2 6/6/2 3/7/2 5/8/2
f 6/6/3 7/9/3 8/10/3 3/7/3
f 7/9/4 1/1/4 4/4/4 8/10/4
