# Blender 4.1.1
# www.blender.org
o detergent_collision.001
v -0.015384 0.207894 -0.012030
v 0.007211 0.208049 -0.016661
v -0.006183 0.207740 0.016589
v 0.013601 0.207825 0.013461
v 0.020922 0.206882 -0.003769
v -0.020794 0.207064 0.004202
v 0.020170 -0.000097 0.015310
v -0.016091 0.000000 -0.017426
v -0.020141 -0.000096 0.015489
v 0.009343 -0.000033 -0.020077
v 0.028122 -0.000067 -0.004833
v -0.028237 -0.000063 -0.004799
v -0.000053 0.000000 0.020738
v -0.000053 0.007834 -0.028470
v 0.034489 0.007834 -0.012732
v 0.020994 0.007834 0.024492
v 0.038636 0.008071 0.006684
v 0.020994 0.007834 -0.024492
v -0.020053 0.011161 0.027909
v -0.000053 0.007834 0.028470
v -0.020782 0.007834 -0.024791
v -0.034596 0.007834 -0.012732
v -0.038673 0.007834 0.000000
v -0.034596 0.007834 0.012732
v 0.048911 0.180086 -0.000000
v -0.024016 0.190267 -0.028403
v 0.055645 0.048150 0.015375
v 0.055645 0.048150 -0.015375
v 0.035353 0.035480 0.028837
v 0.060928 0.053368 0.000000
v 0.035407 0.035472 -0.028793
v -0.023982 0.029262 -0.029588
v -0.047475 0.029880 -0.015076
v -0.054738 0.032518 0.000000
v -0.047497 0.029822 0.014991
v -0.029885 0.078464 0.029300
v 0.005263 0.028973 0.033671
v 0.005261 0.028974 -0.033671
v -0.030231 0.110978 -0.028556
v -0.044959 0.181827 -0.014530
v -0.050207 0.178093 0.000017
v -0.048079 0.113412 0.015014
v 0.025189 0.189491 -0.028188
v -0.023743 0.190392 0.028436
v 0.000747 0.191002 0.032437
v -0.043278 0.183782 0.014829
v 0.043221 0.183815 0.014958
v 0.000866 0.190842 -0.032497
v 0.043199 0.183834 -0.014967
v 0.025048 0.189633 0.028214
vn -0.4217 0.7602 -0.4943
vn -0.3951 0.4152 -0.8194
vn -0.7871 0.3845 -0.4823
vn 0.7654 0.4107 -0.4954
vn 0.6086 0.7819 -0.1349
vn 0.9302 0.3671 0.0012
vn 0.7665 0.4146 0.4905
vn 0.3506 0.8032 0.4815
vn -0.7670 0.4109 0.4928
vn -0.4015 0.4154 0.8163
vn -0.5582 0.8169 0.1451
vn -0.9453 0.3255 0.0201
vn 0.4562 -0.1879 -0.8698
vn 0.6698 -0.6110 -0.4221
vn 0.3588 -0.5529 -0.7521
vn 0.0337 -0.1257 -0.9915
vn -0.0202 -0.4906 -0.8712
vn 0.8322 -0.1798 -0.5244
vn 0.7462 -0.6255 0.2279
vn 0.0317 -0.1202 0.9922
vn 0.3620 -0.5267 0.7691
vn 0.4622 -0.1987 0.8642
vn -0.3552 -0.1478 -0.9230
vn -0.3427 -0.5328 -0.7738
vn -0.3271 -0.4123 0.8503
vn 0.0165 -0.5127 0.8584
vn 0.8277 -0.1683 0.5354
vn 0.9924 -0.1226 -0.0037
vn -0.7558 -0.2472 0.6063
vn -0.3897 -0.0058 0.9209
vn -0.8163 0.0323 0.5768
vn -0.3816 0.0105 -0.9243
vn -0.7639 -0.2404 -0.5988
vn 0.4174 0.4075 -0.8122
vn 0.0209 0.3664 0.9302
vn -0.1019 0.9032 0.4169
vn 0.4021 0.4072 0.8201
vn 0.3797 -0.9164 -0.1263
vn 0.3914 -0.7569 0.5233
vn -0.0035 -1.0000 -0.0007
vn 0.1037 -0.8979 -0.4278
vn 0.0005 -1.0000 0.0009
vn 0.0023 -1.0000 0.0001
vn -0.0003 -1.0000 -0.0028
vn -0.0020 -1.0000 -0.0069
vn 0.1726 0.7366 -0.6539
vn 0.0971 0.9952 -0.0132
vn -0.6369 -0.5935 -0.4920
vn -0.5487 -0.8208 -0.1590
vn -0.7410 -0.6712 0.0190
vn -0.3850 -0.7550 0.5308
vn -0.6356 -0.6441 0.4257
vn -0.9725 -0.2329 -0.0047
vn -0.0179 0.9996 0.0231
vn -0.0041 0.3658 -0.9307
vn -0.2645 -0.7704 -0.5801
vn -0.0025 -0.7305 0.6829
vt 0.317252 0.027800
vt 0.281912 0.041864
vt 0.266185 0.020658
vt 0.305154 0.133114
vt 0.348289 0.100945
vt 0.312803 0.158246
vt 0.720817 0.122420
vt 0.675628 0.095770
vt 0.691170 0.074867
vt 0.754911 0.019251
vt 0.742587 0.038647
vt 0.715138 0.012243
vt 0.309520 0.006115
vt 0.261164 0.006041
vt 0.076568 0.127176
vt 0.031662 0.129233
vt 0.041123 0.104477
vt 0.070718 0.085773
vt 0.047834 0.074859
vt 0.085635 0.162683
vt 0.019451 0.147135
vt 0.896151 0.079304
vt 0.962832 0.096398
vt 0.930406 0.117159
vt 0.082944 0.053078
vt 0.055133 0.046917
vt 0.945505 0.045058
vt 0.956698 0.069323
vt 0.922143 0.149638
vt 0.977355 0.127627
vt 0.919774 0.173390
vt 0.918592 0.021608
vt 0.869544 0.049417
vt 0.832094 0.023316
vt 0.182064 0.051720
vt 0.089599 0.022675
vt 0.301250 0.102393
vt 0.761783 0.006035
vt 0.732103 0.064633
vt 0.705583 0.042067
vt 0.724358 0.094015
vt 0.713668 0.145609
vt 0.088239 0.188649
vt 0.007496 0.054621
vt 0.697842 0.364528
vt 0.392255 0.174045
vt 0.716832 0.344160
vt 0.692648 0.307249
vt 0.664339 0.368083
vt 0.971328 0.065749
vt 0.846766 0.147083
vt 0.963368 0.022422
vt 0.962669 0.006231
vt 0.296580 0.145397
vt 0.651640 0.300814
vt 0.094508 0.016645
vt 0.332050 0.069963
vt 0.265068 0.033373
vt 0.059986 0.022947
vt 0.061747 0.005830
vt 0.945604 0.021870
vt 0.914618 0.006220
vt 0.093905 0.005839
vt 0.347133 0.002912
vt 0.000000 0.000000
vt 0.893327 0.081402
vt 0.293011 0.070402
vt 0.117135 0.088092
vt 0.715238 0.328144
vt 0.944002 0.006228
s 1
f 1/1/1 26/2/2 40/3/3
f 49/4/4 5/5/5 25/6/6
f 47/7/7 5/8/5 4/9/8
f 46/10/9 44/11/10 6/12/11
f 6/13/11 40/3/3 41/14/12
f 31/15/13 15/16/14 18/17/15
f 38/18/16 18/17/15 14/19/17
f 28/20/18 17/21/19 15/16/14
f 37/22/20 16/23/21 29/24/22
f 32/25/23 14/19/17 21/26/24
f 19/27/25 20/28/26 37/22/20
f 27/29/27 17/30/19 30/31/28
f 29/24/22 17/30/19 27/29/27
f 35/32/29 36/33/30 42/34/31
f 39/35/32 33/36/33 40/3/3
f 5/5/5 49/4/4 43/37/34
f 46/10/9 6/12/11 41/38/12
f 45/39/35 3/40/36 44/11/10
f 47/7/7 4/9/8 50/41/37
f 47/7/7 25/42/6 5/8/5
f 6/13/11 1/1/1 40/3/3
f 31/15/13 28/20/18 15/16/14
f 38/18/16 31/15/13 18/17/15
f 28/20/18 30/43/28 17/21/19
f 37/22/20 20/28/26 16/23/21
f 32/25/23 38/18/16 14/19/17
f 29/24/22 16/23/21 17/30/19
f 39/35/32 32/25/23 33/36/33
f 11/44/38 17/30/19 7/45/39
f 7/45/40 10/46/41 11/47/38
f 10/48/41 14/19/17 18/17/15
f 13/49/42 10/46/41 7/45/40
f 13/50/42 9/51/43 10/46/41
f 9/52/43 12/53/44 10/46/41
f 12/54/44 8/55/45 10/48/41
f 30/43/28 25/42/6 47/7/7 27/29/27
f 2/56/46 5/5/5 43/37/34
s 0
f 2/57/47 4/58/47 5/5/47
s 1
f 36/33/30 19/27/25 37/22/20
f 6/12/11 3/40/36 4/58/8
f 22/59/48 12/54/49 23/60/50
f 9/51/51 19/27/25 24/61/52
f 24/61/52 19/27/25 35/32/29
f 32/25/23 39/35/32 26/2/2
f 3/40/36 6/12/11 44/11/10
f 42/34/31 34/62/53 35/32/29
f 34/63/53 40/3/3 33/36/33
f 41/14/12 40/3/3 34/63/53
f 42/34/31 41/38/12 34/63/53
f 47/7/7 50/41/37 29/24/22 27/29/27
f 31/15/13 43/37/34 49/4/4 28/20/18
s 0
f 4/58/54 2/57/54 1/64/54 6/65/54
s 1
f 44/11/10 36/33/30 37/66/20 45/39/35
f 48/67/55 26/2/2 1/1/1 2/56/46
f 43/37/34 31/15/13 38/18/16 48/67/55
f 8/55/56 21/26/24 14/19/17 10/48/41
f 7/45/39 17/30/19 16/23/21
f 38/68/16 32/25/23 26/2/2 48/67/55
f 2/56/46 43/37/34 48/67/55
f 20/28/26 19/27/25 9/51/51 13/65/57
f 20/28/26 13/49/57 7/45/39 16/23/21
f 30/43/28 28/20/18 49/4/4 25/6/6
f 35/32/29 34/63/53 23/60/50 24/61/52
f 45/39/35 50/41/37 4/9/8 3/40/36
f 11/69/38 10/48/41 18/17/15 15/16/14
f 40/3/3 26/2/2 39/65/32
f 46/10/9 42/34/31 36/65/30 44/11/10
f 15/16/14 17/21/19 11/44/38
f 22/59/48 33/36/33 32/25/23 21/26/24
f 23/60/50 34/63/53 33/36/33 22/59/48
f 35/32/29 19/27/25 36/33/30
f 12/53/49 9/52/51 24/61/52 23/70/50
f 12/54/49 22/59/48 21/26/24 8/55/56
f 50/41/37 45/39/35 37/22/20 29/24/22
f 42/65/31 46/10/9 41/38/12
