# Blender 4.1.1
# www.blender.org
o saucepan_collision_handle
v -0.209460 0.071974 -0.011654
v -0.209552 0.072057 0.010767
v -0.214664 0.072892 0.005089
v -0.214774 0.072903 -0.005826
v -0.203729 0.073612 0.011958
v -0.204113 0.071544 -0.013380
v -0.204234 0.071562 0.012358
v -0.158440 0.069877 -0.000471
v -0.213911 0.075470 0.004951
v -0.214013 0.075483 -0.005711
v -0.209276 0.077011 -0.004203
v -0.204372 0.076192 0.007527
v -0.209303 0.074429 -0.011273
v -0.209290 0.074436 0.010426
v -0.064379 0.045817 -0.008421
v -0.064379 0.049279 0.010234
v -0.064379 0.049235 -0.010150
v -0.204478 0.076208 -0.008543
v -0.096170 0.059245 0.006982
v -0.096053 0.059227 -0.007042
v -0.095309 0.059876 -0.000029
v -0.203778 0.073615 -0.012939
v -0.064379 0.045849 0.008525
v -0.064379 0.052155 -0.008564
v -0.064377 0.052520 0.008724
v -0.064379 0.041743 0.000118
v -0.215974 0.073240 -0.000353
v -0.215399 0.075477 -0.000380
v -0.210119 0.077107 0.001954
vn -0.4962 -0.5242 -0.6921
vn -0.0171 0.6125 -0.7903
vn -0.1685 -0.3538 -0.9200
vn -0.1093 0.9897 0.0920
vn -0.6351 0.6740 -0.3773
vn -0.7529 0.6582 -0.0011
vn -0.8885 -0.1006 -0.4477
vn -0.3913 0.5752 -0.7183
vn -0.8838 -0.0970 0.4576
vn -0.3768 0.5875 0.7161
vn -0.6265 0.6709 0.3968
vn -0.5222 -0.4609 0.7175
vn -0.0075 0.6080 0.7939
vn -0.0861 0.9875 -0.1320
vn 0.0511 0.9547 -0.2931
vn -0.8962 -0.4436 0.0098
vn 0.1549 0.9879 -0.0025
vn 0.5995 -0.5972 -0.5329
vn 0.6083 -0.0667 -0.7909
vn 0.6839 0.5749 -0.4491
vn 0.6782 0.5845 0.4454
vn 0.1726 0.9105 -0.3757
vn 0.1890 0.9819 0.0105
vn 0.6121 -0.0788 0.7868
vn 0.5978 -0.5853 0.5478
vn 0.5761 -0.8173 0.0133
vn -0.1066 0.2658 0.9581
vn -0.1749 -0.9402 0.2922
vn -0.2016 -0.9787 0.0376
vn -0.2029 -0.9792 0.0011
vn 0.1608 0.9173 0.3642
vn 0.0509 0.9579 0.2825
vt 0.680011 0.983796
vt 0.680758 0.973642
vt 0.683805 0.974319
vt 0.656528 0.982313
vt 0.668382 0.989209
vt 0.659972 0.991639
vt 0.670039 0.992720
vt 0.677340 0.982080
vt 0.649814 0.992454
vt 0.642802 0.981935
vt 0.651562 0.989001
vt 0.640098 0.983595
vt 0.639532 0.973461
vt 0.666046 0.981673
vt 0.672350 0.974328
vt 0.659911 0.995299
vt 0.670858 0.922005
vt 0.960776 0.638742
vt 0.967476 0.637077
vt 0.674847 0.747984
vt 0.642609 0.748200
vt 0.671935 0.778601
vt 0.658922 0.777455
vt 0.636137 0.749448
vt 0.926352 0.638637
vt 0.943432 0.642697
vt 0.000000 0.000000
vt 0.926200 0.426238
vt 0.934409 0.418589
vt 0.951419 0.418227
vt 0.959840 0.426127
vt 0.942885 0.416082
vt 0.645874 0.778844
vt 0.647994 0.974029
vt 0.229869 0.333389
vt 0.963030 0.433882
vt 0.636505 0.974255
vt 0.923303 0.434284
vt 0.919688 0.637010
s 1
f 1/1/1 22/2/2 6/3/3
f 29/4/4 10/5/5 28/6/6
f 4/7/7 13/8/8 1/1/1
f 3/9/9 14/10/10 9/11/11
f 2/12/12 5/13/13 14/10/10
f 13/8/8 11/14/14 18/15/15
f 14/10/10 29/4/4 9/11/11
f 3/9/9 28/6/6 27/16/16
f 4/7/7 28/6/6 10/5/5
f 9/11/11 29/4/4 28/6/6
f 8/17/17 11/14/14 29/4/4
f 15/18/18 17/19/19 24/20/20
f 15/18/18 24/20/20 25/21/21
f 24/20/20 20/22/22 21/23/23 25/21/21
f 15/18/18 25/21/21 16/24/24
f 15/18/18 16/24/24 23/25/25
f 15/18/18 23/25/25 26/26/26
f 23/25/25 7/27/27 26/26/26
s 0
f 7/27/28 2/27/28 26/26/28
s 1
f 2/28/12 3/29/9 26/26/29
s 0
f 3/29/30 4/27/30 26/26/30
s 1
f 4/30/7 1/31/1 26/26/26
f 27/32/16 4/30/7 3/29/9
f 22/2/2 20/22/22 24/20/20
f 18/15/15 20/22/22 22/2/2
f 19/33/31 5/27/13 25/21/21
f 19/33/31 12/34/32 5/13/13
f 8/27/17 21/23/23 20/22/22
f 18/15/15 8/17/17 20/22/22
f 8/35/17 19/33/31 21/23/23
f 11/14/14 8/27/17 18/15/15
f 8/35/17 12/34/32 19/33/31
f 8/35/17 29/4/4 12/34/32
f 1/31/1 6/36/3 15/18/18 26/26/26
f 1/1/1 13/8/8 22/2/2
f 29/4/4 11/14/14 10/5/5
f 4/7/7 10/5/5 13/8/8
f 3/9/9 2/12/12 14/10/10
f 2/12/12 7/37/27 5/13/13
f 12/34/32 14/10/10 5/13/13
f 22/2/2 13/8/8 18/15/15
f 13/8/8 10/5/5 11/14/14
f 14/10/10 12/34/32 29/4/4
f 3/9/9 9/11/11 28/6/6
f 21/23/23 19/33/31 25/21/21
f 4/7/7 27/16/16 28/6/6
f 6/3/3 22/2/2 24/20/20 17/19/19
f 17/19/19 15/18/18 6/36/3
f 7/38/27 23/25/25 16/39/24
f 25/21/21 5/13/13 7/37/27 16/24/24
