# Blender 4.1.1
# www.blender.org
o sandwich_collision
v 0.059701 0.001883 -0.030353
v -0.047375 0.000432 -0.052867
v 0.029264 -0.000245 -0.056762
v 0.036962 0.000951 -0.057551
v 0.054436 0.000569 0.066998
v 0.051151 0.000453 -0.049650
v -0.057538 0.001192 0.066957
v -0.058285 -0.000193 -0.026892
v -0.060350 0.001162 -0.026692
v -0.060113 0.000104 0.062006
v -0.034029 0.000328 -0.056958
v 0.060159 0.000003 -0.022089
v 0.059800 0.000958 0.062118
v 0.052343 0.028694 -0.051220
v 0.037919 0.032207 -0.056401
v 0.056624 0.036561 0.066706
v 0.050974 0.031908 -0.050881
v 0.059456 0.034543 -0.019131
v -0.052662 0.001474 -0.048090
v -0.050593 0.037181 -0.050879
v 0.060837 0.036405 0.059836
v -0.041711 0.025526 -0.056741
v 0.037474 0.029197 -0.058692
v 0.048086 0.024554 0.068155
v 0.055297 0.037406 0.005548
v 0.060797 0.031835 -0.027337
v -0.035912 0.037308 -0.058156
v -0.059412 0.030526 0.063479
v -0.055597 0.029160 0.067558
v -0.059863 0.037383 -0.020112
v -0.059315 0.036024 -0.031632
v -0.061480 0.029062 -0.020027
v 0.009129 0.036003 0.065301
vn -0.8734 0.2470 0.4197
vn -0.7447 -0.6140 0.2615
vn -0.3870 -0.5505 0.7397
vn 0.0027 -0.7881 -0.6155
vn 0.3153 -0.7245 -0.6130
vn 0.2877 -0.8358 -0.4676
vn -0.7823 0.5878 -0.2060
vn -0.7295 0.6824 -0.0451
vn -0.5322 0.6517 -0.5405
vn 0.2561 0.9666 -0.0122
vn 0.6142 0.5639 0.5520
vn 0.4601 0.8501 0.2564
vn -0.1365 -0.8934 -0.4281
vn -0.3160 -0.9469 -0.0594
vn -0.3915 -0.6928 -0.6057
vn 0.8806 -0.4400 -0.1762
vn 0.8910 -0.4397 -0.1136
vn -0.9976 0.0614 -0.0330
vn -0.7952 -0.6012 -0.0794
vn 0.6638 0.1969 -0.7215
vn 0.1749 0.8187 -0.5469
vn 0.6148 0.4305 -0.6608
vn -0.6357 -0.6085 -0.4750
vn -0.0125 0.9996 0.0263
vn 0.0004 0.9992 0.0407
vn -0.2596 0.8066 -0.5311
vn -0.3332 -0.0225 -0.9426
vn -0.3513 0.4793 0.8043
vn -0.0816 0.9933 0.0819
vn -0.0752 0.9924 0.0973
vn -0.0597 0.9960 0.0666
vn -0.1006 0.9171 0.3858
vn 0.5423 0.8359 -0.0851
vn 0.0892 0.8796 -0.4672
vn 0.0616 0.9916 -0.1135
vn 0.0338 0.9971 -0.0684
vn 0.0702 0.9923 -0.1020
vn 0.0053 -0.9997 0.0258
vn 0.0026 -1.0000 0.0049
vn 0.0223 -0.9996 -0.0165
vn 0.0044 -0.9999 0.0159
vn 0.3068 -0.6487 0.6965
vn -0.0059 0.5671 0.8236
vn -0.0825 0.5622 0.8229
vn -0.0309 0.5418 0.8400
vn 0.3486 0.3940 -0.8504
vn 0.7533 0.5940 -0.2822
vn 0.4339 -0.7956 0.4227
vn 0.0776 -0.0671 0.9947
vn -0.9526 -0.0079 -0.3041
vn -0.9408 -0.0200 -0.3383
vn -0.9387 -0.0415 -0.3421
vn -0.0211 0.1833 0.9828
vn -0.0419 0.0895 0.9951
vn 0.0248 0.1197 0.9925
vn 0.9992 -0.0384 -0.0126
vn 0.9998 -0.0197 -0.0018
vn 0.9997 -0.0246 0.0027
vn 0.9142 -0.0609 -0.4006
vn 0.8955 -0.0456 -0.4428
vn 0.0077 -0.0751 -0.9971
vn -0.0516 -0.0600 -0.9969
vn -0.0097 -0.0360 -0.9993
vt 0.888418 0.415346
vt 0.760921 0.841607
vt 0.775349 0.843615
vt 0.149130 0.838830
vt 0.076239 0.844800
vt 0.022385 0.843173
vt 0.887203 0.736644
vt 0.891048 0.699379
vt 0.063597 0.053692
vt 0.802331 0.201948
vt 0.799990 0.006108
vt 0.939755 0.621281
vt 0.251290 0.849991
vt 0.817343 0.728314
vt 0.788881 0.802496
vt 0.774592 0.926099
vt 0.732258 0.923463
vt 0.657632 0.860290
vt 0.860731 0.696415
vt 0.000000 0.000000
vt 0.953833 0.372236
vt 0.973732 0.325526
vt 0.969953 0.374429
vt 0.884199 0.790766
vt 0.009212 0.008661
vt 0.463647 0.837243
vt 0.418988 0.760616
vt 0.864119 0.698232
vt 0.133025 0.031479
vt 0.424081 0.306226
vt 0.970885 0.076365
vt 0.932729 0.054940
vt 0.970446 0.020949
vt 0.365015 0.843330
vt 0.886526 0.396831
vt 0.438409 0.425852
vt 0.397198 0.926394
vt 0.016888 0.926240
vt 0.019251 0.918791
vt 0.888171 0.022043
vt 0.815350 0.289362
vt 0.968975 0.460133
vt 0.975612 0.488770
vt 0.741149 0.861178
vt 0.430582 0.701931
vt 0.417824 0.926178
vt 0.849730 0.046817
vt 0.970798 0.775273
vt 0.963952 0.321312
vt 0.431977 0.334505
vt 0.736119 0.929936
vt 0.709762 0.926170
s 1
f 28/1/1 10/2/2 7/3/3
f 3/4/4 4/5/5 6/6/6
f 31/7/7 30/8/8 20/9/9
f 25/10/10 16/11/11 21/12/12
f 11/13/13 8/14/14 2/15/15
f 6/16/6 1/17/16 12/18/17
f 31/7/7 32/19/18 30/8/8
f 31/7/7 9/20/19 32/19/18
f 14/21/20 15/22/21 17/23/22
f 20/24/9 19/25/23 31/7/7
f 8/26/14 10/20/2 9/27/19
f 19/25/23 8/26/14 9/27/19
f 28/1/1 32/28/18 10/2/2
s 0
f 33/29/24 16/20/24 30/30/25
s 1
f 27/31/26 22/32/27 20/33/9
f 2/34/15 8/26/14 19/25/23
f 29/35/28 28/1/1 7/3/3
s 0
f 33/29/29 30/30/30 28/1/31
s 1
f 29/35/28 33/20/32 28/1/1
f 21/12/12 18/20/33 25/10/10
f 17/23/22 15/22/21 27/20/34
s 0
f 25/10/35 17/23/36 27/20/37
s 1
f 2/34/15 20/33/9 22/32/27
f 8/14/14 3/20/4 10/2/2
s 0
f 3/4/38 12/20/39 10/2/40
s 1
f 12/18/41 5/36/42 10/2/2
f 5/37/42 7/38/3 10/39/2
f 11/13/13 3/20/4 8/14/14
s 0
f 29/35/43 16/40/44 33/29/45
s 1
f 4/5/5 23/20/46 14/21/20
f 18/41/33 17/23/22 25/10/10
f 21/12/12 26/42/47 18/43/33
f 18/43/33 26/42/47 17/23/22
f 11/20/13 22/32/27 27/31/26
f 11/13/13 2/34/15 22/32/27
f 6/44/6 12/45/17 3/4/4
f 12/18/41 13/46/48 5/37/42
f 5/37/42 16/40/11 24/47/49
f 5/37/42 13/46/48 16/40/11
f 13/46/48 21/12/12 16/48/11
f 14/21/20 17/23/22 26/42/47
f 3/4/4 11/13/13 4/20/5
f 30/8/8 32/28/18 28/1/1
f 23/49/46 27/31/34 15/22/21
s 0
f 19/25/50 9/27/51 31/7/52
s 1
f 10/2/2 32/19/18 9/27/19
f 14/20/20 26/42/47 1/17/16
f 6/6/6 4/5/5 14/21/20
f 30/30/8 16/11/11 25/10/10 20/50/9
s 0
f 24/47/53 16/40/54 29/35/55
s 1
f 14/21/20 23/49/46 15/22/21
s 0
f 21/12/56 13/46/57 12/18/58 26/20/58
f 6/20/59 14/20/59 1/17/60
s 1
f 7/38/3 5/37/42 24/47/49 29/35/28
f 1/51/16 26/20/47 12/52/17
f 27/20/26 20/50/9 25/10/10
f 20/33/9 2/34/15 19/25/23
s 0
f 27/31/61 23/49/62 4/20/63 11/20/63
