# Blender 4.1.1
# www.blender.org
o wine_bottle_collision.002
v -0.009827 -0.000000 -0.036572
v 0.009775 -0.000000 -0.036586
v 0.026758 -0.000000 -0.026797
v 0.036572 -0.000000 -0.009827
v 0.036586 -0.000000 0.009775
v 0.036586 0.195156 0.009775
v 0.026797 -0.000000 0.026759
v 0.009827 -0.000000 0.036572
v -0.009775 -0.000000 0.036586
v -0.026758 -0.000000 0.026797
v -0.026758 0.195156 0.026797
v -0.036572 -0.000000 0.009827
v -0.036586 -0.000000 -0.009775
v -0.026797 -0.000000 -0.026758
v -0.009426 0.205946 -0.035079
v 0.008973 0.207083 -0.034428
v 0.025475 0.206213 -0.025822
v 0.034307 0.207295 -0.009219
v 0.032560 0.209362 0.008862
v 0.025108 0.206341 0.025830
v 0.009032 0.206610 0.034817
v -0.008973 0.207083 0.034428
v -0.023821 0.209555 0.023767
v -0.034645 0.206341 0.009865
v -0.034834 0.206820 -0.008761
v -0.025672 0.206609 -0.025194
v -0.003648 0.228844 0.013654
v 0.012144 0.228771 0.007000
v -0.014089 0.228882 -0.002696
v -0.000010 0.228734 -0.014058
v 0.011849 0.228765 -0.006853
vn 0.6545 0.3571 -0.6664
vn 0.7055 0.0096 -0.7086
vn 0.2568 0.0092 -0.9664
vn 0.2413 0.3848 -0.8909
vn -0.6848 0.0956 0.7224
vn -0.2274 0.3786 0.8972
vn -0.5981 0.5364 0.5955
vn 0.8882 0.3935 -0.2371
vn 0.8239 0.5224 0.2197
vn 0.9631 0.0931 0.2527
vn 0.6364 0.3793 0.6716
vn 0.2328 0.3739 0.8978
vn -0.1939 -0.6514 0.7335
vn -0.0000 -1.0000 -0.0000
vn 0.1949 -0.6496 0.7349
vn -0.0146 0.8911 -0.4535
vn -0.4291 0.8985 -0.0926
vn -0.1175 0.9013 0.4169
vn 0.3815 0.8940 0.2351
vn 0.3795 0.8975 -0.2248
vn -0.7213 0.0022 0.6926
vn 0.9604 0.0077 -0.2786
vn 0.6883 0.0069 0.7254
vn -0.8879 0.3808 0.2582
vn -0.9705 0.0067 0.2411
vn -0.2564 0.0089 -0.9665
vn -0.2587 0.3618 -0.8957
vn -0.9014 0.3657 -0.2317
vn -0.6594 0.3782 -0.6498
vn -0.7137 0.0090 -0.7004
vn -0.9675 0.0093 -0.2529
vn 0.9673 0.0055 0.2537
vt 0.510352 0.461511
vt 0.428485 0.717864
vt 0.404025 0.732035
vt 0.497793 0.456977
vt 0.600362 0.465627
vt 0.580964 0.460833
vt 0.594721 0.453288
vt 0.523814 0.463102
vt 0.537592 0.462585
vt 0.536923 0.474088
vt 0.551606 0.465571
vt 0.106426 0.477344
vt 0.081586 0.477344
vt 0.481361 0.809301
vt 0.131267 0.230045
vt 0.000000 0.000000
vt 0.156107 0.230045
vt 0.456816 0.717864
vt 0.481318 0.731961
vt 0.495526 0.784765
vt 0.456901 0.823471
vt 0.428570 0.823471
vt 0.404068 0.809374
vt 0.389902 0.784838
vt 0.389860 0.756570
vt 0.230627 0.230045
vt 0.503197 0.426560
vt 0.248162 0.176228
vt 0.572208 0.426572
vt 0.545103 0.430491
vt 0.523353 0.429900
vt 0.495484 0.756497
vt 0.610551 0.448407
vt 0.255467 0.230045
vt 0.485306 0.452623
vt 0.566181 0.464199
vt 0.464908 0.436104
vt 0.530386 0.420639
vt 0.474484 0.445215
vt 0.249237 0.212709
vt 0.623461 0.436819
s 1
f 17/1/1 3/2/2 2/3/3 16/4/4
f 11/5/5 22/6/6 23/7/7
f 18/8/8 19/9/9 6/10/10
f 6/10/10 19/9/9 20/11/11
f 21/12/12 22/13/6 9/14/13
f 7/15/14 2/16/14 5/17/14
f 2/16/14 4/18/14 5/19/14
f 2/3/14 3/2/14 4/18/14
f 9/14/13 8/20/15 21/16/12
f 8/20/15 2/16/14 7/15/14
f 8/20/15 9/14/13 2/16/14
f 9/14/13 10/21/14 2/16/14
f 10/21/14 12/22/14 2/16/14
f 12/22/14 13/23/14 2/16/14
f 13/23/14 14/24/14 2/16/14
f 14/24/14 1/25/14 2/26/14
f 30/27/16 29/28/17 27/29/18
f 30/27/16 27/29/18 28/30/19
f 30/27/16 28/30/19 31/31/20
f 11/5/5 9/14/13 22/13/6
f 11/16/5 10/21/21 9/14/13
f 31/31/20 18/8/8 17/1/1
f 4/18/22 3/2/2 17/16/1 18/8/8
f 8/20/15 7/32/23 20/16/11 21/16/12
f 24/33/24 11/5/5 23/7/7
f 24/33/24 12/16/25 10/21/21 11/5/5
f 2/26/3 1/34/26 15/35/27 16/16/4
f 17/1/1 16/4/4 30/27/16 31/31/20
f 22/6/6 21/36/12 27/29/18
f 25/37/28 24/16/24 29/28/17
f 29/38/17 26/39/29 25/37/28
f 26/39/29 29/38/17 30/40/16 15/35/27
f 26/39/29 14/16/30 13/23/31 25/37/28
f 18/8/8 31/31/20 28/30/19 19/9/9
f 28/30/19 20/11/11 19/9/9
f 25/41/28 13/16/31 12/22/25 24/33/24
f 15/35/27 1/34/26 14/24/30 26/39/29
f 7/15/23 5/17/32 6/10/10 20/16/11
f 4/18/22 18/16/8 6/10/10 5/19/32
f 21/36/12 20/11/11 28/30/19 27/29/18
f 29/28/17 24/33/24 23/7/7 27/29/18
f 23/7/7 22/6/6 27/29/18
f 16/4/4 15/35/27 30/40/16
