# Blender 4.1.1
# www.blender.org
o wine_bottle
v -0.009827 -0.000000 -0.036572
v -0.009827 0.195156 -0.036572
v 0.009775 -0.000000 -0.036586
v 0.009775 0.195156 -0.036586
v 0.026758 -0.000000 -0.026797
v 0.026758 0.195156 -0.026797
v 0.036572 -0.000000 -0.009827
v 0.036572 0.195156 -0.009827
v 0.036586 -0.000000 0.009775
v 0.036586 0.195156 0.009775
v 0.026797 -0.000000 0.026759
v 0.026797 0.195156 0.026758
v 0.009827 -0.000000 0.036572
v 0.009827 0.195156 0.036572
v -0.009775 -0.000000 0.036586
v -0.009775 0.195156 0.036586
v -0.026758 -0.000000 0.026797
v -0.026758 0.195156 0.026797
v -0.036572 -0.000000 0.009827
v -0.036572 0.195156 0.009827
v -0.036586 -0.000000 -0.009775
v -0.036586 0.195156 -0.009775
v -0.026797 -0.000000 -0.026758
v -0.026797 0.195156 -0.026758
v -0.008849 0.208472 -0.032932
v 0.008802 0.208472 -0.032945
v 0.024095 0.208472 -0.024130
v 0.032932 0.208472 -0.008849
v 0.032945 0.208472 0.008802
v 0.024130 0.208472 0.024095
v 0.008849 0.208472 0.032932
v -0.008802 0.208472 0.032945
v -0.024095 0.208472 0.024130
v -0.032932 0.208472 0.008849
v -0.032945 0.208472 -0.008802
v -0.024130 0.208472 -0.024095
v -0.006776 0.217169 -0.025216
v 0.006740 0.217169 -0.025226
v 0.018450 0.217169 -0.018476
v 0.025216 0.217169 -0.006776
v 0.025226 0.217169 0.006740
v 0.018476 0.217169 0.018450
v 0.006776 0.217169 0.025216
v -0.006740 0.217169 0.025226
v -0.018450 0.217169 0.018476
v -0.025216 0.217169 0.006776
v -0.025226 0.217169 -0.006740
v -0.018476 0.217169 -0.018450
v -0.004218 0.224895 -0.015697
v 0.004196 0.224895 -0.015703
v 0.011485 0.224895 -0.011502
v 0.015697 0.224895 -0.004218
v 0.015703 0.224895 0.004196
v 0.011502 0.224895 0.011485
v 0.004218 0.224895 0.015697
v -0.004196 0.224895 0.015703
v -0.011485 0.224895 0.011501
v -0.015697 0.224895 0.004218
v -0.015703 0.224895 -0.004196
v -0.011502 0.224895 -0.011485
v -0.002945 0.300000 -0.010960
v 0.002929 0.300000 -0.010965
v 0.008019 0.300000 -0.008031
v 0.010960 0.300000 -0.002945
v 0.010964 0.300000 0.002930
v 0.008031 0.300000 0.008019
v 0.002945 0.300000 0.010960
v -0.002930 0.300000 0.010964
v -0.008019 0.300000 0.008031
v -0.010960 0.300000 0.002945
v -0.010965 0.300000 -0.002930
v -0.008031 0.300000 -0.008019
v -0.015817 -0.000000 -0.027351
v 0.015778 -0.000000 -0.027374
v 0.031595 -0.000000 -0.000023
v 0.015817 -0.000000 0.027351
v -0.015778 -0.000000 0.027374
v -0.031595 -0.000000 0.000023
v 0.003512 0.228713 0.013069
v -0.003493 0.228713 0.013074
v 0.013069 0.228713 -0.003512
v 0.013074 0.228713 0.003493
v -0.013074 0.228713 -0.003493
v -0.009576 0.228713 -0.009562
v -0.003512 0.228713 -0.013069
v 0.003493 0.228713 -0.013074
v -0.009562 0.228713 0.009576
v 0.009576 0.228713 0.009562
v 0.009562 0.228713 -0.009576
v -0.013069 0.228713 0.003512
v 0.003865 0.286826 0.014384
v 0.014384 0.286826 -0.003865
v -0.014389 0.286826 -0.003845
v -0.003865 0.286826 -0.014384
v -0.003845 0.286826 0.014389
v 0.014389 0.286826 0.003845
v -0.010539 0.286826 -0.010524
v 0.003845 0.286826 -0.014389
v -0.010524 0.286826 0.010539
v 0.010539 0.286826 0.010524
v 0.010524 0.286826 -0.010539
v -0.014384 0.286826 0.003865
v -0.003481 0.284373 0.013029
v 0.013029 0.284373 0.003481
v -0.009543 0.284373 -0.009529
v 0.003481 0.284373 -0.013029
v -0.009529 0.284373 0.009543
v 0.009543 0.284373 0.009529
v 0.009529 0.284373 -0.009543
v -0.013024 0.284373 0.003500
v 0.003500 0.284373 0.013024
v 0.013024 0.284373 -0.003500
v -0.013029 0.284373 -0.003481
v -0.003500 0.284373 -0.013024
v 0.003865 0.296026 0.014384
v 0.014384 0.296026 -0.003865
v -0.014389 0.296026 -0.003845
v -0.003865 0.296026 -0.014384
v -0.003845 0.296026 0.014389
v 0.014389 0.296026 0.003845
v -0.010539 0.296026 -0.010524
v 0.003845 0.296026 -0.014389
v -0.010524 0.296026 0.010539
v 0.010539 0.296026 0.010524
v 0.010524 0.296026 -0.010539
v -0.014384 0.296026 0.003865
v -0.009058 0.007760 -0.015664
v 0.009036 0.007760 -0.015677
v 0.018094 0.007760 -0.000013
v 0.009058 0.007760 0.015664
v -0.009036 0.007760 0.015677
v -0.018094 0.007760 0.000013
v 0.000000 0.009822 0.000000
v -0.009827 0.003474 -0.036572
v 0.009775 0.003474 -0.036586
v 0.026758 0.003474 -0.026797
v 0.036572 0.003474 -0.009827
v 0.036586 0.003474 0.009775
v 0.026797 0.003474 0.026759
v 0.009827 0.003474 0.036572
v -0.009775 0.003474 0.036586
v -0.026758 0.003474 0.026797
v -0.036572 0.003474 0.009827
v -0.036586 0.003474 -0.009775
v -0.026797 0.003474 -0.026758
vn -0.9573 0.1345 -0.2558
vn -0.6238 0.4721 -0.6229
vn -0.7012 0.1345 -0.7002
vn -0.0000 -1.0000 -0.0000
vn 0.0872 -0.9846 -0.1514
vn 0.8517 0.4721 0.2276
vn 0.6626 0.7275 -0.1780
vn 0.6628 0.7275 0.1771
vn 0.2558 0.1345 -0.9573
vn 0.6229 0.4721 -0.6238
vn 0.7002 0.1345 -0.7012
vn -0.9570 0.1345 0.2572
vn -0.8517 0.4721 -0.2276
vn -0.7002 0.1345 0.7012
vn -0.8514 0.4721 0.2288
vn -0.2276 0.4721 0.8517
vn -0.6229 0.4721 0.6238
vn 0.2572 0.1345 0.9570
vn -0.2558 0.1345 0.9573
vn 0.7012 0.1345 0.7002
vn 0.2288 0.4721 0.8514
vn 0.9573 0.1345 0.2558
vn 0.6238 0.4721 0.6229
vn 0.9570 0.1345 -0.2572
vn -0.2572 0.1345 -0.9570
vn -0.2288 0.4721 -0.8514
vn 0.2276 0.4721 -0.8517
vn 0.8514 0.4721 -0.2288
vn -0.1771 0.7275 0.6628
vn 0.1846 0.7029 0.6870
vn -0.1836 0.7029 0.6872
vn -0.4855 0.7275 -0.4848
vn -0.1780 0.7275 -0.6626
vn 0.1771 0.7275 -0.6628
vn -0.4848 0.7275 0.4855
vn 0.4855 0.7275 0.4848
vn 0.4848 0.7275 -0.4855
vn -0.6626 0.7275 0.1780
vn 0.1780 0.7275 0.6626
vn -0.6628 0.7275 -0.1771
vn -0.5273 0.6657 0.5280
vn -0.1193 0.8867 0.4467
vn -0.3267 0.8867 0.3272
vn 0.6870 0.7029 -0.1846
vn 0.6872 0.7029 0.1836
vn -0.5033 0.7029 -0.5026
vn 0.1836 0.7029 -0.6872
vn -0.5026 0.7029 0.5033
vn 0.5033 0.7029 0.5026
vn -0.1846 0.7029 -0.6870
vn 0.5026 0.7029 -0.5033
vn -0.6870 0.7029 0.1846
vn -0.6872 0.7029 -0.1836
vn 0.5280 0.6657 0.5273
vn 0.4467 0.8867 0.1193
vn 0.3272 0.8867 0.3267
vn -0.1937 0.6657 -0.7207
vn 0.1193 0.8867 -0.4467
vn 0.1926 0.6657 -0.7209
vn -0.5280 0.6657 -0.5273
vn -0.1200 0.8867 -0.4465
vn 0.3267 0.8867 -0.3272
vn 0.5273 0.6657 -0.5280
vn -0.7207 0.6657 0.1937
vn -0.4465 0.8867 0.1200
vn 0.1200 0.8867 0.4465
vn 0.1937 0.6657 0.7207
vn 0.7207 0.6657 -0.1937
vn 0.4465 0.8867 -0.1200
vn -0.4467 0.8867 -0.1193
vn -0.7209 0.6657 -0.1926
vn 0.7209 0.6657 0.1926
vn -0.3272 0.8867 -0.3267
vn 0.2581 -0.0000 -0.9661
vn -0.2595 -0.0000 -0.9657
vn -0.0875 -0.9846 -0.1512
vn -0.1747 -0.9846 0.0001
vn 0.0875 -0.9846 0.1512
vn -0.0872 -0.9846 0.1514
vn 0.1747 -0.9846 -0.0001
vn 0.7066 -0.0000 -0.7076
vn 0.9657 -0.0000 -0.2595
vn 0.9661 -0.0000 0.2581
vn 0.7076 -0.0000 0.7066
vn 0.2595 -0.0000 0.9657
vn -0.2581 -0.0000 0.9661
vn -0.7066 -0.0000 0.7076
vn -0.9657 -0.0000 0.2595
vn -0.9661 -0.0000 -0.2581
vn -0.7076 -0.0000 -0.7066
vn -0.9151 0.3208 -0.2445
vn 0.6693 0.3208 -0.6702
vn 0.9147 0.3208 -0.2458
vn 0.6702 0.3208 0.6693
vn 0.2458 0.3208 0.9147
vn -0.9147 0.3208 0.2458
vn -0.2458 0.3208 -0.9147
vn 0.9151 0.3208 0.2445
vn -0.2445 0.3208 0.9151
vn -0.6693 0.3208 0.6702
vn 0.2445 0.3208 -0.9151
vn -0.6702 0.3208 -0.6693
vn -0.9306 -0.2685 -0.2487
vn -0.9357 -0.2476 0.2514
vn -0.9360 -0.2477 -0.2501
vn 0.6807 -0.2685 -0.6816
vn 0.9357 -0.2476 -0.2514
vn 0.9303 -0.2685 -0.2500
vn 0.2500 -0.2685 0.9303
vn 0.6856 -0.2476 0.6846
vn 0.2514 -0.2476 0.9357
vn -0.6807 -0.2685 0.6816
vn -0.9303 -0.2685 0.2500
vn 0.2486 -0.2685 -0.9306
vn 0.6846 -0.2477 -0.6856
vn -0.6816 -0.2685 -0.6807
vn -0.2514 -0.2477 -0.9357
vn -0.2500 -0.2685 -0.9303
vn 0.9306 -0.2685 0.2487
vn 0.6816 -0.2685 0.6807
vn -0.2487 -0.2685 0.9306
vn -0.6846 -0.2476 0.6856
vn 0.2501 -0.2477 -0.9360
vn -0.6856 -0.2476 -0.6846
vn 0.9360 -0.2476 0.2501
vn -0.2501 -0.2477 0.9360
vn -0.1926 0.6657 0.7209
vn 0.1849 -0.9289 -0.3208
vn 0.3702 -0.9289 -0.0003
vn 0.1853 -0.9289 0.3205
vn -0.3702 -0.9289 0.0003
vn -0.1849 -0.9289 0.3208
vn -0.1853 -0.9289 -0.3205
vt 0.458433 0.442160
vt 0.475513 0.443821
vt 0.469398 0.452022
vt 0.481361 0.809301
vt 0.456901 0.823471
vt 0.465617 0.810181
vt 0.537543 0.463376
vt 0.525507 0.451946
vt 0.538192 0.452954
vt 0.494757 0.465411
vt 0.510825 0.459527
vt 0.508406 0.469564
vt 0.616553 0.456977
vt 0.622159 0.435250
vt 0.631298 0.445040
vt 0.600362 0.465627
vt 0.609190 0.446433
vt 0.580568 0.459382
vt 0.595164 0.454248
vt 0.567510 0.473736
vt 0.583754 0.470979
vt 0.551903 0.474612
vt 0.565921 0.462323
vt 0.536923 0.474088
vt 0.551539 0.463539
vt 0.522458 0.472399
vt 0.481650 0.459679
vt 0.486325 0.450645
vt 0.498212 0.455793
vt 0.523963 0.462025
vt 0.577577 0.448621
vt 0.562527 0.435877
vt 0.573845 0.433512
vt 0.466047 0.434922
vt 0.480980 0.436728
vt 0.490688 0.442373
vt 0.501567 0.446713
vt 0.590415 0.443967
vt 0.551194 0.452846
vt 0.513250 0.449876
vt 0.602399 0.437176
vt 0.564388 0.451480
vt 0.612812 0.427622
vt 0.423189 0.667270
vt 0.432326 0.674010
vt 0.425224 0.673977
vt 0.527910 0.437139
vt 0.539337 0.437621
vt 0.473089 0.429593
vt 0.487610 0.427310
vt 0.506258 0.433737
vt 0.584597 0.429992
vt 0.550940 0.437224
vt 0.496421 0.430885
vt 0.516825 0.435832
vt 0.594358 0.425319
vt 0.602411 0.419581
vt 0.448649 0.682008
vt 0.441757 0.691184
vt 0.441874 0.683950
vt 0.413939 0.702400
vt 0.424971 0.700960
vt 0.423328 0.707800
vt 0.408520 0.693001
vt 0.418816 0.697303
vt 0.432099 0.701011
vt 0.434135 0.707723
vt 0.413905 0.672751
vt 0.419039 0.677582
vt 0.438416 0.677671
vt 0.443298 0.672617
vt 0.443396 0.702200
vt 0.438256 0.697445
vt 0.415389 0.683811
vt 0.408520 0.682149
vt 0.448625 0.692816
vt 0.415306 0.691025
vt 0.255468 0.477344
vt 0.230627 0.234447
vt 0.255467 0.234447
vt 0.488374 0.770572
vt 0.495526 0.784765
vt 0.495484 0.756497
vt 0.481318 0.731961
vt 0.465450 0.731059
vt 0.456816 0.717864
vt 0.389902 0.784838
vt 0.389860 0.756570
vt 0.397012 0.770764
vt 0.419769 0.731155
vt 0.428485 0.717864
vt 0.419936 0.810277
vt 0.404068 0.809374
vt 0.404025 0.732035
vt 0.428570 0.823471
vt 0.230628 0.477344
vt 0.205787 0.234447
vt 0.205788 0.477344
vt 0.180947 0.234447
vt 0.180947 0.477344
vt 0.156107 0.234447
vt 0.156107 0.477344
vt 0.131267 0.234447
vt 0.131267 0.477344
vt 0.106426 0.234447
vt 0.106426 0.477344
vt 0.081586 0.234447
vt 0.081586 0.477344
vt 0.056746 0.234447
vt 0.056746 0.477344
vt 0.031906 0.234447
vt 0.031906 0.477344
vt 0.007066 0.234447
vt 0.305148 0.477344
vt 0.280307 0.234447
vt 0.305147 0.234447
vt 0.280308 0.477344
vt 0.599325 0.415715
vt 0.518048 0.429388
vt 0.528658 0.430411
vt 0.550629 0.430262
vt 0.561622 0.428989
vt 0.591471 0.420023
vt 0.498473 0.425417
vt 0.539577 0.430720
vt 0.572250 0.426930
vt 0.582317 0.423895
vt 0.507920 0.427703
vt 0.480450 0.423099
vt 0.489919 0.422615
vt 0.590247 0.347600
vt 0.581954 0.344598
vt 0.590524 0.344506
vt 0.520929 0.349954
vt 0.529780 0.346466
vt 0.529770 0.349885
vt 0.556177 0.349142
vt 0.547344 0.346183
vt 0.556075 0.345762
vt 0.573551 0.348225
vt 0.581999 0.347770
vt 0.512100 0.349880
vt 0.520964 0.346551
vt 0.494386 0.350037
vt 0.503251 0.346383
vt 0.503275 0.349828
vt 0.538609 0.349785
vt 0.547423 0.349560
vt 0.564940 0.348715
vt 0.573440 0.344931
vt 0.512147 0.346461
vt 0.485478 0.350535
vt 0.494256 0.346541
vt 0.538589 0.346384
vt 0.564805 0.345367
vt 0.482542 0.419553
vt 0.512160 0.335870
vt 0.484920 0.346962
vt 0.494035 0.335670
vt 0.538341 0.336019
vt 0.555637 0.335468
vt 0.564243 0.335087
vt 0.433965 0.667203
vt 0.572907 0.334658
vt 0.546992 0.335822
vt 0.503207 0.335704
vt 0.521011 0.336042
vt 0.581647 0.334305
vt 0.529706 0.336068
vt 0.590332 0.334144
vt 0.454236 0.791453
vt 0.430464 0.791057
vt 0.442693 0.770668
vt 0.418921 0.770271
vt 0.454922 0.750279
vt 0.431150 0.749883
vt 0.466465 0.771064
vt 0.255467 0.230045
vt 0.280307 0.230045
vt 0.305147 0.230044
vt 0.007066 0.230045
vt 0.031906 0.230045
vt 0.056746 0.230045
vt 0.081586 0.230045
vt 0.106426 0.230045
vt 0.131267 0.230045
vt 0.156107 0.230045
vt 0.180947 0.230045
vt 0.205787 0.230045
vt 0.230627 0.230045
vt 0.007066 0.477344
vt 0.484713 0.335831
s 1
f 22/1/1 36/2/2 24/3/3
f 15/4/4 17/5/4 77/6/5
f 29/7/6 40/8/7 41/9/8
f 4/10/9 27/11/10 6/12/11
f 20/13/12 35/14/13 22/15/1
f 18/16/14 34/17/15 20/13/12
f 18/16/14 32/18/16 33/19/17
f 14/20/18 32/18/16 16/21/19
f 12/22/20 31/23/21 14/20/18
f 10/24/22 30/25/23 12/22/20
f 8/26/24 29/7/6 10/24/22
f 2/27/25 36/2/2 25/28/26
f 4/10/9 25/28/26 26/29/27
f 6/12/11 28/30/28 8/26/24
f 44/31/29 55/32/30 56/33/31
f 35/34/13 48/35/32 36/2/2
f 26/29/27 37/36/33 38/37/34
f 33/19/17 44/31/29 45/38/35
f 30/25/23 41/9/8 42/39/36
f 25/28/26 48/35/32 37/36/33
f 27/11/10 38/37/34 39/40/37
f 33/19/17 46/41/38 34/17/15
f 31/23/21 42/39/36 43/42/39
f 28/30/28 39/40/37 40/8/7
f 35/14/13 46/41/38 47/43/40
f 32/18/16 43/42/39 44/31/29
f 123/44/41 68/45/42 69/46/43
f 41/9/8 52/47/44 53/48/45
f 47/49/40 60/50/46 48/35/32
f 37/36/33 50/51/47 38/37/34
f 44/31/29 57/52/48 45/38/35
f 42/39/36 53/48/45 54/53/49
f 48/35/32 49/54/50 37/36/33
f 38/37/34 51/55/51 39/40/37
f 45/38/35 58/56/52 46/41/38
f 42/39/36 55/32/30 43/42/39
f 39/40/37 52/47/44 40/8/7
f 46/41/38 59/57/53 47/43/40
f 124/58/54 65/59/55 66/60/56
f 118/61/57 62/62/58 122/63/59
f 121/64/60 61/65/61 118/61/57
f 122/63/59 63/66/62 125/67/63
f 126/68/64 69/46/43 70/69/65
f 124/58/54 67/70/66 115/71/67
f 116/72/68 63/66/62 64/73/69
f 126/68/64 71/74/70 117/75/71
f 120/76/72 64/73/69 65/59/55
f 117/75/71 72/77/73 121/64/60
f 2/78/25 135/79/74 134/80/75
f 15/4/4 76/81/76 13/82/4
f 11/83/4 13/82/4 76/81/76
f 9/84/4 76/81/76 75/85/77
f 7/86/4 9/84/4 75/85/77
f 23/87/4 1/88/4 73/89/78
f 1/88/4 74/90/79 73/89/78
f 7/86/4 74/90/79 5/91/4
f 23/87/4 78/92/80 21/93/4
f 3/94/4 5/91/4 74/90/79
f 19/95/4 21/93/4 78/92/80
f 19/95/4 77/6/5 17/5/4
f 4/96/9 136/97/81 135/79/74
f 6/98/11 137/99/82 136/97/81
f 8/100/24 138/101/83 137/99/82
f 10/102/22 139/103/84 138/101/83
f 12/104/20 140/105/85 139/103/84
f 14/106/18 141/107/86 140/105/85
f 16/108/19 142/109/87 141/107/86
f 18/110/14 143/111/88 142/109/87
f 20/112/12 144/113/89 143/111/88
f 22/114/1 145/115/90 144/116/89
f 24/117/3 134/80/75 145/115/90
f 58/56/52 83/118/91 59/57/53
f 52/47/44 89/119/92 81/120/93
f 55/32/30 88/121/94 79/122/95
f 57/52/48 90/123/96 58/56/52
f 50/51/47 89/119/92 51/55/51
f 60/50/46 85/124/97 49/54/50
f 54/53/49 82/125/98 88/121/94
f 57/52/48 80/126/99 87/127/100
f 49/54/50 86/128/101 50/51/47
f 59/129/53 84/130/102 60/50/46
f 52/47/44 82/125/98 53/48/45
f 56/33/31 79/122/95 80/126/99
f 113/131/103 102/132/104 93/133/105
f 109/134/106 92/135/107 112/136/108
f 111/137/109 100/138/110 91/139/111
f 107/140/112 102/132/104 110/141/113
f 106/142/114 101/143/115 109/134/106
f 105/144/116 94/145/117 114/146/118
f 104/147/119 100/138/110 108/148/120
f 103/149/121 99/150/122 107/140/112
f 114/146/118 98/151/123 106/142/114
f 113/152/103 97/153/124 105/144/116
f 112/136/108 96/154/125 104/147/119
f 103/149/121 91/139/111 95/155/126
f 83/156/91 105/144/116 84/130/102
f 85/124/97 106/142/114 86/128/101
f 80/126/99 107/140/112 87/127/100
f 88/121/94 104/147/119 108/148/120
f 84/130/102 114/146/118 85/124/97
f 86/128/101 109/134/106 89/119/92
f 87/127/100 110/141/113 90/123/96
f 79/122/95 108/148/120 111/137/109
f 89/119/92 112/136/108 81/120/93
f 90/123/96 113/131/103 83/118/91
f 94/145/117 122/157/74 98/151/123
f 93/158/105 121/159/90 97/153/124
f 92/135/107 120/160/83 96/154/125
f 95/155/126 115/161/85 119/162/86
f 119/163/127 67/70/66 68/45/42
f 99/150/122 119/162/86 123/164/87
f 96/154/125 124/165/84 100/138/110
f 118/166/75 97/153/124 121/159/90
f 98/151/123 125/167/81 101/143/115
f 102/132/104 123/164/87 126/168/88
f 91/139/111 124/165/84 115/161/85
f 116/169/82 101/143/115 125/167/81
f 117/170/89 102/132/104 126/168/88
f 70/69/65 66/60/56 62/62/58
f 81/120/93 104/147/119 82/125/98
f 131/171/128 132/172/129 133/173/4
f 74/90/79 127/174/130 73/89/78
f 76/81/76 129/175/131 75/85/77
f 77/6/5 132/172/129 131/171/128
f 75/85/77 128/176/132 74/90/79
f 77/6/5 130/177/133 76/81/76
f 128/176/132 129/175/131 133/173/4
f 130/177/133 131/171/128 133/173/4
f 132/172/129 127/174/130 133/173/4
f 127/174/130 128/176/132 133/173/4
f 129/175/131 130/177/133 133/173/4
f 73/89/78 132/172/129 78/92/80
f 111/137/109 80/126/99 79/122/95
f 145/115/90 1/178/75 23/179/90
f 144/116/89 23/179/90 21/180/89
f 143/111/88 21/181/89 19/182/88
f 142/109/87 19/182/88 17/183/87
f 141/107/86 17/183/87 15/184/86
f 140/105/85 15/184/86 13/185/85
f 139/103/84 13/185/85 11/186/84
f 138/101/83 11/186/84 9/187/83
f 137/99/82 9/187/83 7/188/82
f 136/97/81 7/188/82 5/189/81
f 135/79/74 5/189/81 3/190/74
f 134/80/75 3/190/74 1/178/75
f 22/1/1 35/34/13 36/2/2
f 29/7/6 28/30/28 40/8/7
f 4/10/9 26/29/27 27/11/10
f 20/13/12 34/17/15 35/14/13
f 18/16/14 33/19/17 34/17/15
f 18/16/14 16/21/19 32/18/16
f 14/20/18 31/23/21 32/18/16
f 12/22/20 30/25/23 31/23/21
f 10/24/22 29/7/6 30/25/23
f 8/26/24 28/30/28 29/7/6
f 2/27/25 24/3/3 36/2/2
f 4/10/9 2/27/25 25/28/26
f 6/12/11 27/11/10 28/30/28
f 44/31/29 43/42/39 55/32/30
f 35/34/13 47/49/40 48/35/32
f 26/29/27 25/28/26 37/36/33
f 33/19/17 32/18/16 44/31/29
f 30/25/23 29/7/6 41/9/8
f 25/28/26 36/2/2 48/35/32
f 27/11/10 26/29/27 38/37/34
f 33/19/17 45/38/35 46/41/38
f 31/23/21 30/25/23 42/39/36
f 28/30/28 27/11/10 39/40/37
f 35/14/13 34/17/15 46/41/38
f 32/18/16 31/23/21 43/42/39
f 123/44/41 119/163/127 68/45/42
f 41/9/8 40/8/7 52/47/44
f 47/49/40 59/129/53 60/50/46
f 37/36/33 49/54/50 50/51/47
f 44/31/29 56/33/31 57/52/48
f 42/39/36 41/9/8 53/48/45
f 48/35/32 60/50/46 49/54/50
f 38/37/34 50/51/47 51/55/51
f 45/38/35 57/52/48 58/56/52
f 42/39/36 54/53/49 55/32/30
f 39/40/37 51/55/51 52/47/44
f 46/41/38 58/56/52 59/57/53
f 124/58/54 120/76/72 65/59/55
f 118/61/57 61/65/61 62/62/58
f 121/64/60 72/77/73 61/65/61
f 122/63/59 62/62/58 63/66/62
f 126/68/64 123/44/41 69/46/43
f 124/58/54 66/60/56 67/70/66
f 116/72/68 125/67/63 63/66/62
f 126/68/64 70/69/65 71/74/70
f 120/76/72 116/72/68 64/73/69
f 117/75/71 71/74/70 72/77/73
f 2/78/25 4/96/9 135/79/74
f 15/4/4 77/6/5 76/81/76
f 9/84/4 11/83/4 76/81/76
f 1/88/4 3/94/4 74/90/79
f 7/86/4 75/85/77 74/90/79
f 23/87/4 73/89/78 78/92/80
f 19/95/4 78/92/80 77/6/5
f 4/96/9 6/98/11 136/97/81
f 6/98/11 8/100/24 137/99/82
f 8/100/24 10/102/22 138/101/83
f 10/102/22 12/104/20 139/103/84
f 12/104/20 14/106/18 140/105/85
f 14/106/18 16/108/19 141/107/86
f 16/108/19 18/110/14 142/109/87
f 18/110/14 20/112/12 143/111/88
f 20/112/12 22/191/1 144/113/89
f 22/114/1 24/117/3 145/115/90
f 24/117/3 2/78/25 134/80/75
f 58/56/52 90/123/96 83/118/91
f 52/47/44 51/55/51 89/119/92
f 55/32/30 54/53/49 88/121/94
f 57/52/48 87/127/100 90/123/96
f 50/51/47 86/128/101 89/119/92
f 60/50/46 84/130/102 85/124/97
f 54/53/49 53/48/45 82/125/98
f 57/52/48 56/33/31 80/126/99
f 49/54/50 85/124/97 86/128/101
f 59/129/53 83/156/91 84/130/102
f 52/47/44 81/120/93 82/125/98
f 56/33/31 55/32/30 79/122/95
f 113/131/103 110/141/113 102/132/104
f 109/134/106 101/143/115 92/135/107
f 111/137/109 108/148/120 100/138/110
f 107/140/112 99/150/122 102/132/104
f 106/142/114 98/151/123 101/143/115
f 105/144/116 97/153/124 94/145/117
f 104/147/119 96/154/125 100/138/110
f 103/149/121 95/155/126 99/150/122
f 114/146/118 94/145/117 98/151/123
f 113/152/103 93/158/105 97/153/124
f 112/136/108 92/135/107 96/154/125
f 103/149/121 111/137/109 91/139/111
f 83/156/91 113/152/103 105/144/116
f 85/124/97 114/146/118 106/142/114
f 80/126/99 103/149/121 107/140/112
f 88/121/94 82/125/98 104/147/119
f 84/130/102 105/144/116 114/146/118
f 86/128/101 106/142/114 109/134/106
f 87/127/100 107/140/112 110/141/113
f 79/122/95 88/121/94 108/148/120
f 89/119/92 109/134/106 112/136/108
f 90/123/96 110/141/113 113/131/103
f 94/145/117 118/166/75 122/157/74
f 93/158/105 117/192/89 121/159/90
f 92/135/107 116/169/82 120/160/83
f 95/155/126 91/139/111 115/161/85
f 119/163/127 115/71/67 67/70/66
f 99/150/122 95/155/126 119/162/86
f 96/154/125 120/160/83 124/165/84
f 118/166/75 94/145/117 97/153/124
f 98/151/123 122/157/74 125/167/81
f 102/132/104 99/150/122 123/164/87
f 91/139/111 100/138/110 124/165/84
f 116/169/82 92/135/107 101/143/115
f 117/170/89 93/133/105 102/132/104
f 62/62/58 61/65/61 72/77/73
f 72/77/73 71/74/70 62/62/58
f 70/69/65 69/46/43 68/45/42
f 68/45/42 67/70/66 70/69/65
f 66/60/56 65/59/55 64/73/69
f 64/73/69 63/66/62 62/62/58
f 62/62/58 71/74/70 70/69/65
f 70/69/65 67/70/66 66/60/56
f 66/60/56 64/73/69 62/62/58
f 81/120/93 112/136/108 104/147/119
f 74/90/79 128/176/132 127/174/130
f 76/81/76 130/177/133 129/175/131
f 77/6/5 78/92/80 132/172/129
f 75/85/77 129/175/131 128/176/132
f 77/6/5 131/171/128 130/177/133
f 73/89/78 127/174/130 132/172/129
f 111/137/109 103/149/121 80/126/99
f 145/115/90 134/80/75 1/178/75
f 144/116/89 145/115/90 23/179/90
f 143/111/88 144/113/89 21/181/89
f 142/109/87 143/111/88 19/182/88
f 141/107/86 142/109/87 17/183/87
f 140/105/85 141/107/86 15/184/86
f 139/103/84 140/105/85 13/185/85
f 138/101/83 139/103/84 11/186/84
f 137/99/82 138/101/83 9/187/83
f 136/97/81 137/99/82 7/188/82
f 135/79/74 136/97/81 5/189/81
f 134/80/75 135/79/74 3/190/74
