# Blender 4.1.1
# www.blender.org
o wine_bottle_collision.001
v 0.009743 0.300052 -0.006310
v 0.010964 0.300000 0.002930
v 0.005297 0.300052 0.010329
v -0.008392 0.300109 0.008404
v -0.010965 0.300000 -0.002930
v -0.003082 0.300109 -0.011469
v -0.006864 0.206967 0.011909
v 0.013880 0.206968 -0.000710
v -0.013880 0.206969 0.000710
v -0.009576 0.206969 -0.009562
v -0.000010 0.206968 -0.013745
v 0.007050 0.206967 0.012191
v 0.009562 0.206969 -0.009576
v 0.014443 0.295965 -0.003845
v -0.014429 0.295963 -0.003895
v -0.003881 0.295951 -0.014445
v 0.003876 0.295979 0.014422
v -0.003860 0.295951 0.014450
v 0.014429 0.295963 0.003895
v -0.010567 0.295979 -0.010552
v 0.003894 0.295961 -0.014429
v -0.010586 0.295968 0.010550
v 0.010550 0.295968 0.010586
v 0.010588 0.295963 -0.010549
v -0.014443 0.295965 0.003845
vn 0.5368 -0.6399 -0.5499
vn -0.0006 -0.6434 -0.7655
vn 0.2428 0.3734 -0.8953
vn 0.6455 0.3358 -0.6860
vn 0.6820 0.3362 0.6495
vn 0.4478 0.8861 0.1197
vn 0.2036 0.8778 0.4335
vn -0.2335 0.2903 -0.9280
vn -0.1215 0.8696 -0.4786
vn -0.9026 0.3561 0.2420
vn -0.4463 0.8869 -0.1191
vn -0.9161 0.3292 -0.2290
vn -0.6757 0.2906 0.6775
vn -0.2236 0.3720 0.9009
vn -0.3439 0.8697 0.3541
vn 0.9125 0.3286 0.2435
vn 0.9152 0.3367 -0.2216
vn 0.3929 0.8777 -0.2743
vn -0.6688 0.3580 -0.6516
vn -0.7757 -0.6300 0.0386
vn -0.5500 -0.6341 -0.5435
vn 0.7754 -0.6314 0.0045
vn 0.3981 -0.6153 0.6804
vn -0.3860 -0.6271 0.6765
vn 0.2141 0.3369 0.9169
vt 0.518048 0.429388
vt 0.503197 0.426560
vt 0.423957 0.705241
vt 0.434732 0.705239
vt 0.448649 0.682008
vt 0.441757 0.691184
vt 0.439801 0.680185
vt 0.413939 0.702400
vt 0.419622 0.696364
vt 0.413905 0.672751
vt 0.415389 0.683811
vt 0.408520 0.682149
vt 0.423189 0.667270
vt 0.433965 0.667203
vt 0.425432 0.675207
vt 0.448625 0.692816
vt 0.443396 0.702200
vt 0.434564 0.699583
vt 0.408520 0.693001
vt 0.594613 0.418299
vt 0.489919 0.422615
vt 0.533026 0.430535
vt 0.556125 0.429625
vt 0.577283 0.425413
vt 0.503208 0.335791
vt 0.443877 0.670937
vt 0.564248 0.335171
vt 0.572911 0.334722
vt 0.581649 0.334373
vt 0.590333 0.334215
vt 0.494036 0.335725
vt 0.482542 0.419553
vt 0.529707 0.336137
vt 0.538342 0.336091
vt 0.000000 0.000000
vt 0.546994 0.335888
s 1
f 13/1/1 11/2/2 21/3/3 24/4/4
f 23/5/5 2/6/6 3/7/7
f 16/8/8 6/9/9 21/3/3
f 25/10/10 5/11/11 15/12/12
f 22/13/13 18/14/14 4/15/15
f 23/5/5 19/16/16 2/6/6
f 25/10/10 22/13/13 4/15/15
f 14/17/17 24/4/4 1/18/18
f 25/10/10 4/15/15 5/11/11
f 20/19/19 6/9/9 16/8/8
f 1/18/18 21/3/3 6/9/9
f 9/20/20 10/21/21 11/2/2
f 9/20/20 11/2/2 13/1/1
f 9/20/20 13/1/1 8/22/22
f 9/20/20 8/22/22 12/23/23
f 9/20/20 12/23/23 7/24/24
f 2/6/6 1/18/18 6/9/9
f 2/6/6 6/9/9 5/11/11
f 2/6/6 5/11/11 4/15/15
f 2/6/6 4/15/15 3/7/7
f 11/2/2 16/25/8 21/3/3
f 3/7/7 17/26/25 23/5/5
f 14/17/17 2/6/6 19/16/16
f 18/14/14 3/7/7 4/15/15
f 7/24/24 18/27/14 22/28/13
f 20/19/19 5/11/11 6/9/9
f 9/20/20 25/29/10 15/30/12
f 10/21/21 20/31/19 16/25/8 11/2/2
f 15/30/12 20/31/19 10/21/21 9/32/20
f 14/33/17 19/34/16 8/22/22
f 1/18/18 24/4/4 21/3/3
f 8/22/22 13/1/1 24/4/4 14/33/17
f 22/28/13 25/29/10 9/20/20 7/35/24
f 12/23/23 8/22/22 19/34/16 23/36/5
f 14/17/17 1/18/18 2/6/6
f 18/27/14 7/24/24 12/23/23 17/26/25
f 18/14/14 17/26/25 3/7/7
f 23/36/5 17/26/25 12/23/23
f 20/19/19 15/12/12 5/11/11
