# Blender 4.0.2
# www.blender.org
o rack_collision.008
v 0.052500 0.085000 0.121000
v 0.052500 0.010000 0.121000
v 0.048964 0.085000 0.122464
v 0.048964 0.010000 0.122464
v 0.047500 0.085000 0.126000
v 0.047500 0.010000 0.126000
v 0.048964 0.085000 0.129536
v 0.048964 0.010000 0.129536
v 0.052500 0.085000 0.131000
v 0.052500 0.010000 0.131000
v 0.056036 0.085000 0.129536
v 0.056036 0.010000 0.129536
v 0.057500 0.085000 0.126000
v 0.057500 0.010000 0.126000
v 0.056036 0.085000 0.122464
v 0.056036 0.010000 0.122464
vn -0.0000 0.6303 -0.7764
vn -0.0000 -0.6303 -0.7764
vn -0.5490 -0.6303 -0.5490
vn -0.5490 0.6303 -0.5490
vn -0.7764 -0.6303 -0.0000
vn -0.7764 0.6303 -0.0000
vn -0.5490 -0.6303 0.5490
vn -0.5490 0.6303 0.5490
vn -0.0000 -0.6303 0.7764
vn -0.0000 0.6303 0.7764
vn 0.5490 -0.6303 0.5490
vn 0.5490 0.6303 0.5490
vn 0.7764 -0.6303 -0.0000
vn 0.7764 0.6303 -0.0000
vn -0.0000 -1.0000 -0.0000
vn 0.5490 -0.6303 -0.5490
vn 0.5490 0.6303 -0.5490
vn -0.0000 1.0000 -0.0000
vt 0.589359 0.006553
vt 0.589359 0.215986
vt 0.579486 0.215986
vt 0.579486 0.006553
vt 0.763489 0.006553
vt 0.763489 0.215986
vt 0.753616 0.215986
vt 0.753616 0.006553
vt 0.743743 0.215986
vt 0.743743 0.006553
vt 0.599232 0.229092
vt 0.599232 0.438525
vt 0.589359 0.438525
vt 0.589359 0.229092
vt 0.579486 0.438525
vt 0.579486 0.229092
vt 0.697786 0.674170
vt 0.697786 0.883604
vt 0.687913 0.883604
vt 0.687913 0.674170
vt 0.143131 0.850527
vt 0.143131 0.861213
vt 0.135575 0.868770
vt 0.124888 0.868770
vt 0.117332 0.861213
vt 0.117332 0.850527
vt 0.124888 0.842971
vt 0.135575 0.842971
vt 0.678040 0.883604
vt 0.678040 0.674170
vt 0.599232 0.006553
vt 0.599232 0.215986
vt 0.198521 0.883633
vt 0.190964 0.891189
vt 0.180278 0.891189
vt 0.172722 0.883633
vt 0.172722 0.872947
vt 0.180278 0.865390
vt 0.190964 0.865390
vt 0.198521 0.872947
s 1
f 1/1/1 2/2/2 4/3/3 3/4/4
f 3/5/4 4/6/3 6/7/5 5/8/6
f 5/8/6 6/7/5 8/9/7 7/10/8
f 7/11/8 8/12/7 10/13/9 9/14/10
f 9/14/10 10/13/9 12/15/11 11/16/12
f 11/17/12 12/18/11 14/19/13 13/20/14
s 0
f 4/21/15 2/22/15 16/23/15 14/24/15 12/25/15 10/26/15 8/27/15 6/28/15
s 1
f 13/20/14 14/19/13 16/29/16 15/30/17
f 15/31/17 16/32/16 2/2/2 1/1/1
s 0
f 1/33/18 3/34/18 5/35/18 7/36/18 9/37/18 11/38/18 13/39/18 15/40/18
