# Blender 4.1.1
# www.blender.org
o rack_collision.017
v 0.044858 0.000000 0.137500
v 0.044858 0.015000 0.137500
v 0.044858 -0.000000 -0.137500
v 0.044858 0.015000 -0.137500
v 0.060000 0.000000 0.137500
v 0.060000 0.015000 0.137500
v 0.060000 -0.000000 -0.137500
v 0.060000 0.015000 -0.137500
vn -1.0000 -0.0000 -0.0000
vn -0.0000 -0.0000 -1.0000
vn 1.0000 -0.0000 -0.0000
vn -0.0000 -0.0000 1.0000
vn -0.0000 -1.0000 -0.0000
vn -0.0000 1.0000 -0.0000
vt 0.269998 0.774475
vt 0.228112 0.774475
vt 0.228112 0.006553
vt 0.269998 0.006553
vt 0.324991 0.829865
vt 0.283104 0.829865
vt 0.283104 0.787581
vt 0.324991 0.787581
vt 0.324991 0.774475
vt 0.283104 0.774475
vt 0.283104 0.006553
vt 0.324991 0.006553
vt 0.061943 0.048440
vt 0.061943 0.006553
vt 0.104227 0.006553
vt 0.104227 0.048440
vt 0.104227 0.816362
vt 0.061943 0.816362
vt 0.215006 0.774475
vt 0.172722 0.774475
vt 0.172722 0.006553
vt 0.215006 0.006553
s 0
f 1/1/1 2/2/1 4/3/1 3/4/1
f 3/5/2 4/6/2 8/7/2 7/8/2
f 7/9/3 8/10/3 6/11/3 5/12/3
f 5/13/4 6/14/4 2/15/4 1/16/4
f 3/17/5 7/18/5 5/13/5 1/16/5
f 8/19/6 4/20/6 2/21/6 6/22/6
