# Blender 4.1.1
# www.blender.org
o rack_collision.015
v -0.050000 0.007221 -0.092500
v 0.050000 0.007221 -0.092500
v -0.050000 0.003685 -0.091036
v 0.050000 0.003685 -0.091036
v -0.050000 0.002221 -0.087500
v 0.050000 0.002221 -0.087500
v -0.050000 0.003685 -0.083964
v 0.050000 0.003685 -0.083964
v -0.050000 0.007221 -0.082500
v 0.050000 0.007221 -0.082500
v -0.050000 0.010756 -0.083964
v 0.050000 0.010756 -0.083964
v -0.050000 0.012221 -0.087500
v 0.050000 0.012221 -0.087500
v -0.050000 0.010756 -0.091036
v 0.050000 0.010756 -0.091036
vn -0.6303 -0.0000 -0.7763
vn 0.6303 -0.0000 -0.7763
vn 0.6303 -0.5489 -0.5490
vn -0.6303 -0.5489 -0.5490
vn 0.6303 -0.7763 -0.0000
vn -0.6303 -0.7763 -0.0000
vn 0.6303 -0.5490 0.5489
vn -0.6303 -0.5490 0.5489
vn 0.6303 -0.0000 0.7763
vn -0.6303 -0.0000 0.7763
vn 0.6303 0.5489 0.5490
vn -0.6303 0.5489 0.5490
vn 0.6303 0.7763 -0.0000
vn -0.6303 0.7763 -0.0000
vn 1.0000 -0.0000 -0.0000
vn 0.6303 0.5489 -0.5490
vn -0.6303 0.5489 -0.5490
vn -1.0000 -0.0000 -0.0000
vt 0.523657 0.285797
vt 0.523657 0.006553
vt 0.533529 0.006553
vt 0.533529 0.285797
vt 0.467827 0.006553
vt 0.467827 0.285797
vt 0.457954 0.285797
vt 0.457954 0.006553
vt 0.448081 0.285797
vt 0.448081 0.006553
vt 0.546635 0.285797
vt 0.546635 0.006553
vt 0.556508 0.006553
vt 0.556508 0.285797
vt 0.566381 0.006553
vt 0.566381 0.285797
vt 0.480933 0.285797
vt 0.480933 0.006553
vt 0.490805 0.006553
vt 0.490805 0.285797
vt 0.007251 0.958003
vt 0.014807 0.950447
vt 0.025493 0.950447
vt 0.033050 0.958003
vt 0.033050 0.968689
vt 0.025493 0.976246
vt 0.014807 0.976246
vt 0.007251 0.968690
vt 0.500678 0.006553
vt 0.500678 0.285797
vt 0.513784 0.285797
vt 0.513784 0.006553
vt 0.566381 0.832035
vt 0.558824 0.839591
vt 0.548138 0.839591
vt 0.540582 0.832035
vt 0.540582 0.821349
vt 0.548138 0.813793
vt 0.558824 0.813793
vt 0.566381 0.821349
s 1
f 1/1/1 2/2/2 4/3/3 3/4/4
f 3/5/4 4/6/3 6/7/5 5/8/6
f 5/8/6 6/7/5 8/9/7 7/10/8
f 7/11/8 8/12/7 10/13/9 9/14/10
f 9/14/10 10/13/9 12/15/11 11/16/12
f 11/17/12 12/18/11 14/19/13 13/20/14
s 0
f 4/21/15 2/22/15 16/23/15 14/24/15 12/25/15 10/26/15 8/27/15 6/28/15
s 1
f 13/20/14 14/19/13 16/29/16 15/30/17
f 15/31/17 16/32/16 2/2/2 1/1/1
s 0
f 1/33/18 3/34/18 5/35/18 7/36/18 9/37/18 11/38/18 13/39/18 15/40/18
