# Blender 4.0.2
# www.blender.org
o rack_collision.009
v 0.052500 0.085000 0.079000
v 0.052500 0.010000 0.079000
v 0.048964 0.085000 0.080464
v 0.048964 0.010000 0.080464
v 0.047500 0.085000 0.084000
v 0.047500 0.010000 0.084000
v 0.048964 0.085000 0.087536
v 0.048964 0.010000 0.087536
v 0.052500 0.085000 0.089000
v 0.052500 0.010000 0.089000
v 0.056036 0.085000 0.087536
v 0.056036 0.010000 0.087536
v 0.057500 0.085000 0.084000
v 0.057500 0.010000 0.084000
v 0.056036 0.085000 0.080464
v 0.056036 0.010000 0.080464
vn -0.0000 0.6303 -0.7764
vn -0.0000 -0.6303 -0.7764
vn -0.5490 -0.6303 -0.5490
vn -0.5490 0.6303 -0.5490
vn -0.7764 -0.6303 -0.0000
vn -0.7764 0.6303 -0.0000
vn -0.5490 -0.6303 0.5490
vn -0.5490 0.6303 0.5490
vn -0.0000 -0.6303 0.7764
vn -0.0000 0.6303 0.7764
vn 0.5490 -0.6303 0.5490
vn 0.5490 0.6303 0.5490
vn 0.7764 -0.6303 -0.0000
vn 0.7764 0.6303 -0.0000
vn -0.0000 -1.0000 -0.0000
vn 0.5490 -0.6303 -0.5490
vn 0.5490 0.6303 -0.5490
vn -0.0000 1.0000 -0.0000
vt 0.622210 0.006553
vt 0.622211 0.215986
vt 0.612338 0.215986
vt 0.612338 0.006553
vt 0.763488 0.229092
vt 0.763488 0.438525
vt 0.753616 0.438525
vt 0.753616 0.229092
vt 0.743743 0.438525
vt 0.743743 0.229092
vt 0.632083 0.229092
vt 0.632083 0.438525
vt 0.622210 0.438525
vt 0.622211 0.229092
vt 0.612338 0.438525
vt 0.612338 0.229092
vt 0.599232 0.674170
vt 0.599232 0.883604
vt 0.589359 0.883604
vt 0.589359 0.674170
vt 0.488489 0.878496
vt 0.480933 0.870940
vt 0.480933 0.860253
vt 0.488489 0.852697
vt 0.499175 0.852697
vt 0.506731 0.860253
vt 0.506731 0.870940
vt 0.499175 0.878496
vt 0.579486 0.883604
vt 0.579486 0.674170
vt 0.632083 0.006553
vt 0.632083 0.215986
vt 0.545636 0.870940
vt 0.538080 0.878496
vt 0.527393 0.878496
vt 0.519837 0.870940
vt 0.519837 0.860253
vt 0.527393 0.852697
vt 0.538080 0.852697
vt 0.545636 0.860253
s 1
f 1/1/1 2/2/2 4/3/3 3/4/4
f 3/5/4 4/6/3 6/7/5 5/8/6
f 5/8/6 6/7/5 8/9/7 7/10/8
f 7/11/8 8/12/7 10/13/9 9/14/10
f 9/14/10 10/13/9 12/15/11 11/16/12
f 11/17/12 12/18/11 14/19/13 13/20/14
s 0
f 4/21/15 2/22/15 16/23/15 14/24/15 12/25/15 10/26/15 8/27/15 6/28/15
s 1
f 13/20/14 14/19/13 16/29/16 15/30/17
f 15/31/17 16/32/16 2/2/2 1/1/1
s 0
f 1/33/18 3/34/18 5/35/18 7/36/18 9/37/18 11/38/18 13/39/18 15/40/18
