# Blender 4.0.2
# www.blender.org
o rack_collision.002
v -0.052500 0.085000 0.079000
v -0.052500 0.010000 0.079000
v -0.056036 0.085000 0.080464
v -0.056036 0.010000 0.080464
v -0.057500 0.085000 0.084000
v -0.057500 0.010000 0.084000
v -0.056036 0.085000 0.087536
v -0.056036 0.010000 0.087536
v -0.052500 0.085000 0.089000
v -0.052500 0.010000 0.089000
v -0.048964 0.085000 0.087536
v -0.048964 0.010000 0.087536
v -0.047500 0.085000 0.084000
v -0.047500 0.010000 0.084000
v -0.048964 0.085000 0.080464
v -0.048964 0.010000 0.080464
vn -0.0000 0.6303 -0.7764
vn -0.0000 -0.6303 -0.7764
vn -0.5490 -0.6303 -0.5490
vn -0.5490 0.6303 -0.5490
vn -0.7764 -0.6303 -0.0000
vn -0.7764 0.6303 -0.0000
vn -0.5490 -0.6303 0.5490
vn -0.5490 0.6303 0.5490
vn -0.0000 -0.6303 0.7764
vn -0.0000 0.6303 0.7764
vn 0.5490 -0.6303 0.5490
vn 0.5490 0.6303 0.5490
vn 0.7764 -0.6303 -0.0000
vn 0.7764 0.6303 -0.0000
vn -0.0000 -1.0000 -0.0000
vn 0.5490 -0.6303 -0.5490
vn 0.5490 0.6303 -0.5490
vn -0.0000 1.0000 -0.0000
vt 0.490805 0.591253
vt 0.490805 0.800687
vt 0.480933 0.800687
vt 0.480933 0.591253
vt 0.894894 0.006553
vt 0.894894 0.215986
vt 0.885021 0.215986
vt 0.885021 0.006553
vt 0.875148 0.215986
vt 0.875148 0.006553
vt 0.467827 0.591253
vt 0.467827 0.800687
vt 0.457954 0.800687
vt 0.457954 0.591253
vt 0.448081 0.800687
vt 0.448081 0.591253
vt 0.960596 0.674170
vt 0.960596 0.883604
vt 0.950723 0.883604
vt 0.950723 0.674170
vt 0.024795 0.894171
vt 0.014109 0.894171
vt 0.006553 0.886615
vt 0.006553 0.875929
vt 0.014109 0.868372
vt 0.024795 0.868372
vt 0.032352 0.875929
vt 0.032352 0.886615
vt 0.940850 0.883604
vt 0.940850 0.674170
vt 0.500678 0.591253
vt 0.500678 0.800687
vt 0.434975 0.844728
vt 0.427419 0.852285
vt 0.416733 0.852285
vt 0.409177 0.844728
vt 0.409177 0.834042
vt 0.416733 0.826486
vt 0.427419 0.826486
vt 0.434975 0.834042
s 1
f 1/1/1 2/2/2 4/3/3 3/4/4
f 3/5/4 4/6/3 6/7/5 5/8/6
f 5/8/6 6/7/5 8/9/7 7/10/8
f 7/11/8 8/12/7 10/13/9 9/14/10
f 9/14/10 10/13/9 12/15/11 11/16/12
f 11/17/12 12/18/11 14/19/13 13/20/14
s 0
f 4/21/15 2/22/15 16/23/15 14/24/15 12/25/15 10/26/15 8/27/15 6/28/15
s 1
f 13/20/14 14/19/13 16/29/16 15/30/17
f 15/31/17 16/32/16 2/2/2 1/1/1
s 0
f 1/33/18 3/34/18 5/35/18 7/36/18 9/37/18 11/38/18 13/39/18 15/40/18
