# Blender 4.1.1
# www.blender.org
o soap_collision.001
v 0.019490 -0.000000 -0.007207
v -0.019490 -0.000000 -0.007207
v -0.019490 -0.000000 0.007161
v 0.019490 -0.000000 0.007161
v -0.012354 -0.000000 -0.013699
v -0.010723 -0.000000 0.013789
v 0.010723 -0.000000 0.013789
v 0.012353 -0.000000 -0.013699
v 0.021791 -0.000000 -0.000023
v -0.021791 -0.000000 -0.000023
v -0.000000 -0.000000 0.016041
v -0.000000 -0.000000 -0.016087
v 0.027058 0.006235 0.009951
v -0.000000 0.006235 -0.022324
v 0.027058 0.006235 -0.009996
v 0.014887 0.006235 0.019369
v 0.030252 0.006235 -0.000023
v 0.017150 0.006235 -0.019278
v -0.014887 0.006235 0.019369
v -0.000000 0.006235 0.022279
v -0.017150 0.006235 -0.019278
v -0.027058 0.006235 -0.009996
v -0.030252 0.006235 -0.000023
v -0.027058 0.006235 0.009951
v 0.022437 0.002222 0.008248
v -0.000000 0.002222 -0.018516
v 0.022437 0.002222 -0.008293
v 0.012345 0.002222 0.015962
v 0.025086 0.002222 -0.000023
v 0.014222 0.002222 -0.015872
v -0.012345 0.002222 0.015962
v -0.000000 0.002222 0.018471
v -0.014222 0.002222 -0.015872
v -0.022438 0.002222 -0.008293
v -0.025086 0.002222 -0.000023
v -0.022438 0.002222 0.008248
v 0.036524 0.066476 0.014068
v -0.000000 0.045738 -0.029600
v 0.036524 0.066476 -0.014113
v 0.019123 0.051462 0.026238
v 0.041940 0.068999 -0.000023
v 0.022030 0.051571 -0.026148
v -0.019123 0.051462 0.026238
v -0.000000 0.045738 0.029555
v -0.022030 0.051571 -0.026148
v -0.036524 0.066476 -0.014113
v -0.041940 0.068999 -0.000023
v -0.036524 0.066476 0.014068
v 0.033410 0.029982 0.012459
v 0.033410 0.029982 -0.012504
v 0.018417 0.024020 0.021468
v 0.038073 0.033315 -0.000023
v 0.021217 0.024020 -0.021378
v -0.018417 0.024020 0.021468
v -0.021217 0.024020 -0.021378
v -0.033410 0.029982 -0.012504
v -0.038073 0.033315 -0.000023
v -0.033410 0.029982 0.012459
v -0.007829 0.145911 0.004221
v 0.007506 0.145911 0.004597
v -0.007599 0.145911 -0.004641
v -0.008906 0.145911 -0.000023
v 0.004682 0.145911 -0.007491
v 0.000002 0.145911 -0.008864
v -0.004282 0.145911 -0.007789
v -0.004585 0.145911 0.007594
v 0.008800 0.145911 -0.000023
v 0.007610 0.145911 -0.004444
v 0.000002 0.145911 0.008842
v 0.003955 0.145911 0.007882
v -0.000001 0.138721 -0.015389
v -0.000001 0.138721 0.015385
v -0.015475 0.138721 -0.000022
v 0.015299 0.138721 -0.000022
v 0.008135 0.138721 -0.013007
v 0.006871 0.138721 0.013721
v -0.007972 0.138721 0.013212
v -0.007446 0.138721 -0.013516
v 0.013047 0.138721 0.008012
v -0.013611 0.138721 0.007340
v -0.013206 0.138721 -0.008045
v 0.013229 0.138721 -0.007711
v 0.011610 0.141248 -0.006770
v -0.011946 0.141248 0.006442
v 0.006031 0.141248 0.012041
v 0.007140 0.141248 -0.011419
v -0.000001 0.141248 -0.013509
v -0.006536 0.141248 -0.011866
v -0.006998 0.141248 0.011594
v -0.000001 0.141248 0.013502
v 0.011451 0.141248 0.007030
v 0.013428 0.141248 -0.000022
v -0.011592 0.141248 -0.007064
v -0.013584 0.141248 -0.000022
vn -0.4683 -0.8031 0.3685
vn -0.2741 -0.7373 0.6174
vn -0.5041 -0.7823 0.3660
vn -0.2867 -0.7514 -0.5943
vn -0.4846 -0.8084 -0.3342
vn -0.5179 -0.7869 -0.3356
vn 0.2741 -0.7373 0.6174
vn 0.4683 -0.8031 0.3685
vn 0.5041 -0.7823 0.3660
vn 0.3638 -0.4625 0.8086
vn 0.6997 -0.5151 0.4951
vn 0.8228 -0.1896 -0.5358
vn 0.8428 -0.5382 -0.0000
vn 0.7195 -0.5229 -0.4571
vn -0.8008 -0.1844 0.5698
vn -0.8428 -0.5382 -0.0000
vn -0.6997 -0.5151 0.4951
vn -0.8228 -0.1896 -0.5358
vn -0.9846 -0.1750 -0.0000
vn 0.4846 -0.8084 -0.3342
vn 0.2867 -0.7514 -0.5943
vn 0.5179 -0.7869 -0.3356
vn -0.3906 -0.4737 -0.7894
vn -0.7195 -0.5229 -0.4571
vn 0.3906 -0.4737 -0.7894
vn 0.5909 -0.8068 -0.0000
vn -0.5909 -0.8068 -0.0000
vn -0.3638 -0.4625 0.8086
vn 0.8008 -0.1844 0.5698
vn 0.9846 -0.1750 -0.0000
vn -0.2507 -0.7613 0.5980
vn -0.2577 -0.7741 -0.5783
vn 0.2507 -0.7613 0.5980
vn 0.2577 -0.7741 -0.5783
vn -0.8005 0.5992 -0.0123
vn -0.7241 0.4384 -0.5325
vn -0.8832 0.4689 -0.0069
vn 0.7163 0.4350 0.5456
vn 0.3813 0.5964 0.7063
vn 0.3609 0.3877 0.8482
vn -0.6857 0.5987 -0.4139
vn -0.3722 0.3928 -0.8409
vn -0.7294 0.4386 0.5249
vn -0.0127 0.5975 0.8018
vn -0.0083 0.3741 0.9274
vn 0.7001 0.5951 -0.3945
vn 0.8839 0.4676 0.0025
vn 0.7326 0.4390 -0.5201
vn 0.0172 0.5967 -0.8023
vn 0.3931 0.3932 -0.8312
vn 0.0102 0.3738 -0.9275
vn -0.4085 0.5985 0.6891
vn -0.3839 0.3894 0.8372
vn 0.6854 0.5956 0.4189
vn -0.3863 0.5979 -0.7024
vn -0.6995 0.5992 0.3894
vn 0.8037 0.5951 0.0046
vn 0.4152 0.5957 -0.6876
vn -0.9900 0.1409 -0.0016
vn -0.8021 0.1180 -0.5854
vn 0.8035 0.1193 -0.5833
vn 0.9899 0.1421 0.0005
vn -0.0000 -0.7165 0.6976
vn -0.0000 -0.4403 0.8979
vn -0.4585 -0.1788 0.8705
vn -0.3913 0.0039 0.9202
vn -0.7871 0.1080 0.6073
vn -0.4228 0.0037 -0.9062
vn 0.4264 0.0048 -0.9045
vn -0.4772 -0.1960 -0.8567
vn 0.4772 -0.1960 -0.8567
vn 0.5590 -0.8292 -0.0000
vn 0.3372 0.7058 0.6231
vn -0.0112 0.7068 0.7073
vn -0.0090 0.7068 0.7073
vn 0.3329 0.7058 0.6253
vn -0.0024 -0.0385 0.9993
vn 0.4585 -0.1788 0.8705
vn 0.3871 0.0030 0.9220
vn 0.0026 -0.0344 -0.9994
vn -0.0000 -0.7433 0.6690
vn -0.0000 -0.4421 -0.8969
vn -0.0000 -0.7179 -0.6962
vn -0.7059 0.7082 -0.0111
vn -0.7059 0.7082 -0.0087
vn -0.6176 0.7083 0.3420
vn -0.6166 0.7082 0.3437
vn -0.3610 0.7077 0.6073
vn -0.3599 0.7077 0.6079
vn 0.6053 0.7050 0.3697
vn 0.6049 0.7050 0.3702
vn 0.0158 0.7057 -0.7084
vn 0.3666 0.7048 -0.6074
vn 0.3687 0.7048 -0.6061
vn 0.0123 0.7057 -0.7084
vn 0.6186 0.7043 -0.3482
vn 0.6176 0.7044 -0.3499
vn -0.6048 0.7077 -0.3652
vn -0.6047 0.7077 -0.3655
vn -0.5590 -0.8292 -0.0000
vn -0.3408 0.7068 -0.6200
vn -0.3411 0.7068 -0.6198
vn -0.0000 -0.7445 -0.6676
vn -0.0000 1.0000 -0.0000
vn 0.7844 0.1082 0.6107
vn -0.0000 -1.0000 -0.0000
vn 0.7098 0.7044 0.0041
vn 0.7098 0.7044 0.0033
vt 0.474036 0.467605
vt 0.494302 0.481096
vt 0.469038 0.474200
vt 0.677731 0.482722
vt 0.694466 0.468940
vt 0.699347 0.475616
vt 0.543363 0.489834
vt 0.566919 0.486452
vt 0.567692 0.494233
vt 0.543081 0.500542
vt 0.568170 0.505351
vt 0.601502 0.541147
vt 0.584208 0.506877
vt 0.600335 0.505513
vt 0.447134 0.530171
vt 0.442063 0.474758
vt 0.462001 0.484966
vt 0.720914 0.531363
vt 0.726147 0.476445
vt 0.749530 0.533472
vt 0.601606 0.486437
vt 0.622163 0.491900
vt 0.600848 0.494297
vt 0.682016 0.493159
vt 0.706250 0.486507
vt 0.621996 0.502559
vt 0.584240 0.495259
vt 0.452876 0.463519
vt 0.715565 0.465195
vt 0.490284 0.491618
vt 0.566384 0.540873
vt 0.583899 0.546219
vt 0.497146 0.474422
vt 0.674605 0.476078
vt 0.543340 0.482715
vt 0.418331 0.532219
vt 0.622597 0.484715
vt 0.366153 0.706275
vt 0.373163 0.690798
vt 0.373163 0.711246
vt 0.373163 0.575895
vt 0.366153 0.556427
vt 0.373163 0.555097
vt 0.366153 0.687647
vt 0.373163 0.671537
vt 0.373163 0.495523
vt 0.366153 0.480815
vt 0.373163 0.475820
vt 0.366153 0.539007
vt 0.373163 0.537284
vt 0.366153 0.614263
vt 0.373163 0.595932
vt 0.373163 0.614924
vt 0.366153 0.651133
vt 0.373163 0.632550
vt 0.373163 0.652976
vt 0.366153 0.518663
vt 0.373163 0.516264
vt 0.366153 0.576593
vt 0.366153 0.669150
vt 0.366153 0.498792
vt 0.366153 0.595975
vt 0.366153 0.631368
vt 0.417984 0.614248
vt 0.721134 0.602704
vt 0.601331 0.590480
vt 0.583678 0.593367
vt 0.518979 0.485766
vt 0.517216 0.495775
vt 0.547818 0.842864
vt 0.480290 0.523018
vt 0.480182 0.572351
vt 0.446204 0.602102
vt 0.691872 0.573422
vt 0.625774 0.571732
vt 0.692225 0.524085
vt 0.621923 0.530959
vt 0.708212 0.432949
vt 0.715854 0.419209
vt 0.557872 0.876297
vt 0.553248 0.882676
vt 0.532273 0.788507
vt 0.545411 0.791715
vt 0.510452 0.562454
vt 0.542397 0.529804
vt 0.538351 0.571142
vt 0.657369 0.563009
vt 0.664718 0.443164
vt 0.687612 0.442981
vt 0.651292 0.496927
vt 0.649671 0.486993
vt 0.540143 0.911001
vt 0.502569 0.817888
vt 0.506194 0.803816
vt 0.543676 0.900910
vt 0.517015 0.792623
vt 0.548172 0.891231
vt 0.563498 0.869891
vt 0.557209 0.802650
vt 0.587430 0.854945
vt 0.580140 0.857751
vt 0.532264 0.847444
vt 0.574570 0.860590
vt 0.557550 0.832726
vt 0.749209 0.615107
vt 0.603497 0.851395
vt 0.506967 0.833463
vt 0.520155 0.479229
vt 0.627067 0.401096
vt 0.708716 0.459109
vt 0.000000 0.000000
vt 0.518016 0.843895
vt 0.648600 0.480561
vt 0.594908 0.852897
vt 0.613332 0.850790
vt 0.569154 0.864634
vt 0.566158 0.590348
vt 0.561507 0.818020
vt 0.584243 0.486776
vt 0.714166 0.403578
vt 0.459859 0.457497
vt 0.634732 0.387376
vt 0.651954 0.377002
vt 0.678175 0.377184
s 1
f 3/1/1 31/2/2 36/3/3
f 33/4/4 2/5/5 34/6/6
f 28/7/7 4/8/8 25/9/9
f 16/10/10 25/9/9 13/11/11
f 50/12/12 17/13/13 15/14/14
f 58/15/15 23/16/16 24/17/17
f 56/18/18 23/19/16 57/20/19
f 1/21/20 30/22/21 27/23/22
f 21/24/23 34/6/6 22/25/24
f 18/26/25 27/23/22 30/22/21
f 15/14/14 29/27/26 27/23/22
f 24/17/17 35/28/27 36/3/3
f 22/25/24 35/29/27 23/19/16
f 19/30/28 36/3/3 31/2/2
f 13/11/11 29/27/26 17/13/13
f 49/31/29 17/13/13 52/32/30
f 3/1/1 6/33/31 31/2/2
f 33/4/4 5/34/32 2/5/5
f 28/7/7 7/35/33 4/8/8
f 16/10/10 28/7/7 25/9/9
f 50/12/12 52/32/30 17/13/13
f 58/15/15 57/36/19 23/16/16
f 56/18/18 22/25/24 23/19/16
f 1/21/20 8/37/34 30/22/21
f 21/24/23 33/4/4 34/6/6
f 18/26/25 15/14/14 27/23/22
f 15/14/14 17/13/13 29/27/26
f 24/17/17 23/16/16 35/28/27
f 22/25/24 34/6/6 35/29/27
f 19/30/28 24/17/17 36/3/3
f 13/11/11 25/9/9 29/27/26
f 49/31/29 13/11/11 17/13/13
f 94/38/35 81/39/36 73/40/37
f 79/41/38 85/42/39 76/43/40
f 93/44/41 78/45/42 81/39/36
f 80/46/43 94/47/35 73/48/37
f 76/43/40 90/49/44 72/50/45
f 83/51/46 74/52/47 82/53/48
f 87/54/49 75/55/50 71/56/51
f 72/50/45 89/57/52 77/58/53
f 94/38/35 93/44/41 81/39/36
f 79/41/38 91/59/54 85/42/39
f 93/44/41 88/60/55 78/45/42
f 80/46/43 84/61/56 94/47/35
f 76/43/40 85/42/39 90/49/44
f 83/51/46 92/62/57 74/52/47
f 87/54/49 86/63/58 75/55/50
f 72/50/45 90/49/44 89/57/52
f 47/64/59 73/48/37 81/39/36 46/65/60
f 50/12/12 39/66/61 41/67/62 52/32/30
f 19/30/28 31/2/2 32/68/63 20/69/64
f 86/70/58 83/51/46 82/53/48 75/55/50
f 82/53/48 74/52/47 41/67/62 39/66/61
f 58/15/15 54/71/65 43/72/66 48/73/67
f 46/65/60 81/39/36 78/45/42 45/74/68
f 58/15/15 24/17/17 19/30/28 54/71/65
f 42/75/69 39/66/61 50/12/12
f 56/18/18 55/76/70 21/24/23 22/25/24
f 53/77/71 42/75/69 50/12/12
f 80/46/43 48/73/67 43/72/66 77/58/53
f 4/78/8 9/79/72 29/27/26 25/9/9
f 70/80/73 69/81/74 90/82/75 85/83/76
f 19/30/28 20/69/64 44/84/77 43/72/66
f 16/10/10 51/85/78 40/86/79
f 71/56/51 75/55/50 42/75/69 38/87/80
f 11/88/81 7/89/33 28/7/7 32/68/63
f 53/77/71 18/26/25 42/75/69
f 21/24/23 45/74/68 38/87/80 14/90/82
f 77/58/53 43/72/66 44/84/77 72/50/45
f 21/24/23 14/90/82 26/91/83 33/4/4
f 62/92/84 94/93/85 84/94/86 59/95/87
f 59/95/87 84/94/86 89/96/88 66/97/89
f 60/98/90 70/80/73 85/83/76 91/99/91
f 64/100/92 63/101/93 86/70/94 87/102/95
f 63/101/93 68/103/96 83/104/97 86/70/94
f 66/97/89 89/96/88 90/82/75 69/81/74
f 47/105/59 46/65/60 56/18/18 57/36/19
f 94/93/85 62/92/84 61/106/98 93/107/99
f 32/68/63 28/7/7 16/10/10 20/69/64
f 26/91/83 14/90/82 18/26/25 30/22/21
f 6/33/31 11/108/81 32/68/63 31/2/2
f 2/5/5 10/109/100 35/29/27 34/6/6
f 35/29/27 10/110/100 3/1/1 36/3/3
f 93/107/99 61/106/98 65/111/101 88/112/102
f 72/50/45 44/84/77 40/86/79 76/43/40
f 80/46/43 77/58/53 89/96/52 84/61/56
f 5/34/32 33/4/4 26/91/83 12/113/103
f 16/10/10 13/11/11 49/31/29 51/85/78
f 12/113/103 26/91/83 30/22/21 8/37/34
f 14/90/82 38/87/80 42/75/69 18/26/25
f 45/74/68 78/45/42 71/111/51 38/87/80
f 64/100/104 65/114/104 61/106/104
f 64/100/104 61/106/104 62/115/104
f 64/100/104 62/115/104 59/95/104
f 64/100/104 59/95/104 66/97/104
f 64/100/104 66/97/104 69/81/104
f 64/100/104 69/81/104 70/80/104
f 64/100/104 70/80/104 60/98/104
f 64/100/104 60/98/104 67/116/104
f 64/100/104 67/116/104 68/103/104
f 64/100/104 68/103/104 63/101/104
f 54/71/65 19/30/28 43/72/66
f 40/86/79 51/85/78 49/111/29 37/117/105
f 18/26/25 53/77/71 50/12/12 15/14/14
f 92/118/57 91/99/54 79/41/38 74/52/47
f 44/84/77 20/69/64 16/111/10 40/86/79
f 6/33/106 12/111/106 11/108/106
f 12/111/106 7/89/106 11/88/106
f 12/111/106 4/78/106 7/89/106
f 12/111/106 9/79/106 4/78/106
f 12/111/106 1/21/106 9/119/106
f 12/113/106 8/37/106 1/120/106
f 76/43/40 40/86/79 37/117/105 79/41/38
f 55/76/70 45/74/68 21/24/23
f 55/76/70 56/18/18 45/74/68
f 56/18/18 46/65/60 45/74/68
f 75/55/50 82/53/48 39/66/61 42/75/69
f 6/33/106 3/1/106 12/111/106
f 3/1/106 10/121/106 12/111/106
f 10/109/106 2/122/106 12/111/106
f 2/122/106 5/123/106 12/124/106
f 67/116/107 92/118/108 83/104/97 68/103/96
f 49/31/29 52/32/30 41/67/62 37/117/105
f 78/45/42 88/60/55 87/54/49 71/56/51
f 73/48/37 47/64/59 48/73/67 80/46/43
f 65/114/101 64/100/92 87/102/95 88/112/102
f 1/21/20 27/23/22 29/27/26 9/119/72
f 47/64/59 57/36/19 58/111/15 48/73/67
f 79/41/38 37/117/105 41/67/62 74/52/47
f 60/98/90 91/99/91 92/118/108 67/116/107
