# Blender 4.1.1
# www.blender.org
o soap_collision.002
v -0.002566 0.140192 -0.002589
v -0.002566 0.140192 0.002544
v -0.000000 0.140192 0.003607
v -0.003629 0.140192 -0.000023
v -0.000000 0.140192 -0.003652
v 0.003629 0.140192 -0.000023
v 0.002566 0.140192 0.002544
v 0.002566 0.140192 -0.002589
v -0.000080 0.153252 0.009560
v -0.000080 0.153252 -0.009606
v 0.004206 0.153252 -0.008594
v 0.009503 0.153252 -0.000023
v 0.008353 0.153252 0.005022
v 0.007994 0.153252 -0.005426
v 0.004206 0.153252 0.008549
v 0.002193 0.160170 0.007029
v 0.005359 0.160420 -0.004470
v 0.005653 0.160447 0.004127
v 0.006531 0.160571 -0.000024
v 0.002193 0.160170 -0.007077
v -0.001316 0.159845 -0.007910
v -0.006865 0.159547 0.006670
v -0.001316 0.159845 0.007861
v -0.006865 0.159547 -0.006719
v 0.010071 0.156193 -0.000023
v 0.008697 0.156193 0.005711
v 0.008289 0.156193 -0.006165
v 0.004049 0.156193 -0.009766
v 0.004049 0.156193 0.009721
v -0.008525 0.156193 -0.008847
v -0.000823 0.156193 0.010871
v -0.008525 0.156193 0.008802
v -0.000823 0.156193 -0.010916
v -0.010623 0.159497 -0.000023
v -0.000294 0.161616 -0.000023
v -0.020318 0.153264 0.003756
v -0.020318 0.153264 -0.003801
v -0.020875 0.153264 -0.000023
v -0.020318 0.156348 0.002482
v -0.020313 0.156715 -0.000023
v -0.020318 0.156348 -0.002527
v -0.020136 0.155125 -0.003878
v -0.020136 0.155125 0.003833
vn -0.2495 0.9684 -0.0000
vn -0.3265 0.8575 0.3976
vn -0.2395 0.8474 0.4738
vn 0.9729 0.2300 -0.0221
vn 0.4517 0.8372 0.3084
vn 0.8292 0.2076 0.5190
vn -0.0239 0.1231 0.9921
vn -0.3256 0.1392 0.9352
vn 0.1882 0.8403 0.5084
vn -0.0587 0.8296 0.5552
vn -0.3256 0.1389 -0.9352
vn -0.5211 -0.5219 -0.6753
vn -0.3988 0.3510 -0.8472
vn -0.0239 0.1228 -0.9921
vn 0.1859 0.8404 -0.5090
vn 0.4295 0.1619 -0.8884
vn -0.9886 0.1059 0.1071
vn -0.9843 0.0674 0.1633
vn -0.9737 0.0870 0.2106
vn -0.9843 0.0674 -0.1633
vn -0.9886 0.1059 -0.1071
vn -0.9737 0.0870 -0.2106
vn -0.2396 0.8473 -0.4740
vn -0.0587 0.8295 -0.5555
vn 0.4429 0.8369 -0.3217
vn 0.8137 0.2073 -0.5430
vn 0.8347 -0.2172 -0.5061
vn 0.9816 -0.1893 -0.0244
vn 0.8474 -0.2192 0.4836
vn -0.0328 0.9995 -0.0002
vn 0.5328 0.8461 -0.0154
vn -0.3266 0.8574 -0.3977
vn -0.2760 0.9612 -0.0000
vn -0.9945 0.1045 -0.0000
vn -0.9870 0.1607 -0.0000
vn 0.4323 0.1623 0.8870
vn -0.3987 0.3512 0.8472
vn -0.5211 -0.5219 0.6753
vn 0.6238 -0.7815 -0.0095
vn 0.4235 -0.7993 -0.4264
vn 0.7575 -0.4159 -0.5032
vn 0.9046 -0.4260 -0.0119
vn -0.3825 -0.9239 -0.0000
vn -0.5951 -0.8037 -0.0000
vn -0.2921 -0.8727 -0.3913
vn 0.1097 -0.3997 -0.9100
vn -0.0047 -0.7933 -0.6089
vn 0.4607 -0.3038 0.8339
vn 0.1097 -0.3997 0.9100
vn 0.4242 -0.4135 -0.8057
vn 0.7670 -0.4204 0.4848
vn 0.4240 -0.8021 0.4206
vn -0.0047 -0.7933 0.6088
vn -0.2921 -0.8727 0.3913
vn 0.4273 -0.4132 0.8042
vn 0.4565 -0.3049 -0.8358
vt 0.562632 0.746267
vt 0.534588 0.739046
vt 0.571775 0.729768
vt 0.622427 0.727355
vt 0.602863 0.730117
vt 0.609133 0.718860
vt 0.584195 0.715515
vt 0.565635 0.720640
vt 0.592990 0.726499
vt 0.584752 0.726224
vt 0.565638 0.771898
vt 0.531309 0.762972
vt 0.534212 0.758606
vt 0.584207 0.777025
vt 0.593005 0.766032
vt 0.595655 0.777296
vt 0.522311 0.734522
vt 0.510387 0.729171
vt 0.517715 0.729015
vt 0.509870 0.759078
vt 0.521972 0.754142
vt 0.517188 0.759487
vt 0.571780 0.762773
vt 0.584762 0.766313
vt 0.602046 0.762752
vt 0.607995 0.774108
vt 0.612293 0.780925
vt 0.622594 0.765068
vt 0.626504 0.772865
vt 0.613397 0.712112
vt 0.591400 0.746265
vt 0.610382 0.753976
vt 0.610283 0.738477
vt 0.534589 0.753492
vt 0.534854 0.746269
vt 0.509870 0.744120
vt 0.523563 0.744357
vt 0.595626 0.715237
vt 0.534212 0.733932
vt 0.531309 0.729567
vt 0.462577 0.024859
vt 0.462577 0.019565
vt 0.626452 0.719621
vt 0.462577 0.003680
vt 0.462577 0.008975
vt 0.585391 0.785850
vt 0.000000 0.000000
vt 0.598561 0.707303
vt 0.490039 0.893291
vt 0.598597 0.785258
vt 0.502809 0.904447
vt 0.462577 0.030154
vt 0.462577 0.035448
vt 0.462577 0.040742
vt 0.462577 0.046037
vt 0.462577 0.014270
vt 0.487069 0.856129
vt 0.492987 0.852855
vt 0.494383 0.899766
vt 0.585379 0.706699
s 1
f 34/1/1 39/2/2 22/3/3
f 25/4/4 18/5/5 26/6/6
f 31/7/7 22/3/3 32/8/8
f 31/7/7 16/9/9 23/10/10
f 30/11/11 37/12/12 42/13/13
f 33/14/14 20/15/15 28/16/16
f 39/17/17 36/18/18 43/19/19
f 37/20/20 41/21/21 42/22/22
f 33/14/14 24/23/23 21/24/24
f 28/16/16 17/25/25 27/26/26
f 14/27/27 25/28/4 12/29/28
f 13/30/29 25/4/4 26/6/6
f 35/31/30 16/9/9 18/5/5
f 35/31/30 19/32/31 17/25/25
f 35/31/30 18/5/5 19/33/31
f 20/15/15 35/31/30 17/25/25
f 35/31/30 21/24/24 24/23/23
f 35/31/30 34/1/1 22/3/3
f 35/31/30 23/10/10 16/9/9
f 21/24/24 35/31/30 20/15/15
f 34/1/1 41/34/32 40/35/33
f 38/36/34 41/21/21 37/20/20
f 38/36/34 39/17/17 40/37/35
f 23/10/10 35/31/30 22/3/3
f 34/1/1 35/31/30 24/23/23
f 29/38/36 18/5/5 16/9/9
f 34/1/1 40/35/33 39/2/2
f 25/4/4 19/33/31 18/5/5
f 31/7/7 23/10/10 22/3/3
f 31/7/7 29/38/36 16/9/9
f 33/14/14 21/24/24 20/15/15
f 33/14/14 30/11/11 24/23/23
f 32/8/8 43/39/37 36/40/38
f 28/16/16 20/15/15 17/25/25
f 6/41/39 8/42/40 14/27/41 12/29/42
f 14/27/27 27/26/26 25/28/4
f 13/30/29 12/43/28 25/4/4
f 34/1/1 24/23/23 41/34/32
f 38/36/34 40/37/35 41/21/21
f 38/36/34 36/18/18 39/17/17
f 29/38/36 26/6/6 18/5/5
f 4/44/43 38/36/44 37/12/12 1/45/45
f 10/46/46 5/47/47 33/14/14
f 5/47/47 30/11/11 33/14/14
f 5/47/47 37/12/12 30/11/11
f 15/48/48 29/38/36 31/7/7 9/49/49
f 14/27/41 8/47/40 11/50/50
f 13/51/51 7/52/52 6/47/39 12/29/42
f 8/42/40 6/41/39 7/52/52
f 8/42/40 7/52/52 3/53/53
f 8/42/40 3/53/53 2/54/54
f 8/42/40 2/54/54 4/55/43
f 8/42/40 4/55/43 1/45/45
f 8/42/40 1/45/45 5/56/47
f 1/45/45 37/12/12 5/47/47
f 2/54/54 36/57/38 38/58/44 4/44/43
f 13/30/29 26/6/6 29/38/36 15/48/48
f 15/59/55 9/49/49 3/53/53 7/52/52
f 43/39/37 32/8/8 22/3/3 39/2/2
f 42/22/13 41/21/32 24/23/23 30/11/11
f 19/32/31 25/28/4 27/26/26 17/25/25
f 2/54/54 3/53/53 36/57/38
f 3/53/53 32/8/8 36/40/38
f 3/53/53 31/7/7 32/8/8
f 3/53/53 9/60/49 31/7/7
f 11/50/56 10/46/46 33/14/14 28/16/16
f 14/27/27 11/50/56 28/16/16 27/26/26
f 15/48/55 7/52/52 13/51/51
f 5/47/47 10/46/46 11/50/50 8/42/40
