# Blender 4.1.1
# www.blender.org
o box
v -0.125000 -0.060000 0.100000
v 0.125000 -0.060000 0.100000
v -0.125000 0.060000 0.100000
v 0.125000 0.060000 0.100000
v -0.125000 0.060000 -0.100000
v 0.125000 0.060000 -0.100000
v -0.125000 -0.060000 -0.100000
v 0.125000 -0.060000 -0.100000
vn -0.0000 -0.0000 1.0000
vn -0.0000 1.0000 -0.0000
vn -0.0000 -0.0000 -1.0000
vn -0.0000 -1.0000 -0.0000
vn 1.0000 -0.0000 -0.0000
vn -1.0000 -0.0000 -0.0000
vt 0.661960 0.675325
vt 0.351404 0.680517
vt 0.348732 0.520673
vt 0.659287 0.515480
vt 0.344532 0.269488
vt 0.655087 0.264296
vt 0.341859 0.109643
vt 0.652415 0.104451
vt 0.666159 0.926510
vt 0.355604 0.931702
vt 0.188887 0.523345
vt 0.184687 0.272161
vt 0.814932 0.261623
vt 0.819132 0.512808
s 1
f 1/1/1 2/2/1 4/3/1 3/4/1
f 3/4/2 4/3/2 6/5/2 5/6/2
f 5/6/3 6/5/3 8/7/3 7/8/3
f 7/9/4 8/10/4 2/2/4 1/1/4
f 2/11/5 8/12/5 6/5/5 4/3/5
f 7/13/6 1/14/6 3/4/6 5/6/6
