# Blender 4.0.2
# www.blender.org
o dish_washer_mid_sprinkle
v -0.191648 0.005682 0.007366
v -0.189747 0.005682 0.012574
v -0.185159 0.005682 0.014731
v 0.191648 0.005682 0.007366
v 0.185159 0.005682 0.014731
v 0.189747 0.005682 0.012574
v -0.189747 0.005682 -0.012574
v -0.191648 0.005682 -0.007366
v -0.185159 0.005682 -0.014731
v 0.189747 0.005682 -0.012574
v 0.185159 0.005682 -0.014731
v 0.191648 0.005682 -0.007366
v -0.185159 -0.004318 0.007366
v 0.185159 -0.004318 0.007366
v 0.185159 -0.004318 -0.007366
v -0.185159 -0.004318 -0.007366
v -0.185159 0.005682 0.007366
v 0.185159 0.005682 0.007366
v 0.185159 0.005682 -0.007366
v -0.185159 0.005682 -0.007366
v -0.185159 -0.001818 0.014731
v -0.184721 -0.004318 0.012231
v 0.185159 -0.001818 0.014731
v 0.184721 -0.004318 0.012231
v -0.191648 -0.001818 0.007366
v -0.189446 -0.004318 0.006869
v -0.191648 -0.001818 -0.007366
v -0.189446 -0.004318 -0.006869
v -0.185159 -0.001818 -0.014731
v -0.184721 -0.004318 -0.012231
v 0.185159 -0.001818 -0.014731
v 0.184721 -0.004318 -0.012231
v 0.191648 -0.001818 0.007366
v 0.189446 -0.004318 0.006869
v 0.191648 -0.001818 -0.007366
v 0.189446 -0.004318 -0.006869
v -0.189747 -0.001818 0.012574
v -0.188062 -0.004318 0.010661
v 0.189747 -0.001818 0.012574
v 0.188062 -0.004318 0.010661
v -0.189747 -0.001818 -0.012574
v -0.188062 -0.004318 -0.010661
v 0.189747 -0.001818 -0.012574
v 0.188062 -0.004318 -0.010661
vn -0.0000 1.0000 -0.0000
vn -0.0000 -1.0000 -0.0000
vn -0.0034 -0.7074 0.7068
vn -0.0037 -0.7074 0.7068
vn 0.0037 -0.7074 0.7068
vn 0.0034 -0.7074 0.7068
vn -0.3039 -0.6998 0.6465
vn 0.3039 -0.6998 0.6465
vn -0.7419 -0.6671 0.0672
vn -0.7425 -0.6668 0.0633
vn -0.6997 -0.6673 0.2554
vn -0.7420 -0.6671 0.0672
vn -0.7420 -0.6671 -0.0672
vn -0.7425 -0.6668 -0.0633
vn -0.7419 -0.6671 -0.0672
vn -0.6997 -0.6673 -0.2554
vn -0.0034 -0.7074 -0.7068
vn -0.0037 -0.7074 -0.7068
vn -0.3039 -0.6998 -0.6465
vn 0.0034 -0.7074 -0.7068
vn 0.0037 -0.7074 -0.7068
vn 0.3039 -0.6998 -0.6465
vn 0.7419 -0.6671 0.0672
vn 0.7425 -0.6668 0.0633
vn 0.7425 -0.6668 -0.0633
vn 0.7419 -0.6671 -0.0672
vn 0.6997 -0.6673 0.2554
vn 0.6997 -0.6673 -0.2554
vn -0.0058 -0.0000 1.0000
vn 0.0058 -0.0000 1.0000
vn 0.0058 -0.0000 -1.0000
vn -0.0058 -0.0000 -1.0000
vn 0.9955 -0.0000 0.0949
vn 0.9955 -0.0000 -0.0949
vn -0.9955 -0.0000 -0.0949
vn -0.9955 -0.0000 0.0949
vn -0.9955 0.0001 0.0949
vn -0.9394 -0.0000 0.3428
vn -0.4255 -0.0000 0.9050
vn 0.4255 -0.0000 0.9050
vn 0.9394 -0.0000 0.3428
vn 0.9955 -0.0001 0.0949
vn -0.9955 -0.0001 -0.0949
vn -0.9394 -0.0000 -0.3428
vn -0.4255 -0.0000 -0.9050
vn 0.4255 -0.0000 -0.9050
vn 0.9394 -0.0000 -0.3428
vn 0.9955 0.0001 -0.0949
vt 0.076513 0.069015
vt 0.076513 0.071967
vt 0.069811 0.071967
vt 0.069811 0.069015
vt 0.069811 0.243382
vt 0.069811 0.240430
vt 0.076513 0.240430
vt 0.076513 0.243382
vt 0.070632 0.239565
vt 0.070632 0.071102
vt 0.077334 0.071102
vt 0.077334 0.239565
vt 0.066460 0.240430
vt 0.067442 0.242517
vt 0.066460 0.071967
vt 0.067442 0.069880
vt 0.079863 0.071967
vt 0.078882 0.069880
vt 0.079863 0.240430
vt 0.078882 0.242517
vt 0.080685 0.239565
vt 0.079547 0.239366
vt 0.079547 0.071302
vt 0.080685 0.071102
vt 0.079703 0.241652
vt 0.078833 0.240886
vt 0.078833 0.069782
vt 0.079703 0.069015
vt 0.077043 0.071384
vt 0.075906 0.071610
vt 0.075906 0.069885
vt 0.077043 0.069015
vt 0.077043 0.078086
vt 0.075906 0.077860
vt 0.077043 0.080455
vt 0.075906 0.079585
vt 0.067282 0.239565
vt 0.068419 0.239366
vt 0.069134 0.240886
vt 0.068263 0.241652
vt 0.067282 0.071102
vt 0.068419 0.071302
vt 0.068263 0.069015
vt 0.069134 0.069782
vt 0.068647 0.078086
vt 0.067510 0.077860
vt 0.067510 0.071610
vt 0.068647 0.071384
vt 0.068647 0.080455
vt 0.067510 0.079585
vt 0.067510 0.069885
vt 0.068647 0.069015
vt 0.070227 0.239565
vt 0.066815 0.239565
vt 0.066815 0.071102
vt 0.070227 0.071102
vt 0.071360 0.071102
vt 0.074772 0.071102
vt 0.074772 0.239565
vt 0.071360 0.239565
vt 0.072059 0.078086
vt 0.072059 0.071384
vt 0.080455 0.078086
vt 0.080455 0.071384
vt 0.080455 0.069015
vt 0.066815 0.241652
vt 0.070227 0.241652
vt 0.066815 0.069015
vt 0.070227 0.069015
vt 0.072059 0.080455
vt 0.080455 0.080455
vt 0.071360 0.241652
vt 0.074772 0.241652
vt 0.071360 0.069015
vt 0.074772 0.069015
vt 0.072059 0.069015
vt 0.077108 0.069152
vt 0.077108 0.241515
vt 0.070858 0.241515
vt 0.070858 0.069152
s 1
f 12/1/1 19/2/1 18/3/1 4/4/1
f 1/5/1 17/6/1 20/7/1 8/8/1
f 17/6/1 18/3/1 19/2/1 20/7/1
f 16/9/2 15/10/2 14/11/2 13/12/2
f 3/13/1 17/6/1 2/14/1
f 2/14/1 17/6/1 1/5/1
f 5/15/1 18/3/1 17/6/1 3/13/1
f 4/4/1 18/3/1 6/16/1
f 6/16/1 18/3/1 5/15/1
f 11/17/1 19/2/1 10/18/1
f 10/18/1 19/2/1 12/1/1
f 20/7/1 19/2/1 11/17/1 9/19/1
f 8/8/1 20/7/1 7/20/1
f 7/20/1 20/7/1 9/19/1
f 21/21/3 22/22/4 24/23/5 23/24/6
f 22/22/4 21/21/3 37/25/7 38/26/7
f 23/24/6 24/23/5 40/27/8 39/28/8
f 25/29/9 26/30/10 38/31/11 37/32/11
f 26/30/10 25/29/12 27/33/13 28/34/14
f 28/34/14 27/33/15 41/35/16 42/36/16
f 29/37/17 30/38/18 42/39/19 41/40/19
f 30/38/18 29/37/17 31/41/20 32/42/21
f 32/42/21 31/41/20 43/43/22 44/44/22
f 33/45/23 34/46/24 36/47/25 35/48/26
f 34/46/24 33/45/23 39/49/27 40/50/27
f 35/48/26 36/47/25 44/51/28 43/52/28
f 3/53/29 21/54/29 23/55/30 5/56/30
f 11/57/31 31/58/31 29/59/32 9/60/32
f 4/61/33 33/45/33 35/48/34 12/62/34
f 8/63/35 27/33/35 25/29/36 1/64/36
f 25/29/37 37/32/38 2/65/38 1/64/36
f 37/66/39 21/54/29 3/53/29 2/67/39
f 23/55/30 39/68/40 6/69/40 5/56/30
f 39/49/41 33/45/33 4/61/42 6/70/41
f 8/63/43 7/71/44 41/35/44 27/33/35
f 7/72/45 9/60/32 29/59/32 41/73/45
f 11/57/31 10/74/46 43/75/46 31/58/31
f 10/76/47 12/62/34 35/48/48 43/52/47
f 34/77/2 40/27/2 14/11/2
f 14/11/2 40/27/2 24/23/2
f 26/78/2 13/12/2 38/26/2
f 38/26/2 13/12/2 22/22/2
f 13/12/2 14/11/2 24/23/2 22/22/2
f 30/38/2 16/9/2 42/39/2
f 42/39/2 16/9/2 28/79/2
f 32/42/2 15/10/2 16/9/2 30/38/2
f 36/80/2 15/10/2 44/44/2
f 44/44/2 15/10/2 32/42/2
f 36/80/2 34/77/2 14/11/2 15/10/2
f 28/79/2 16/9/2 13/12/2 26/78/2
