# Blender 4.1.1
# www.blender.org
o dish_washer_bottom_wheel
v 0.006251 0.014122 -0.005872
v 0.006251 0.010808 -0.010851
v 0.006251 0.005849 -0.014177
v 0.006251 -0.000000 -0.015345
v 0.006251 -0.005849 -0.014177
v 0.006251 -0.010808 -0.010851
v 0.006251 -0.014122 -0.005872
v 0.006251 -0.015285 0.000000
v 0.006251 -0.014122 0.005872
v 0.006251 -0.010808 0.010850
v 0.006251 -0.005850 0.014177
v 0.006251 0.000000 0.015345
v 0.006251 0.005849 0.014177
v 0.006251 0.010808 0.010850
v 0.006251 0.014122 0.005872
v 0.006251 0.015285 -0.000000
v -0.007774 0.000000 0.000000
v -0.002625 0.014122 -0.005872
v -0.002625 0.010808 -0.010851
v -0.002625 0.005849 -0.014177
v -0.002625 -0.000000 -0.015345
v -0.002625 -0.005849 -0.014177
v -0.002625 -0.010808 -0.010851
v -0.002625 -0.014122 -0.005872
v -0.002625 -0.015285 0.000000
v -0.002625 -0.014122 0.005872
v -0.002625 -0.010808 0.010850
v -0.002625 -0.005850 0.014177
v -0.002625 0.000000 0.015345
v -0.002625 0.005849 0.014177
v -0.002625 0.010808 0.010850
v -0.002625 0.014122 0.005872
v -0.002625 0.015285 -0.000000
v -0.007774 0.017160 -0.007136
v -0.007774 0.013134 -0.013185
v -0.002625 0.013134 -0.013185
v -0.002625 0.017160 -0.007136
v -0.007774 0.007108 -0.017227
v -0.002625 0.007108 -0.017227
v -0.007774 -0.000000 -0.018646
v -0.002625 -0.000000 -0.018646
v -0.007774 -0.007108 -0.017227
v -0.002625 -0.007108 -0.017227
v -0.007774 -0.013134 -0.013185
v -0.002625 -0.013134 -0.013185
v -0.007774 -0.017160 -0.007136
v -0.002625 -0.017160 -0.007136
v -0.007774 -0.018574 0.000000
v -0.002625 -0.018574 0.000000
v -0.007774 -0.017160 0.007136
v -0.002625 -0.017160 0.007136
v -0.007774 -0.013134 0.013185
v -0.002625 -0.013134 0.013185
v -0.007774 -0.007108 0.017227
v -0.002625 -0.007108 0.017227
v -0.007774 0.000000 0.018646
v -0.002625 0.000000 0.018646
v -0.007774 0.007108 0.017227
v -0.002625 0.007108 0.017227
v -0.007774 0.013134 0.013185
v -0.002625 0.013134 0.013185
v -0.007774 0.017160 0.007136
v -0.002625 0.017160 0.007136
v -0.007774 0.018574 -0.000000
v -0.002625 0.018574 -0.000000
v 0.006251 0.007177 -0.002985
v 0.006251 0.005493 -0.005515
v 0.006251 0.002973 -0.007205
v 0.006251 -0.000000 -0.007798
v 0.006251 -0.002973 -0.007205
v 0.006251 -0.005493 -0.005515
v 0.006251 -0.007177 -0.002985
v 0.006251 -0.007768 0.000000
v 0.006251 -0.007177 0.002984
v 0.006251 -0.005493 0.005514
v 0.006251 -0.002973 0.007205
v 0.006251 0.000000 0.007798
v 0.006251 0.002973 0.007205
v 0.006251 0.005493 0.005514
v 0.006251 0.007177 0.002984
v 0.006251 0.007768 -0.000000
v 0.000948 0.007177 -0.002985
v 0.000948 0.005493 -0.005515
v 0.000948 0.000000 0.000000
v 0.000948 0.002973 -0.007205
v 0.000948 -0.000000 -0.007798
v 0.000948 -0.002973 -0.007205
v 0.000948 -0.005493 -0.005515
v 0.000948 -0.007177 -0.002985
v 0.000948 -0.007768 0.000000
v 0.000948 -0.007177 0.002984
v 0.000948 -0.005493 0.005514
v 0.000948 -0.002973 0.007205
v 0.000948 0.000000 0.007798
v 0.000948 0.002973 0.007205
v 0.000948 0.005493 0.005514
v 0.000948 0.007177 0.002984
v 0.000948 0.007768 -0.000000
vn -0.0000 0.9247 -0.3807
vn -0.0000 0.7091 -0.7051
vn -0.0000 0.3846 -0.9231
vn -0.0000 -0.0000 -1.0000
vn -0.0000 -0.3846 -0.9231
vn -0.0000 -0.7091 -0.7051
vn -0.0000 -0.9247 -0.3807
vn -0.0000 -1.0000 -0.0000
vn -0.0000 -0.9247 0.3808
vn -0.0000 -0.7092 0.7050
vn -0.0000 -0.3846 0.9231
vn -0.0000 -0.0000 1.0000
vn -0.0000 0.3846 0.9231
vn -0.0000 0.7092 0.7051
vn -0.0000 0.9247 0.3808
vn -0.0000 1.0000 -0.0000
vn -1.0000 -0.0000 -0.0000
vn 1.0000 -0.0000 -0.0000
vn -0.0000 0.9247 -0.3808
vn -0.0000 0.7092 -0.7050
vn -0.0000 -0.7092 -0.7050
vn -0.0000 -0.9247 -0.3808
vn -0.0000 0.7092 0.7050
vn -0.0000 -0.9247 0.3807
vn -0.0000 -0.7091 0.7051
vn -0.0000 -0.3845 0.9231
vn -0.0000 0.3845 0.9231
vn -0.0000 0.7091 0.7051
vn -0.0000 0.9247 0.3807
vt 0.162702 0.191362
vt 0.160933 0.186847
vt 0.164207 0.184624
vt 0.167570 0.188118
vt 0.166381 0.181318
vt 0.170825 0.183259
vt 0.167125 0.177431
vt 0.171974 0.177524
vt 0.166325 0.173556
vt 0.170840 0.171786
vt 0.164103 0.170282
vt 0.167596 0.166919
vt 0.160797 0.168108
vt 0.162738 0.163664
vt 0.156910 0.167364
vt 0.157003 0.162515
vt 0.153035 0.168164
vt 0.151265 0.163649
vt 0.149761 0.170386
vt 0.146398 0.166892
vt 0.147587 0.173692
vt 0.143143 0.171750
vt 0.146843 0.177578
vt 0.141994 0.177485
vt 0.147643 0.181453
vt 0.143128 0.183222
vt 0.149865 0.184728
vt 0.146370 0.188090
vt 0.153171 0.186902
vt 0.151229 0.191346
vt 0.157057 0.187647
vt 0.156964 0.192495
vt 0.158439 0.177666
vt 0.153521 0.189538
vt 0.149352 0.186753
vt 0.146567 0.182584
vt 0.145589 0.177666
vt 0.146567 0.172749
vt 0.149352 0.168580
vt 0.153521 0.165794
vt 0.158439 0.164816
vt 0.163356 0.165794
vt 0.167525 0.168580
vt 0.170310 0.172749
vt 0.171289 0.177666
vt 0.170310 0.182584
vt 0.167525 0.186752
vt 0.163356 0.189538
vt 0.158439 0.190516
vt 0.158533 0.181038
vt 0.156984 0.177505
vt 0.159767 0.180177
vt 0.160578 0.178908
vt 0.160841 0.177426
vt 0.160517 0.175956
vt 0.159655 0.174722
vt 0.158387 0.173912
vt 0.156905 0.173648
vt 0.155435 0.173972
vt 0.154201 0.174834
vt 0.153390 0.176102
vt 0.153127 0.177584
vt 0.153451 0.179054
vt 0.154313 0.180288
vt 0.155581 0.181099
vt 0.157063 0.181362
vt 0.164864 0.196715
vt 0.163532 0.193375
vt 0.169107 0.189661
vt 0.171616 0.192236
vt 0.172836 0.184096
vt 0.176140 0.185514
vt 0.174151 0.177527
vt 0.177746 0.177574
vt 0.172853 0.170956
vt 0.176192 0.169623
vt 0.169139 0.165382
vt 0.171714 0.162872
vt 0.163574 0.161653
vt 0.164993 0.158349
vt 0.157007 0.160337
vt 0.157053 0.156742
vt 0.150436 0.161635
vt 0.149103 0.158296
vt 0.144861 0.165349
vt 0.142352 0.162774
vt 0.141132 0.170913
vt 0.137829 0.169494
vt 0.139816 0.177481
vt 0.136221 0.177433
vt 0.141114 0.184052
vt 0.137774 0.185384
vt 0.144827 0.189627
vt 0.142252 0.192135
vt 0.150392 0.193356
vt 0.148972 0.196659
vt 0.156960 0.194673
vt 0.156912 0.198268
vt 0.159333 0.183074
vt 0.161285 0.181751
vt 0.162583 0.179782
vt 0.163028 0.177466
vt 0.162552 0.175156
vt 0.161229 0.173204
vt 0.159260 0.171907
vt 0.156944 0.171462
vt 0.154635 0.171937
vt 0.152683 0.173260
vt 0.151385 0.175229
vt 0.150940 0.177544
vt 0.151416 0.179854
vt 0.152738 0.181806
vt 0.154708 0.183104
vt 0.157023 0.183549
s 1
f 18/1/1 1/2/1 2/3/2 19/4/2
f 19/4/2 2/3/2 3/5/3 20/6/3
f 20/6/3 3/5/3 4/7/4 21/8/4
f 21/8/4 4/7/4 5/9/5 22/10/5
f 22/10/5 5/9/5 6/11/6 23/12/6
f 23/12/6 6/11/6 7/13/7 24/14/7
f 24/14/7 7/13/7 8/15/8 25/16/8
f 25/16/8 8/15/8 9/17/9 26/18/9
f 26/18/9 9/17/9 10/19/10 27/20/10
f 27/20/10 10/19/10 11/21/11 28/22/11
f 28/22/11 11/21/11 12/23/12 29/24/12
f 29/24/12 12/23/12 13/25/13 30/26/13
f 30/26/13 13/25/13 14/27/14 31/28/14
f 31/28/14 14/27/14 15/29/15 32/30/15
f 32/30/15 15/29/15 16/31/16 33/32/16
f 33/32/16 16/31/16 1/2/1 18/1/1
f 17/33/17 34/34/17 35/35/17
f 17/33/17 35/35/17 38/36/17
f 17/33/17 38/36/17 40/37/17
f 17/33/17 40/37/17 42/38/17
f 17/33/17 42/38/17 44/39/17
f 17/33/17 44/39/17 46/40/17
f 17/33/17 46/40/17 48/41/17
f 17/33/17 48/41/17 50/42/17
f 17/33/17 50/42/17 52/43/17
f 17/33/17 52/43/17 54/44/17
f 17/33/17 54/44/17 56/45/17
f 17/33/17 56/45/17 58/46/17
f 17/33/17 58/46/17 60/47/17
f 17/33/17 60/47/17 62/48/17
f 17/33/17 62/48/17 64/49/17
f 17/33/17 64/49/17 34/34/17
f 82/50/18 84/51/18 83/52/18
f 83/52/18 84/51/18 85/53/18
f 85/53/18 84/51/18 86/54/18
f 86/54/18 84/51/18 87/55/18
f 87/55/18 84/51/18 88/56/18
f 88/56/18 84/51/18 89/57/18
f 89/57/18 84/51/18 90/58/18
f 90/58/18 84/51/18 91/59/18
f 91/59/18 84/51/18 92/60/18
f 92/60/18 84/51/18 93/61/18
f 93/61/18 84/51/18 94/62/18
f 94/62/18 84/51/18 95/63/18
f 95/63/18 84/51/18 96/64/18
f 96/64/18 84/51/18 97/65/18
f 97/65/18 84/51/18 98/66/18
f 98/66/18 84/51/18 82/50/18
f 34/67/19 37/68/19 36/69/20 35/70/20
f 35/70/20 36/69/20 39/71/3 38/72/3
f 38/72/3 39/71/3 41/73/4 40/74/4
f 40/74/4 41/73/4 43/75/5 42/76/5
f 42/76/5 43/75/5 45/77/21 44/78/21
f 44/78/21 45/77/21 47/79/22 46/80/22
f 46/80/22 47/79/22 49/81/8 48/82/8
f 48/82/8 49/81/8 51/83/9 50/84/9
f 50/84/9 51/83/9 53/85/10 52/86/10
f 52/86/10 53/85/10 55/87/11 54/88/11
f 54/88/11 55/87/11 57/89/12 56/90/12
f 56/90/12 57/89/12 59/91/13 58/92/13
f 58/92/13 59/91/13 61/93/23 60/94/23
f 60/94/23 61/93/23 63/95/15 62/96/15
f 62/96/15 63/95/15 65/97/16 64/98/16
f 64/98/16 65/97/16 37/68/19 34/67/19
f 19/4/18 36/69/18 37/68/18 18/1/18
f 20/6/18 39/71/18 36/69/18 19/4/18
f 21/8/18 41/73/18 39/71/18 20/6/18
f 22/10/18 43/75/18 41/73/18 21/8/18
f 23/12/18 45/77/18 43/75/18 22/10/18
f 24/14/18 47/79/18 45/77/18 23/12/18
f 25/16/18 49/81/18 47/79/18 24/14/18
f 26/18/18 51/83/18 49/81/18 25/16/18
f 27/20/18 53/85/18 51/83/18 26/18/18
f 28/22/18 55/87/18 53/85/18 27/20/18
f 29/24/18 57/89/18 55/87/18 28/22/18
f 30/26/18 59/91/18 57/89/18 29/24/18
f 31/28/18 61/93/18 59/91/18 30/26/18
f 32/30/18 63/95/18 61/93/18 31/28/18
f 33/32/18 65/97/18 63/95/18 32/30/18
f 18/1/18 37/68/18 65/97/18 33/32/18
f 1/2/18 66/99/18 67/100/18 2/3/18
f 2/3/18 67/100/18 68/101/18 3/5/18
f 3/5/18 68/101/18 69/102/18 4/7/18
f 4/7/18 69/102/18 70/103/18 5/9/18
f 5/9/18 70/103/18 71/104/18 6/11/18
f 6/11/18 71/104/18 72/105/18 7/13/18
f 7/13/18 72/105/18 73/106/18 8/15/18
f 8/15/18 73/106/18 74/107/18 9/17/18
f 9/17/18 74/107/18 75/108/18 10/19/18
f 10/19/18 75/108/18 76/109/18 11/21/18
f 11/21/18 76/109/18 77/110/18 12/23/18
f 12/23/18 77/110/18 78/111/18 13/25/18
f 13/25/18 78/111/18 79/112/18 14/27/18
f 14/27/18 79/112/18 80/113/18 15/29/18
f 15/29/18 80/113/18 81/114/18 16/31/18
f 16/31/18 81/114/18 66/99/18 1/2/18
f 66/99/24 82/50/24 83/52/25 67/100/25
f 67/100/25 83/52/25 85/53/26 68/101/26
f 68/101/26 85/53/26 86/54/12 69/102/12
f 69/102/12 86/54/12 87/55/27 70/103/27
f 70/103/27 87/55/27 88/56/28 71/104/28
f 71/104/28 88/56/28 89/57/29 72/105/29
f 72/105/29 89/57/29 90/58/16 73/106/16
f 73/106/16 90/58/16 91/59/19 74/107/19
f 74/107/19 91/59/19 92/60/20 75/108/20
f 75/108/20 92/60/20 93/61/3 76/109/3
f 76/109/3 93/61/3 94/62/4 77/110/4
f 77/110/4 94/62/4 95/63/5 78/111/5
f 78/111/5 95/63/5 96/64/21 79/112/21
f 79/112/21 96/64/21 97/65/22 80/113/22
f 80/113/22 97/65/22 98/66/8 81/114/8
f 81/114/8 98/66/8 82/50/24 66/99/24
