# Blender 4.1.1
# www.blender.org
o drawer_600_full
v 0.296000 -0.346500 -0.010667
v 0.296000 0.346500 -0.010667
v -0.296000 -0.346500 -0.010667
v -0.296000 0.346500 -0.010667
v 0.206763 0.257263 0.005333
v 0.206763 -0.257263 0.005333
v -0.206763 0.257263 0.005333
v -0.206763 -0.257263 0.005333
v 0.296000 0.346500 0.005333
v 0.296000 -0.346500 0.005333
v -0.296000 0.346500 0.005333
v -0.296000 -0.346500 0.005333
v 0.231750 0.282250 0.005333
v 0.231750 -0.282250 0.005333
v -0.231750 0.282250 0.005333
v -0.231750 -0.282250 0.005333
v 0.226610 0.277110 -0.002667
v 0.226610 -0.277110 -0.002667
v -0.226610 0.277110 -0.002667
v -0.226610 -0.277110 -0.002667
v 0.211498 0.261998 -0.002667
v 0.211498 -0.261998 -0.002667
v -0.211498 0.261998 -0.002667
v -0.211498 -0.261998 -0.002667
vn 1.0000 -0.0000 -0.0000
vn -0.0000 1.0000 -0.0000
vn -1.0000 -0.0000 -0.0000
vn -0.0000 -1.0000 -0.0000
vn -0.0000 -0.0000 -1.0000
vn -0.0000 -0.0000 1.0000
vn -0.8413 -0.0000 0.5405
vn -0.0000 -0.8413 0.5405
vn 0.8413 -0.0000 0.5405
vn -0.0000 0.8413 0.5405
vn 0.8606 -0.0000 0.5093
vn -0.0000 0.8606 0.5093
vn -0.8606 -0.0000 0.5093
vn -0.0000 -0.8606 0.5093
vt 0.961269 0.555636
vt 0.949311 0.555636
vt 0.949311 -0.000000
vt 0.961269 0.000000
vt 0.985184 0.474656
vt 0.973226 0.474656
vt 0.973226 0.000000
vt 0.985184 0.000000
vt 0.973226 0.555636
vt 0.961269 0.000000
vt 0.973226 0.000000
vt 0.985184 0.949311
vt 0.973226 0.949311
vt 0.973226 0.474656
vt 0.985184 0.474656
vt 0.474656 0.555636
vt -0.000000 0.555636
vt 0.000000 0.000000
vt 0.474656 0.000000
vt 0.363384 0.555636
vt 0.694943 0.555636
vt 0.694943 0.968175
vt 0.363384 0.968175
vt 0.897797 0.504121
vt 0.897797 0.051515
vt 0.949311 0.000000
vt 0.949311 0.555636
vt 0.526170 0.504121
vt 0.474656 0.555636
vt 0.526170 0.051515
vt 0.474656 -0.000000
vt 0.985184 0.448485
vt 0.985184 0.004121
vt 0.992655 0.000000
vt 0.992655 0.452607
vt 0.709651 0.923141
vt 0.709651 0.559757
vt 0.717122 0.555636
vt 0.717122 0.927262
vt 0.985184 0.923141
vt 0.985184 0.478777
vt 0.992655 0.474656
vt 0.992655 0.927262
vt 0.717122 0.923141
vt 0.717122 0.559757
vt 0.724594 0.555636
vt 0.724594 0.927262
vt 0.351268 0.987884
vt 0.351268 0.567752
vt 0.363384 0.555636
vt 0.363384 1.000000
vt 0.012116 0.987884
vt 0.000000 1.000000
vt 0.012116 0.567752
vt 0.000000 0.555636
vt 0.702297 0.559432
vt 0.702297 0.971971
vt 0.694943 0.975768
vt 0.694943 0.555636
vt 0.731948 0.559432
vt 0.731947 0.890991
vt 0.724594 0.894787
vt 0.724594 0.555636
vt 0.709651 0.559432
vt 0.709651 0.971971
vt 0.702297 0.975768
vt 0.702297 0.555636
vt 0.739301 0.559432
vt 0.739301 0.890991
vt 0.731948 0.894787
vt 0.731948 0.555636
s 0
f 10/1/1 1/2/1 2/3/1 9/4/1
f 9/5/2 2/6/2 4/7/2 11/8/2
f 11/9/3 4/1/3 3/10/3 12/11/3
f 12/12/4 3/13/4 1/14/4 10/15/4
f 4/16/5 2/17/5 1/18/5 3/19/5
f 8/20/6 6/21/6 5/22/6 7/23/6
f 13/24/6 14/25/6 10/26/6 9/27/6
f 15/28/6 13/24/6 9/27/6 11/29/6
f 16/30/6 15/28/6 11/29/6 12/31/6
f 14/25/6 16/30/6 12/31/6 10/26/6
f 17/32/7 18/33/7 14/34/7 13/35/7
f 19/36/8 17/37/8 13/38/8 15/39/8
f 20/40/9 19/41/9 15/42/9 16/43/9
f 18/44/10 20/45/10 16/46/10 14/47/10
f 21/48/6 22/49/6 18/50/6 17/51/6
f 23/52/6 21/48/6 17/51/6 19/53/6
f 24/54/6 23/52/6 19/53/6 20/55/6
f 22/49/6 24/54/6 20/55/6 18/50/6
f 5/56/11 6/57/11 22/58/11 21/59/11
f 7/60/12 5/61/12 21/62/12 23/63/12
f 8/64/13 7/65/13 23/66/13 24/67/13
f 6/68/14 8/69/14 24/70/14 22/71/14
