# Blender 4.1.1
# www.blender.org
o drawer_600_half
v 0.296000 -0.171500 -0.010667
v 0.296000 0.171500 -0.010667
v -0.296000 -0.171500 -0.010667
v -0.296000 0.171500 -0.010667
v 0.206763 0.082263 0.005333
v 0.206763 -0.082263 0.005333
v -0.206763 0.082263 0.005333
v -0.206763 -0.082263 0.005333
v 0.296000 0.171500 0.005333
v 0.296000 -0.171500 0.005333
v -0.296000 0.171500 0.005333
v -0.296000 -0.171500 0.005333
v 0.231750 0.107250 0.005333
v 0.231750 -0.107250 0.005333
v -0.231750 0.107250 0.005333
v -0.231750 -0.107250 0.005333
v 0.226610 0.102110 -0.002667
v 0.226610 -0.102110 -0.002667
v -0.226610 0.102110 -0.002667
v -0.226610 -0.102110 -0.002667
v 0.211498 0.086998 -0.002667
v 0.211498 -0.086998 -0.002667
v -0.211498 0.086998 -0.002667
v -0.211498 -0.086998 -0.002667
vn 1.0000 -0.0000 -0.0000
vn -0.0000 1.0000 -0.0000
vn -1.0000 -0.0000 -0.0000
vn -0.0000 -1.0000 -0.0000
vn -0.0000 -0.0000 -1.0000
vn -0.0000 -0.0000 1.0000
vn -0.8413 -0.0000 0.5405
vn -0.0000 -0.8413 0.5405
vn 0.8413 -0.0000 0.5405
vn -0.0000 0.8413 0.5405
vn 0.8606 -0.0000 0.5093
vn -0.0000 0.8606 0.5093
vn -0.8606 -0.0000 0.5093
vn -0.0000 -0.8606 0.5093
vt 0.922260 0.848495
vt 0.906367 0.848495
vt 0.906367 0.482976
vt 0.922260 0.482976
vt 0.980452 0.630867
vt 0.964559 0.630867
vt 0.964559 0.000000
vt 0.980452 0.000000
vt 0.922260 0.482976
vt 0.938153 0.482976
vt 0.938153 0.848495
vt 0.922260 0.848495
vt 0.964559 0.630867
vt 0.948666 0.630867
vt 0.948666 0.000000
vt 0.964559 0.000000
vt 0.365519 0.000000
vt 0.365519 0.630867
vt -0.000000 0.630867
vt 0.000000 0.000000
vt 0.731038 0.923652
vt 0.731039 0.482976
vt 0.906367 0.482976
vt 0.906367 0.923652
vt 0.662570 0.068468
vt 0.433987 0.068468
vt 0.365519 -0.000000
vt 0.731038 0.000000
vt 0.662570 0.562399
vt 0.731038 0.630867
vt 0.433987 0.562399
vt 0.365519 0.630867
vt 0.009930 0.636344
vt 0.009930 0.853972
vt 0.000000 0.859450
vt -0.000000 0.630867
vt 0.980452 0.488453
vt 0.980452 0.005477
vt 0.990382 0.000000
vt 0.990382 0.493930
vt 0.009930 0.853972
vt 0.009930 0.636344
vt 0.019861 0.630867
vt 0.019861 0.859450
vt 0.938736 0.971428
vt 0.938736 0.488453
vt 0.948666 0.482975
vt 0.948666 0.976906
vt 0.932563 0.016104
vt 0.747142 0.016104
vt 0.731038 0.000000
vt 0.948666 0.000000
vt 0.932563 0.466872
vt 0.948666 0.482975
vt 0.747142 0.466872
vt 0.731038 0.482975
vt 0.029635 0.635913
vt 0.029635 0.811241
vt 0.019861 0.816287
vt 0.019861 0.630867
vt 0.990226 0.498976
vt 0.990226 0.939653
vt 0.980452 0.944698
vt 0.980452 0.493930
vt 0.029635 0.811241
vt 0.029635 0.635913
vt 0.039409 0.630867
vt 0.039409 0.816287
vt 1.000000 0.498976
vt 1.000000 0.939653
vt 0.990226 0.944698
vt 0.990226 0.493930
s 0
f 10/1/1 1/2/1 2/3/1 9/4/1
f 9/5/2 2/6/2 4/7/2 11/8/2
f 11/9/3 4/10/3 3/11/3 12/12/3
f 12/13/4 3/14/4 1/15/4 10/16/4
f 4/17/5 2/18/5 1/19/5 3/20/5
f 8/21/6 6/22/6 5/23/6 7/24/6
f 13/25/6 14/26/6 10/27/6 9/28/6
f 15/29/6 13/25/6 9/28/6 11/30/6
f 16/31/6 15/29/6 11/30/6 12/32/6
f 14/26/6 16/31/6 12/32/6 10/27/6
f 17/33/7 18/34/7 14/35/7 13/36/7
f 19/37/8 17/38/8 13/39/8 15/40/8
f 20/41/9 19/42/9 15/43/9 16/44/9
f 18/45/10 20/46/10 16/47/10 14/48/10
f 21/49/6 22/50/6 18/51/6 17/52/6
f 23/53/6 21/49/6 17/52/6 19/54/6
f 24/55/6 23/53/6 19/54/6 20/56/6
f 22/50/6 24/55/6 20/56/6 18/51/6
f 5/57/11 6/58/11 22/59/11 21/60/11
f 7/61/12 5/62/12 21/63/12 23/64/12
f 8/65/13 7/66/13 23/67/13 24/68/13
f 6/69/14 8/70/14 24/71/14 22/72/14
