# Blender 4.1.1
# www.blender.org
o drawer_handle_01
v 0.058970 0.005516 -0.025711
v -0.058970 0.005516 -0.025711
v 0.058970 -0.005516 -0.025711
v -0.058970 -0.005516 -0.025711
v 0.058970 0.005516 -0.030154
v -0.058970 0.005516 -0.030154
v 0.058970 -0.005516 -0.030154
v -0.058970 -0.005516 -0.030154
v -0.048430 -0.005516 -0.030154
v -0.048430 -0.005516 -0.023744
v -0.048430 0.005516 -0.023744
v -0.048430 0.005516 -0.030154
v -0.036190 0.005516 -0.023744
v 0.036190 0.005516 -0.023744
v 0.000000 0.005516 -0.023744
v 0.036190 -0.005516 -0.023744
v -0.036190 -0.005516 -0.023744
v 0.000000 -0.005516 -0.023744
v 0.036190 -0.005516 -0.030154
v -0.036190 -0.005516 -0.030154
v 0.000000 -0.005516 -0.030154
v 0.036190 0.005516 -0.030154
v -0.036190 0.005516 -0.030154
v 0.000000 0.005516 -0.030154
v 0.048430 0.005516 -0.023744
v 0.048430 -0.005516 -0.023744
v 0.048430 0.005516 -0.030154
v 0.048430 -0.005516 -0.030154
v 0.036190 -0.005516 0.000000
v 0.048430 -0.005516 0.000000
v -0.048430 0.005516 0.000000
v -0.048430 -0.005516 0.000000
v -0.036190 0.005516 0.000000
v -0.036190 -0.005516 0.000000
v 0.036190 0.005516 0.000000
v 0.048430 0.005516 0.000000
vn -0.0000 1.0000 -0.0000
vn -0.0000 -0.0000 -1.0000
vn 1.0000 -0.0000 -0.0000
vn -1.0000 -0.0000 -0.0000
vn -0.0000 -1.0000 -0.0000
vn -0.1835 -0.0000 0.9830
vn -0.0000 -0.0000 1.0000
vn 0.1835 -0.0000 0.9830
vt 0.903645 0.259338
vt 0.801550 0.259338
vt 0.801550 0.205858
vt 0.903645 0.205858
vt 0.095733 0.531815
vt 0.197830 0.531815
vt 0.197830 0.623849
vt 0.095733 0.623849
vt 0.197821 0.259338
vt 0.095726 0.259338
vt 0.095726 0.205858
vt 0.197821 0.205858
vt 0.801550 0.007811
vt 0.903645 0.007811
vt 0.507456 0.423255
vt 0.507456 0.460317
vt 0.415421 0.460317
vt 0.415421 0.423255
vt 0.623236 0.007809
vt 0.660300 0.007810
vt 0.660300 0.099848
vt 0.623236 0.099849
vt 0.903676 0.323295
vt 0.801578 0.323295
vt 0.801578 0.269814
vt 0.903676 0.269814
vt 0.903668 0.531815
vt 0.991585 0.531815
vt 0.991585 0.623849
vt 0.903668 0.623849
vt 0.095730 0.323294
vt 0.007812 0.306876
vt 0.007812 0.269814
vt 0.095730 0.269814
vt 0.749741 0.099849
vt 0.749741 0.007810
vt 0.499686 0.205858
vt 0.499686 0.259338
vt 0.801571 0.531815
vt 0.801571 0.623849
vt 0.499700 0.623849
vt 0.499701 0.531815
vt 0.197829 0.323294
vt 0.197829 0.269814
vt 0.499703 0.269814
vt 0.499703 0.323294
vt 0.822775 0.635046
vt 0.822775 0.727080
vt 0.520904 0.727080
vt 0.520904 0.635046
vt 0.219034 0.727080
vt 0.219034 0.635046
vt 0.007811 0.259338
vt 0.007811 0.222277
vt 0.197829 0.521349
vt 0.095730 0.521348
vt 0.991594 0.306876
vt 0.991594 0.269814
vt 0.415421 0.333817
vt 0.507456 0.333817
vt 0.007816 0.531815
vt 0.007816 0.623849
vt 0.991560 0.259338
vt 0.991560 0.222277
vt 0.721118 0.425847
vt 0.619021 0.425847
vt 0.619021 0.333813
vt 0.721118 0.333813
vt 0.609255 0.333809
vt 0.609255 0.435911
vt 0.517215 0.435911
vt 0.517215 0.333809
vt 0.008513 0.726121
vt 0.008513 0.634085
vt 0.206569 0.634085
vt 0.206569 0.726121
vt 0.405646 0.007816
vt 0.405646 0.099853
vt 0.207590 0.099853
vt 0.207590 0.007816
vt 0.903676 0.521349
vt 0.801578 0.521349
vt 0.095726 0.007811
vt 0.197821 0.007811
vt 0.613472 0.007808
vt 0.613472 0.099847
vt 0.415411 0.099847
vt 0.415411 0.007808
vt 0.207597 0.425849
vt 0.207597 0.333813
vt 0.405653 0.333813
vt 0.405653 0.425850
s 1
f 27/1/1 22/2/1 14/3/1 25/4/1
f 28/5/2 19/6/2 22/7/2 27/8/2
f 23/9/1 12/10/1 11/11/1 13/12/1
f 25/4/1 14/3/1 35/13/1 36/14/1
f 3/15/3 7/16/3 5/17/3 1/18/3
f 8/19/4 4/20/4 2/21/4 6/22/4
f 26/23/5 16/24/5 19/25/5 28/26/5
f 9/27/2 8/28/2 6/29/2 12/30/2
f 10/31/5 4/32/5 8/33/5 9/34/5
f 11/35/6 2/21/6 4/20/6 10/36/6
f 23/9/1 13/12/1 15/37/1 24/38/1
f 24/38/1 15/37/1 14/3/1 22/2/1
f 20/39/2 23/40/2 24/41/2 21/42/2
f 21/42/2 24/41/2 22/7/2 19/6/2
f 17/43/5 20/44/5 21/45/5 18/46/5
f 18/46/5 21/45/5 19/25/5 16/24/5
f 13/47/7 17/48/7 18/49/7 15/50/7
f 15/50/7 18/49/7 16/51/7 14/52/7
f 12/10/1 6/53/1 2/54/1 11/11/1
f 10/31/5 17/43/5 34/55/5 32/56/5
f 17/43/5 10/31/5 9/34/5 20/44/5
f 20/39/2 9/27/2 12/30/2 23/40/2
f 3/57/5 26/23/5 28/26/5 7/58/5
f 1/18/8 25/59/8 26/60/8 3/15/8
f 7/61/2 28/5/2 27/8/2 5/62/2
f 5/63/1 27/1/1 25/4/1 1/64/1
f 36/65/7 35/66/7 29/67/7 30/68/7
f 33/69/7 31/70/7 32/71/7 34/72/7
f 11/73/4 10/74/4 32/75/4 31/76/4
f 26/77/3 25/78/3 36/79/3 30/80/3
f 16/24/5 26/23/5 30/81/5 29/82/5
f 13/12/1 11/11/1 31/83/1 33/84/1
f 14/85/4 16/86/4 29/87/4 35/88/4
f 17/89/3 13/90/3 33/91/3 34/92/3
