# Blender 4.1.1
# www.blender.org
o hanging_drawer_600
v -0.146500 -0.356000 -0.008000
v -0.146500 0.356000 -0.008000
v 0.146500 -0.356000 -0.008000
v 0.146500 0.356000 -0.008000
v -0.092230 -0.301730 -0.000000
v -0.092230 0.301730 0.000000
v 0.092230 0.301730 0.000000
v 0.092230 -0.301730 -0.000000
v -0.146500 -0.356000 0.008000
v -0.146500 0.356000 0.008000
v 0.146500 0.356000 0.008000
v 0.146500 -0.356000 0.008000
v -0.096250 -0.305750 0.008000
v -0.096250 0.305750 0.008000
v 0.096250 0.305750 0.008000
v 0.096250 -0.305750 0.008000
vn -1.0000 -0.0000 -0.0000
vn -0.0000 1.0000 -0.0000
vn 1.0000 -0.0000 -0.0000
vn -0.0000 -1.0000 -0.0000
vn -0.0000 -0.0000 -1.0000
vn -0.0000 -0.0000 1.0000
vn 0.8935 -0.0000 0.4490
vn -0.0000 -0.8935 0.4490
vn -0.8935 -0.0000 0.4490
vn -0.0000 0.8935 0.4490
vt 0.941815 0.853115
vt 0.923162 0.853115
vt 0.923162 -0.000000
vt 0.941815 -0.000000
vt 1.000000 0.351071
vt 0.981346 0.351071
vt 0.981346 0.000000
vt 1.000000 0.000000
vt 0.960469 0.853115
vt 0.941816 0.853115
vt 0.941816 -0.000000
vt 0.960469 0.000000
vt 1.000000 0.702142
vt 0.981346 0.702142
vt 0.981346 0.351071
vt 1.000000 0.351071
vt 0.351071 0.853115
vt -0.000000 0.853115
vt 0.000000 0.000000
vt 0.351071 0.000000
vt 0.702142 0.723063
vt 0.702142 -0.000000
vt 0.923162 0.000000
vt 0.923161 0.723063
vt 0.411281 0.060209
vt 0.411280 0.792906
vt 0.351071 0.853115
vt 0.351071 -0.000000
vt 0.641933 0.792906
vt 0.702142 0.853115
vt 0.641933 0.060209
vt 0.702142 0.000000
vt 0.970908 0.004817
vt 0.970908 0.727879
vt 0.960469 0.732696
vt 0.960470 0.000000
vt 0.712581 0.727879
vt 0.712581 0.948899
vt 0.702142 0.953715
vt 0.702142 0.723063
vt 0.981346 0.004817
vt 0.981346 0.727879
vt 0.970908 0.732696
vt 0.970908 0.000000
vt 0.723019 0.727879
vt 0.723019 0.948899
vt 0.712581 0.953715
vt 0.712581 0.723063
s 0
f 1/1/1 9/2/1 10/3/1 2/4/1
f 2/5/2 10/6/2 11/7/2 4/8/2
f 4/9/3 11/10/3 12/11/3 3/12/3
f 3/13/4 12/14/4 9/15/4 1/16/4
f 2/17/5 4/18/5 3/19/5 1/20/5
f 6/21/6 5/22/6 8/23/6 7/24/6
f 13/25/6 14/26/6 10/27/6 9/28/6
f 14/26/6 15/29/6 11/30/6 10/27/6
f 15/29/6 16/31/6 12/32/6 11/30/6
f 16/31/6 13/25/6 9/28/6 12/32/6
f 5/33/7 6/34/7 14/35/7 13/36/7
f 6/37/8 7/38/8 15/39/8 14/40/8
f 7/41/9 8/42/9 16/43/9 15/44/9
f 8/45/10 5/46/10 13/47/10 16/48/10
