# Blender 4.1.1
# www.blender.org
o board
v -0.136278 -0.000000 -0.185833
v -0.140566 -0.000000 -0.184684
v -0.143706 -0.000000 -0.181545
v -0.144855 -0.000000 -0.177257
v -0.140566 0.000000 0.184684
v -0.136278 0.000000 0.185833
v -0.143706 0.000000 0.181545
v -0.144855 0.000000 0.177257
v 0.143706 0.000000 0.181545
v 0.144855 0.000000 0.177257
v 0.140566 0.000000 0.184684
v 0.136278 0.000000 0.185833
v 0.140566 -0.000000 -0.184684
v 0.136278 -0.000000 -0.185833
v 0.143706 -0.000000 -0.181545
v 0.144855 -0.000000 -0.177257
v -0.123931 0.027632 -0.168147
v -0.119633 0.027632 -0.169298
v -0.127077 0.027632 -0.165001
v -0.128228 0.027632 -0.160703
v -0.119633 0.027632 0.169297
v -0.123931 0.027632 0.168145
v -0.127077 0.027632 0.164999
v -0.128228 0.027632 0.160701
v 0.128227 0.027632 0.160701
v 0.127076 0.027632 0.164999
v 0.123930 0.027632 0.168145
v 0.119632 0.027632 0.169297
v 0.119632 0.027632 -0.169298
v 0.123930 0.027632 -0.168147
v 0.127076 0.027632 -0.165001
v 0.128227 0.027632 -0.160703
v 0.119632 0.027632 0.160701
v 0.119632 0.027632 -0.160703
v -0.119633 0.027632 -0.160703
v -0.119633 0.027632 0.160701
v 0.136278 -0.000000 -0.177257
v -0.136278 -0.000000 -0.177257
v 0.136278 0.000000 0.177257
v -0.136278 0.000000 0.177257
vn -0.4019 0.6361 -0.6586
vn -0.6842 0.6308 -0.3660
vn -0.3658 0.6301 -0.6849
vn -0.4019 0.6362 0.6586
vn -0.6842 0.6309 0.3660
vn -0.6585 0.6366 0.4014
vn 0.8120 0.5683 -0.1330
vn 0.8324 0.5484 0.0793
vn 0.8120 0.5683 0.1330
vn -0.0000 -1.0000 -0.0000
vn 0.6842 0.6309 0.3659
vn 0.6585 0.6366 0.4014
vn 0.4019 0.6362 0.6586
vn 0.3658 0.6302 0.6849
vn 0.1333 0.5669 0.8130
vn 0.1334 0.5668 -0.8130
vn 0.3658 0.6301 -0.6849
vn 0.4019 0.6362 -0.6586
vn 0.6842 0.6309 -0.3660
vn 0.6585 0.6366 -0.4014
vn -0.8120 0.5683 -0.1330
vn -0.8325 0.5484 -0.0793
vn -0.1333 0.5668 -0.8130
vn 0.0792 0.5466 -0.8337
vn -0.0000 1.0000 -0.0000
vn -0.3658 0.6302 0.6849
vn -0.1333 0.5669 0.8130
vn -0.0792 0.5466 0.8336
vn -0.8120 0.5683 0.1330
vn 0.0792 0.5466 0.8336
vn -0.8325 0.5484 0.0793
vn -0.0792 0.5466 -0.8337
vn -0.6585 0.6366 -0.4014
vn 0.8324 0.5484 -0.0793
vt 0.845623 0.641349
vt 0.897815 0.606230
vt 0.901300 0.613058
vt 0.821691 0.031005
vt 0.762741 0.052969
vt 0.818179 0.024209
vt 0.981213 0.642000
vt 0.927745 0.059495
vt 0.983414 0.031170
vt 0.035588 0.501287
vt 0.020809 0.031669
vt 0.035587 0.031669
vt 0.926657 0.051906
vt 0.982329 0.023598
vt 0.978850 0.016785
vt 0.923171 0.045079
vt 0.973355 0.011463
vt 0.693006 0.491370
vt 0.749559 0.470160
vt 0.694130 0.498937
vt 0.753078 0.476971
vt 0.697642 0.505733
vt 0.703164 0.511026
vt 0.841059 0.626963
vt 0.896727 0.598642
vt 0.692063 0.021752
vt 0.748432 0.462577
vt 0.036884 0.561042
vt 0.022074 0.561042
vt 0.024058 0.553636
vt 0.024057 0.980699
vt 0.022073 0.973294
vt 0.036883 0.973294
vt 0.590670 0.561039
vt 0.590670 0.546229
vt 0.598075 0.548213
vt 0.766260 0.059780
vt 0.822816 0.038572
vt 0.767387 0.067363
vt 0.812657 0.018916
vt 0.768215 0.479619
vt 0.823759 0.508189
vt 0.646421 0.501287
vt 0.661199 0.501287
vt 0.659220 0.508676
vt 0.605480 0.973300
vt 0.590669 0.973300
vt 0.036884 0.546231
vt 0.590669 0.988110
vt 0.036883 0.988104
vt 0.898723 0.044861
vt 0.603496 0.980705
vt 0.029479 0.548216
vt 0.029478 0.986120
vt 0.598075 0.986126
vt 0.603496 0.553634
vt 0.605480 0.561039
vt 0.022789 0.024280
vt 0.646423 0.031669
vt 0.661201 0.031669
vt 0.035588 0.516065
vt 0.659221 0.024280
vt 0.028199 0.514085
vt 0.646423 0.016891
vt 0.035587 0.016890
vt 0.028198 0.018870
vt 0.020810 0.501287
vt 0.022790 0.508676
vt 0.646421 0.516065
vt 0.653810 0.514085
vt 0.653812 0.018870
vt 0.851118 0.646671
vt 0.906807 0.618391
vt 0.842145 0.634535
vt 0.925749 0.613278
vt 0.917665 0.039746
vt 0.758613 0.482275
vt 0.747604 0.050320
vt 0.757206 0.047664
vt 0.843260 0.016135
s 1
f 2/1/1 19/2/2 17/3/3
f 5/4/4 23/5/5 7/6/6
f 16/7/7 25/8/8 10/9/9
f 39/10/10 6/11/10 40/12/10
f 10/9/9 26/13/11 9/14/12
f 26/13/11 11/15/13 9/14/12
f 27/16/14 12/17/15 11/15/13
f 14/18/16 30/19/17 13/20/18
f 13/20/18 31/21/19 15/22/20
f 31/21/19 16/23/7 15/22/20
f 19/2/2 4/24/21 20/25/22
f 1/26/23 29/27/24 14/18/16
f 35/28/25 18/29/25 17/30/25
f 30/31/25 29/32/25 34/33/25
f 36/34/25 24/35/25 23/36/25
f 22/37/26 6/38/27 21/39/28
f 23/5/5 8/40/29 7/6/6
f 28/41/30 6/38/27 12/42/15
f 37/43/10 14/44/10 13/45/10
f 36/34/25 28/46/25 33/47/25
f 20/48/25 36/34/25 35/28/25
f 34/33/25 25/49/25 32/50/25
f 35/28/25 33/47/25 34/33/25
f 29/32/25 35/28/25 34/33/25
f 4/24/21 24/51/31 20/25/22
f 33/47/25 28/46/25 27/52/25
f 35/28/25 17/30/25 19/53/25
f 20/48/25 35/28/25 19/53/25
f 32/50/25 31/54/25 34/33/25
f 31/54/25 30/31/25 34/33/25
f 33/47/25 27/52/25 26/55/25
f 25/49/25 33/47/25 26/55/25
f 36/34/25 23/36/25 22/56/25
f 21/57/25 36/34/25 22/56/25
f 40/12/10 6/11/10 5/58/10
f 14/44/10 38/59/10 1/60/10
f 37/43/10 10/61/10 39/10/10
f 2/62/10 1/60/10 38/59/10
f 37/43/10 40/12/10 38/59/10
f 39/10/10 10/61/10 9/63/10
f 4/64/10 40/12/10 8/65/10
f 8/65/10 40/12/10 7/66/10
f 7/66/10 40/12/10 5/58/10
f 12/67/10 39/10/10 11/68/10
f 11/68/10 39/10/10 9/63/10
f 16/69/10 37/43/10 15/70/10
f 15/70/10 37/43/10 13/45/10
f 3/71/10 2/62/10 38/59/10
f 4/64/10 3/71/10 38/59/10
f 1/72/23 17/3/3 18/73/32
f 2/1/1 3/74/33 19/2/2
f 5/4/4 22/37/26 23/5/5
f 16/7/7 32/75/34 25/8/8
f 39/10/10 12/67/10 6/11/10
f 10/9/9 25/8/8 26/13/11
f 26/13/11 27/16/14 11/15/13
f 27/16/14 28/76/30 12/17/15
f 14/18/16 29/27/24 30/19/17
f 13/20/18 30/19/17 31/21/19
f 31/21/19 32/77/34 16/23/7
f 19/2/2 3/74/33 4/24/21
f 1/26/23 18/78/32 29/27/24
f 22/37/26 5/4/4 6/38/27
f 23/5/5 24/79/31 8/40/29
f 28/41/30 21/39/28 6/38/27
f 36/34/25 21/57/25 28/46/25
f 20/48/25 24/35/25 36/34/25
f 34/33/25 33/47/25 25/49/25
f 35/28/25 36/34/25 33/47/25
f 29/32/25 18/29/25 35/28/25
f 4/24/21 8/80/29 24/51/31
f 14/44/10 37/43/10 38/59/10
f 37/43/10 16/69/10 10/61/10
f 37/43/10 39/10/10 40/12/10
f 4/64/10 38/59/10 40/12/10
f 1/72/23 2/1/1 17/3/3
